<?xml version="1.0" standalone="no"?>
<!DOCTYPE svg PUBLIC "-//W3C//DTD SVG 20010904//EN"
 "http://www.w3.org/TR/2001/REC-SVG-20010904/DTD/svg10.dtd">
<svg version="1.0" xmlns="http://www.w3.org/2000/svg"
 width="169.000000pt" height="53.000000pt" viewBox="0 0 169.000000 53.000000"
 preserveAspectRatio="xMidYMid meet">

<g transform="translate(0.000000,53.000000) scale(0.100000,-0.100000)"
fill="#000000" stroke="none">
<path d="M75 520 c-11 -4 -31 -20 -45 -35 -25 -27 -25 -27 -28 -256 l-3 -229
691 0 c749 0 717 -2 770 55 25 26 25 27 28 251 l3 224 -698 -1 c-384 0 -707
-4 -718 -9z m236 -125 c29 -15 30 -22 6 -52 -7 -10 -16 -9 -39 3 -37 19 -81
11 -76 -13 2 -11 26 -25 62 -38 32 -11 64 -29 72 -40 35 -47 0 -119 -62 -131
-39 -7 -97 6 -129 30 -19 14 -19 15 -1 35 17 19 20 19 48 5 41 -21 93 -15 93
11 0 14 -11 22 -41 31 -49 14 -86 33 -96 48 -17 24 -8 77 17 101 29 30 98 34
146 10z m159 -125 l0 -140 -30 0 -30 0 0 140 0 140 30 0 30 0 0 -140z m285
128 c29 -13 31 -25 9 -49 -14 -16 -19 -16 -50 -3 -64 27 -119 -8 -119 -76 0
-72 76 -116 130 -76 27 19 13 46 -25 46 -25 0 -30 4 -30 25 0 24 2 25 65 25
l65 0 0 -59 c0 -52 -3 -62 -26 -80 -33 -26 -103 -36 -148 -21 -19 6 -49 27
-66 46 -54 62 -37 172 33 214 37 23 121 27 162 8z m285 -1 c36 -18 49 -61 28
-97 -16 -27 -15 -29 5 -43 30 -20 29 -83 -2 -108 -19 -16 -40 -19 -122 -19
l-99 0 0 140 0 140 83 0 c46 0 93 -6 107 -13z m320 -17 l0 -30 -75 0 c-73 0
-75 -1 -75 -25 0 -24 2 -25 65 -25 l65 0 0 -30 0 -30 -65 0 -65 0 0 -30 0 -30
75 0 c73 0 75 -1 75 -25 l0 -25 -105 0 -105 0 0 140 0 140 105 0 105 0 0 -30z"/>
<path d="M920 325 c0 -25 2 -26 48 -23 39 3 47 6 47 23 0 17 -8 20 -47 23 -46
3 -48 2 -48 -23z"/>
<path d="M920 211 c0 -30 2 -31 43 -31 51 0 70 11 65 36 -2 15 -14 20 -56 22
l-52 3 0 -30z"/>
</g>
</svg>
