<?xml version="1.0" standalone="no"?>
<!DOCTYPE svg PUBLIC "-//W3C//DTD SVG 20010904//EN"
 "http://www.w3.org/TR/2001/REC-SVG-20010904/DTD/svg10.dtd">
<svg version="1.0" xmlns="http://www.w3.org/2000/svg"
 width="169.000000pt" height="53.000000pt" viewBox="0 0 169.000000 53.000000"
 preserveAspectRatio="xMidYMid meet">

<g transform="translate(0.000000,53.000000) scale(0.100000,-0.100000)"
fill="#000000" stroke="none">
<path d="M532 505 c-72 -16 -249 -93 -297 -129 -82 -63 -86 -165 -8 -238 66
-63 270 -122 368 -106 99 17 151 29 188 46 l39 17 -124 0 c-117 0 -126 2 -183
30 -77 39 -99 70 -99 140 0 61 19 95 73 132 53 36 127 46 307 39 90 -3 164 -4
164 0 0 11 -112 55 -177 69 -83 18 -168 18 -251 0z"/>
<path d="M568 390 c-115 -34 -152 -139 -73 -208 48 -43 106 -51 355 -51 173 0
219 3 237 15 13 8 23 21 23 29 0 11 11 15 40 15 22 0 40 -4 40 -10 0 -5 9 -19
20 -30 18 -18 33 -20 158 -20 161 0 182 8 182 68 0 21 -7 47 -15 59 -10 14
-12 24 -5 28 17 11 12 80 -8 99 -17 15 -62 16 -473 15 -250 -1 -466 -5 -481
-9z m253 -51 c22 -35 11 -39 -73 -33 -73 6 -86 4 -107 -13 -33 -27 -22 -49 30
-63 29 -8 59 -9 98 -2 60 11 75 5 69 -24 -7 -40 -243 -36 -297 4 -20 15 -26
28 -26 57 0 43 28 71 86 86 52 13 210 4 220 -12z m129 -74 l0 -85 -50 0 -50 0
0 85 0 85 50 0 50 0 0 -85z m280 60 c0 -24 -2 -25 -77 -27 l-78 -1 60 -6 c51
-5 60 -9 60 -26 0 -17 -8 -20 -57 -23 -57 -3 -58 -4 -58 -32 0 -30 0 -30 -60
-30 l-60 0 0 85 0 85 135 0 135 0 0 -25z m278 3 c-3 -21 -10 -23 -78 -28 l-75
-6 65 -4 c57 -4 65 -8 65 -25 0 -17 -8 -21 -65 -25 l-65 -4 80 -6 c73 -5 80
-7 83 -27 3 -23 3 -23 -132 -23 l-136 0 0 85 0 85 131 0 c130 0 130 0 127 -22z"/>
<path d="M643 13 c15 -2 37 -2 50 0 12 2 0 4 -28 4 -27 0 -38 -2 -22 -4z"/>
</g>
</svg>
