<svg id="svg" version="1.1" xmlns="http://www.w3.org/2000/svg" xmlns:xlink="http://www.w3.org/1999/xlink" width="400" height="125.44378698224853" viewBox="0, 0, 400,125.44378698224853"><g id="svgg"><path id="path0" d="M129.500 1.667 C 129.256 1.911,129.167 2.222,129.167 2.833 L 129.167 3.667 124.458 3.677 C 118.033 3.690,117.599 3.793,117.467 5.333 L 117.417 5.917 114.050 6.000 C 110.202 6.095,110.303 6.056,110.199 7.498 L 110.127 8.500 106.823 8.500 C 105.005 8.500,103.477 8.569,103.425 8.652 C 103.374 8.736,103.283 9.261,103.225 9.819 L 103.119 10.833 101.049 10.833 C 98.435 10.833,98.333 10.883,98.333 12.173 L 98.333 13.167 96.200 13.167 C 93.711 13.167,93.667 13.191,93.667 14.533 L 93.667 15.500 91.512 15.500 C 88.954 15.500,88.833 15.564,88.833 16.909 L 88.833 17.794 90.421 17.913 C 92.434 18.064,94.009 17.895,94.287 17.498 C 94.499 17.195,94.992 17.063,96.417 16.927 C 97.494 16.825,101.947 16.371,104.073 16.148 C 105.033 16.047,106.190 15.800,106.823 15.561 C 108.514 14.924,115.478 14.168,119.674 14.165 C 121.091 14.164,123.225 14.053,124.417 13.918 C 126.885 13.639,133.509 13.592,134.667 13.845 C 135.079 13.936,137.592 14.081,140.250 14.169 C 145.326 14.337,147.502 14.489,150.669 14.899 C 152.314 15.113,153.808 15.456,153.237 15.489 C 153.139 15.495,152.239 15.615,151.237 15.756 C 149.605 15.986,146.980 16.191,139.583 16.667 C 137.490 16.802,136.073 17.011,132.250 17.748 C 128.360 18.497,126.157 18.815,124.167 18.914 C 121.851 19.029,121.513 19.091,119.667 19.746 C 117.639 20.465,115.403 21.001,113.052 21.332 C 110.443 21.699,110.356 21.723,109.426 22.302 C 108.779 22.705,106.829 23.277,103.625 24.003 C 102.731 24.205,102.000 24.429,102.000 24.499 C 102.000 24.662,100.385 25.450,99.833 25.556 C 98.939 25.728,96.900 26.387,96.588 26.604 C 96.407 26.730,96.130 26.833,95.972 26.833 C 95.815 26.833,95.588 26.971,95.468 27.140 C 95.158 27.576,94.667 27.804,93.260 28.164 C 91.857 28.523,91.028 28.912,90.114 29.640 C 89.490 30.138,88.770 30.449,87.385 30.820 C 86.989 30.927,86.260 31.364,85.698 31.834 C 84.757 32.620,83.423 33.333,82.894 33.333 C 82.760 33.333,82.410 33.587,82.117 33.896 C 81.679 34.358,80.504 35.105,78.833 35.983 C 78.696 36.055,78.483 36.318,78.361 36.568 C 78.238 36.817,78.013 37.068,77.861 37.126 C 77.098 37.412,75.783 38.419,75.419 38.997 C 75.193 39.354,74.740 39.775,74.411 39.930 C 73.864 40.190,73.371 40.728,72.898 41.583 C 72.797 41.766,72.392 42.104,71.997 42.335 C 71.603 42.566,71.022 43.129,70.707 43.586 C 70.392 44.043,69.896 44.553,69.604 44.720 C 69.278 44.907,68.883 45.388,68.578 45.970 C 68.306 46.491,67.771 47.217,67.389 47.583 C 66.903 48.050,66.564 48.600,66.260 49.417 C 66.020 50.058,65.447 51.205,64.986 51.964 C 64.443 52.857,64.094 53.651,63.998 54.214 C 63.916 54.692,63.752 55.646,63.633 56.333 C 62.953 60.261,63.540 69.086,64.577 70.516 C 65.375 71.619,66.500 74.028,66.500 74.637 C 66.500 74.759,66.883 75.236,67.350 75.699 C 67.818 76.162,68.311 76.775,68.445 77.062 C 68.990 78.223,69.224 78.545,69.750 78.855 C 70.053 79.034,70.344 79.352,70.396 79.561 C 70.449 79.770,70.962 80.385,71.537 80.927 C 72.113 81.468,72.696 82.069,72.833 82.261 C 73.284 82.889,76.342 85.500,76.628 85.500 C 76.782 85.500,77.360 85.944,77.912 86.486 C 78.465 87.028,79.361 87.709,79.903 87.999 C 80.445 88.289,81.034 88.711,81.212 88.936 C 81.484 89.283,84.073 90.667,84.449 90.667 C 84.516 90.667,84.874 90.955,85.244 91.307 C 85.668 91.711,86.317 92.088,87.000 92.327 C 88.591 92.884,89.801 93.481,90.046 93.830 C 90.285 94.173,90.859 94.437,92.583 95.002 C 93.225 95.211,93.949 95.522,94.192 95.692 C 94.436 95.861,94.692 96.000,94.763 96.000 C 94.833 96.000,95.015 96.113,95.167 96.250 C 95.530 96.579,97.700 97.333,98.289 97.335 C 98.752 97.337,99.704 97.764,101.247 98.662 C 102.175 99.202,103.601 99.603,105.415 99.833 C 106.462 99.966,107.803 100.440,108.667 100.982 C 109.067 101.234,110.648 101.645,111.997 101.849 C 112.683 101.953,113.423 102.106,113.642 102.189 C 113.861 102.272,114.559 102.414,115.195 102.504 C 115.833 102.594,116.849 102.902,117.466 103.191 C 118.383 103.620,119.031 103.769,121.083 104.021 C 124.016 104.382,126.323 104.749,127.833 105.096 C 128.429 105.233,129.565 105.448,130.358 105.574 C 131.151 105.700,131.976 105.900,132.192 106.018 C 132.577 106.228,133.853 106.318,141.333 106.658 C 143.212 106.744,145.275 106.891,145.917 106.985 C 147.586 107.229,169.233 107.226,170.001 106.981 C 171.462 106.514,181.546 106.305,182.539 106.720 C 183.112 106.960,183.178 106.959,183.372 106.699 C 183.576 106.426,184.258 106.175,186.462 105.560 C 188.014 105.127,187.575 104.804,185.294 104.703 C 183.741 104.634,183.449 104.670,182.358 105.063 C 181.438 105.395,180.831 105.500,179.834 105.500 C 179.112 105.500,178.311 105.585,178.053 105.690 C 176.174 106.451,140.043 106.441,137.083 105.680 C 136.717 105.585,135.817 105.504,135.083 105.500 C 133.938 105.494,133.609 105.421,132.750 104.987 C 131.641 104.426,129.760 104.123,125.667 103.844 C 122.609 103.636,120.127 103.218,119.583 102.819 C 118.766 102.220,114.229 101.167,112.463 101.167 C 111.657 101.167,110.326 100.693,109.824 100.228 C 109.590 100.011,109.238 99.833,109.042 99.833 C 108.847 99.833,108.647 99.769,108.598 99.690 C 108.509 99.546,108.170 99.471,104.588 98.802 C 102.812 98.471,102.529 98.370,102.012 97.882 C 101.692 97.580,101.274 97.333,101.082 97.333 C 100.890 97.333,100.662 97.264,100.575 97.180 C 100.488 97.095,99.892 96.915,99.250 96.779 C 97.568 96.423,96.519 95.992,95.847 95.381 C 95.466 95.035,94.961 94.783,94.420 94.669 C 92.792 94.328,91.154 93.629,90.452 92.974 C 90.077 92.624,89.503 92.261,89.177 92.166 C 87.232 91.602,86.275 91.223,86.213 90.990 C 86.135 90.696,84.641 89.667,84.293 89.667 C 83.844 89.667,82.347 88.805,82.246 88.489 C 82.190 88.312,82.056 88.165,81.947 88.164 C 81.839 88.163,81.507 87.947,81.209 87.685 C 80.912 87.423,80.425 87.116,80.126 87.004 C 79.148 86.636,78.921 86.483,78.583 85.961 C 78.400 85.678,77.725 85.130,77.083 84.743 C 76.442 84.357,75.833 83.878,75.731 83.680 C 75.515 83.261,75.009 82.846,74.703 82.839 C 74.472 82.833,73.645 81.950,73.037 81.060 C 72.828 80.754,72.491 80.459,72.287 80.403 C 72.081 80.347,71.615 79.847,71.236 79.276 C 70.862 78.712,70.323 78.100,70.038 77.917 C 69.537 77.594,69.331 77.276,68.771 75.957 C 68.624 75.612,68.263 75.184,67.967 75.005 C 67.410 74.666,66.500 72.722,66.500 71.872 C 66.500 71.451,66.149 70.814,65.555 70.160 C 63.592 67.996,63.611 54.641,65.580 52.917 C 66.037 52.516,66.500 51.644,66.500 51.182 C 66.500 50.545,67.527 48.696,68.265 48.004 C 68.721 47.577,69.000 47.169,69.000 46.932 C 69.000 46.379,69.657 45.499,70.333 45.147 C 70.654 44.979,71.108 44.522,71.342 44.130 C 71.576 43.737,72.136 43.174,72.586 42.878 C 73.036 42.581,73.512 42.131,73.643 41.878 C 73.946 41.291,74.457 40.780,75.044 40.476 C 75.298 40.345,75.748 39.874,76.044 39.429 C 76.467 38.794,76.763 38.552,77.417 38.306 C 78.004 38.084,78.421 37.772,78.829 37.250 C 79.244 36.719,79.670 36.404,80.329 36.140 C 81.468 35.685,81.922 35.407,82.667 34.708 C 83.275 34.137,84.784 33.333,85.248 33.333 C 85.396 33.333,85.794 33.063,86.133 32.733 C 86.859 32.026,87.810 31.524,89.417 30.998 C 90.606 30.609,91.474 30.074,91.491 29.720 C 91.496 29.611,91.669 29.476,91.875 29.419 C 94.894 28.590,96.278 28.076,96.833 27.580 C 97.371 27.099,97.895 26.833,98.304 26.833 C 99.230 26.833,103.093 25.495,103.414 25.063 C 103.678 24.708,105.406 24.167,106.277 24.167 C 107.424 24.167,109.063 23.716,110.599 22.978 C 112.119 22.248,114.238 21.731,116.335 21.578 C 118.419 21.426,119.473 21.196,120.511 20.666 C 122.225 19.790,124.125 19.500,131.417 19.003 C 133.691 18.847,135.879 18.431,137.102 17.920 C 137.504 17.752,138.258 17.667,139.346 17.667 C 140.330 17.667,141.369 17.561,141.950 17.401 C 142.697 17.195,144.300 17.102,149.000 16.991 C 152.346 16.912,156.358 16.770,157.917 16.675 C 162.177 16.417,170.663 16.459,173.250 16.752 C 174.442 16.886,176.179 16.997,177.110 16.998 C 178.331 17.000,179.099 17.093,179.860 17.331 C 180.486 17.527,181.393 17.664,182.083 17.665 C 182.968 17.667,183.552 17.785,184.500 18.152 C 185.731 18.629,186.526 18.737,191.263 19.076 C 191.820 19.116,193.020 19.336,193.930 19.565 C 194.839 19.794,196.483 20.210,197.583 20.489 C 198.683 20.769,200.521 21.115,201.667 21.259 C 204.295 21.588,205.164 21.772,206.433 22.270 L 207.450 22.669 217.183 22.626 L 226.917 22.583 226.969 22.046 C 227.004 21.678,227.227 21.313,227.677 20.887 C 228.306 20.290,228.333 20.221,228.333 19.212 C 228.333 17.890,228.219 17.833,225.572 17.833 L 223.667 17.833 223.667 16.854 C 223.667 15.661,223.536 15.534,222.244 15.468 L 221.250 15.417 221.153 14.688 C 220.995 13.504,220.162 13.167,217.392 13.167 L 216.500 13.167 216.500 12.591 C 216.500 11.097,216.304 11.016,212.375 10.886 L 209.500 10.791 209.500 9.909 C 209.500 8.404,209.751 8.500,205.816 8.500 L 202.333 8.500 202.333 7.572 C 202.333 5.937,202.479 6.000,198.681 6.000 L 195.375 6.000 195.298 5.077 C 195.182 3.680,195.522 3.756,189.159 3.702 L 183.500 3.654 183.500 2.756 C 183.500 1.179,186.435 1.333,156.405 1.333 C 130.056 1.333,129.831 1.336,129.500 1.667 M154.083 30.839 C 153.717 30.917,152.367 30.984,151.083 30.989 C 145.973 31.007,141.052 31.628,139.398 32.464 C 138.389 32.973,137.053 33.291,135.413 33.410 C 132.925 33.591,131.413 34.013,130.123 34.888 C 129.502 35.309,128.715 35.696,128.373 35.750 C 126.850 35.988,125.586 36.416,124.861 36.939 C 123.327 38.046,122.816 38.345,122.287 38.444 C 121.683 38.556,120.667 39.118,120.667 39.339 C 120.667 39.419,120.310 39.726,119.875 40.023 C 119.440 40.319,119.044 40.618,118.996 40.688 C 118.948 40.757,118.701 40.922,118.446 41.054 C 118.191 41.186,117.621 41.637,117.179 42.055 C 116.737 42.474,115.962 43.019,115.456 43.267 C 114.676 43.650,114.508 43.815,114.344 44.365 C 114.234 44.732,113.815 45.352,113.376 45.798 C 112.534 46.653,112.404 46.846,111.500 48.583 C 111.135 49.284,110.687 49.883,110.378 50.083 C 109.895 50.396,109.818 50.600,109.108 53.450 C 108.692 55.119,108.237 56.659,108.097 56.872 C 106.782 58.880,106.752 67.170,108.052 69.306 C 108.257 69.642,108.563 70.367,108.732 70.917 C 108.901 71.467,109.102 72.104,109.179 72.333 C 109.307 72.718,109.485 73.423,109.732 74.525 C 109.791 74.789,110.061 75.102,110.405 75.305 C 110.794 75.534,111.112 75.933,111.389 76.539 C 111.939 77.741,112.401 78.381,113.645 79.667 C 114.221 80.262,114.816 80.956,114.966 81.208 C 115.116 81.460,115.321 81.667,115.423 81.667 C 115.524 81.667,115.901 81.918,116.262 82.224 C 116.622 82.531,117.081 82.869,117.283 82.975 C 117.484 83.082,117.782 83.394,117.944 83.668 C 118.106 83.942,118.326 84.167,118.432 84.167 C 118.539 84.167,118.723 84.284,118.842 84.427 C 118.961 84.570,119.523 84.905,120.092 85.171 C 120.832 85.517,121.225 85.822,121.474 86.244 C 121.749 86.709,121.927 86.833,122.318 86.833 C 123.098 86.833,125.180 87.663,125.952 88.282 C 126.890 89.035,127.580 89.302,129.123 89.512 C 130.754 89.733,131.715 90.020,132.667 90.568 C 134.356 91.541,136.010 91.982,138.017 91.994 C 139.361 92.003,143.328 92.639,143.917 92.940 C 144.770 93.377,145.881 93.663,146.750 93.669 C 147.208 93.672,147.883 93.755,148.250 93.854 C 150.789 94.538,178.658 94.480,180.500 93.787 C 180.984 93.605,181.747 93.504,182.653 93.502 C 183.664 93.501,184.572 93.364,185.903 93.014 C 188.560 92.314,190.381 92.092,193.500 92.087 L 196.250 92.083 197.190 92.624 C 197.707 92.921,198.607 93.269,199.190 93.397 C 199.773 93.525,200.714 93.754,201.281 93.905 C 202.898 94.337,219.727 94.225,220.833 93.775 C 221.899 93.342,224.763 93.357,227.750 93.810 C 229.909 94.138,230.750 94.165,239.036 94.166 C 250.038 94.167,251.579 94.021,254.333 92.716 C 255.021 92.390,255.909 92.086,256.307 92.039 C 256.919 91.966,257.191 91.795,258.074 90.920 C 258.647 90.352,259.265 89.781,259.446 89.652 C 259.627 89.523,260.041 89.000,260.366 88.490 C 260.690 87.980,261.217 87.305,261.537 86.990 C 262.219 86.318,262.500 85.109,262.500 82.848 C 262.500 80.552,263.162 79.819,265.500 79.522 C 268.181 79.182,280.787 79.239,281.178 79.594 C 281.882 80.230,282.123 80.884,282.235 82.459 C 282.351 84.079,282.769 85.376,283.234 85.554 C 283.380 85.610,283.500 85.778,283.500 85.927 C 283.500 86.077,283.654 86.415,283.843 86.680 C 284.032 86.945,284.353 87.628,284.557 88.197 C 284.871 89.076,285.027 89.285,285.581 89.575 C 285.940 89.763,286.538 90.297,286.909 90.761 C 287.516 91.522,287.682 91.627,288.583 91.817 C 289.847 92.085,291.259 92.627,291.523 92.944 C 291.877 93.371,292.627 93.667,293.367 93.670 C 293.761 93.672,294.683 93.782,295.417 93.914 C 297.672 94.322,351.653 94.265,354.421 93.853 C 355.524 93.688,356.649 93.435,356.921 93.291 C 358.526 92.440,359.482 92.077,360.559 91.911 C 361.029 91.838,361.409 91.602,361.977 91.031 C 362.405 90.601,363.016 90.054,363.335 89.814 C 363.693 89.545,364.168 88.887,364.569 88.105 C 364.927 87.406,365.324 86.833,365.450 86.833 C 366.366 86.833,366.736 83.226,366.620 75.417 C 366.536 69.726,366.475 69.299,365.628 68.381 C 365.440 68.178,365.204 67.873,365.102 67.702 C 365.000 67.531,364.673 67.026,364.375 66.580 C 364.077 66.133,363.833 65.610,363.833 65.417 C 363.833 64.979,363.532 64.667,363.109 64.667 C 361.747 64.667,359.903 61.102,360.770 60.144 C 361.031 59.856,361.741 58.626,362.296 57.500 C 362.454 57.179,362.665 56.863,362.765 56.798 C 363.616 56.244,363.711 56.057,363.946 54.489 C 364.281 52.259,364.418 45.223,364.175 42.750 C 363.805 38.980,363.751 38.767,363.083 38.401 C 362.900 38.300,362.549 37.803,362.304 37.295 C 362.041 36.752,361.572 36.142,361.162 35.811 C 360.779 35.503,360.342 35.101,360.191 34.920 C 359.356 33.914,358.625 33.333,358.192 33.333 C 357.760 33.333,356.333 32.449,356.333 32.182 C 356.333 32.114,355.790 31.892,355.125 31.689 L 353.917 31.319 275.917 31.368 C 198.275 31.416,197.914 31.418,197.314 31.750 C 196.983 31.933,196.409 32.295,196.039 32.553 C 194.620 33.543,191.758 33.472,189.622 32.393 C 189.041 32.099,188.349 31.946,187.055 31.823 C 186.080 31.731,185.213 31.612,185.128 31.560 C 184.369 31.091,155.999 30.432,154.083 30.839 M173.168 40.167 C 173.652 40.259,175.638 40.403,177.582 40.489 C 180.790 40.629,181.213 40.683,182.170 41.072 C 182.978 41.400,183.519 41.501,184.487 41.502 C 185.207 41.504,186.072 41.618,186.500 41.769 C 186.912 41.915,187.700 42.065,188.250 42.104 C 194.027 42.513,194.671 42.859,195.282 45.875 C 195.333 46.127,195.427 46.333,195.490 46.333 C 196.246 46.333,197.028 52.595,196.402 53.641 C 195.593 54.993,190.549 55.401,186.784 54.419 C 186.252 54.280,185.266 54.167,184.592 54.167 C 183.557 54.167,183.222 54.090,182.429 53.673 C 179.181 51.965,158.799 51.989,157.085 53.703 C 156.796 53.992,156.112 54.242,154.553 54.628 C 152.417 55.157,152.416 55.157,151.693 55.995 C 151.295 56.456,150.870 56.833,150.748 56.833 C 150.343 56.833,149.509 57.682,149.178 58.429 C 148.999 58.834,148.675 59.246,148.458 59.345 C 146.868 60.069,146.957 65.290,148.571 66.027 C 148.839 66.150,149.111 66.362,149.176 66.500 C 149.241 66.637,149.392 66.959,149.512 67.214 C 149.767 67.758,150.556 68.286,151.352 68.445 C 151.663 68.507,152.179 68.814,152.500 69.128 C 153.352 69.959,154.526 70.424,156.333 70.646 C 157.204 70.753,158.292 70.909,158.750 70.992 C 159.208 71.076,160.108 71.235,160.750 71.344 C 161.392 71.454,162.403 71.725,162.998 71.946 C 164.078 72.348,164.089 72.348,170.082 72.299 L 176.083 72.250 177.083 71.751 C 177.996 71.296,178.274 71.244,180.250 71.162 C 181.442 71.112,182.503 71.018,182.609 70.953 C 182.714 70.887,184.102 70.756,185.692 70.661 C 187.282 70.566,188.996 70.372,189.500 70.230 C 190.004 70.089,190.604 69.933,190.833 69.885 C 191.063 69.836,191.625 69.621,192.083 69.406 C 193.701 68.650,196.667 68.809,196.667 69.652 C 196.667 69.732,196.848 69.843,197.069 69.898 C 197.524 70.012,198.694 71.064,198.978 71.614 C 199.249 72.138,199.210 74.929,198.917 76.056 C 198.779 76.584,198.666 77.556,198.666 78.216 C 198.665 79.564,198.527 79.807,197.167 80.850 C 194.817 82.652,193.568 82.914,185.417 83.319 C 183.420 83.418,182.173 83.557,181.687 83.734 C 181.083 83.954,180.138 84.000,176.169 84.000 L 171.380 84.000 170.443 84.500 L 169.506 85.000 165.750 85.000 L 161.994 85.000 161.057 84.500 L 160.120 84.000 156.497 84.000 C 153.600 84.000,152.729 83.947,152.146 83.735 C 151.705 83.574,150.428 83.410,148.917 83.321 C 143.920 83.024,142.015 82.755,141.000 82.205 C 139.844 81.579,139.224 81.381,136.930 80.908 C 134.114 80.327,133.834 80.233,133.250 79.667 C 132.871 79.300,132.260 79.001,131.223 78.676 C 129.318 78.078,128.445 77.628,128.215 77.123 C 128.114 76.901,127.762 76.595,127.432 76.443 C 127.103 76.291,126.588 76.054,126.289 75.916 C 125.976 75.772,125.509 75.307,125.193 74.824 C 124.890 74.361,124.441 73.906,124.196 73.813 C 123.567 73.574,123.215 73.217,122.812 72.410 C 122.619 72.024,122.098 71.323,121.653 70.852 C 120.796 69.943,120.333 68.823,120.333 67.654 C 120.333 67.314,120.174 66.521,119.980 65.893 C 119.581 64.601,119.629 62.019,120.094 59.750 C 120.225 59.108,120.333 58.268,120.333 57.883 C 120.333 56.424,120.653 55.519,121.459 54.694 C 122.189 53.946,123.000 52.684,123.000 52.296 C 123.000 51.993,123.528 51.500,123.851 51.500 C 124.016 51.500,124.286 51.308,124.451 51.073 C 125.226 49.967,125.636 49.588,126.446 49.230 C 127.021 48.976,127.406 48.677,127.572 48.355 C 127.899 47.722,128.716 47.227,130.384 46.649 C 131.335 46.320,131.801 46.063,131.979 45.770 C 132.317 45.213,132.579 45.103,135.000 44.502 C 136.225 44.198,137.324 43.819,137.667 43.583 C 138.687 42.882,139.482 42.653,141.727 42.414 C 145.603 42.001,148.199 41.547,149.312 41.087 C 150.232 40.706,150.744 40.627,153.145 40.493 C 154.669 40.409,156.217 40.271,156.583 40.189 C 157.515 39.978,172.073 39.959,173.168 40.167 M222.281 41.756 C 223.930 42.127,224.308 42.313,224.761 42.980 L 225.167 43.577 225.167 62.583 L 225.167 81.589 224.770 82.173 C 223.758 83.662,220.764 84.065,211.583 83.950 C 205.018 83.867,204.932 83.858,202.798 83.060 C 200.806 82.316,201.000 84.533,201.001 62.564 C 201.002 41.614,200.928 43.132,201.988 42.390 C 203.238 41.514,219.017 41.021,222.281 41.756 M290.737 41.991 C 291.947 42.823,292.158 43.564,292.281 47.415 L 292.386 50.661 291.837 51.743 C 291.535 52.339,291.150 52.869,290.981 52.923 C 290.813 52.976,290.526 53.210,290.342 53.443 C 289.794 54.141,289.357 54.159,272.868 54.163 L 256.987 54.167 256.493 54.531 C 256.222 54.732,256.000 54.997,256.000 55.120 C 256.000 55.243,255.886 55.388,255.746 55.441 C 255.536 55.522,255.557 55.602,255.871 55.911 C 256.654 56.682,256.384 56.667,268.922 56.667 C 281.962 56.667,281.814 56.656,282.178 57.613 C 282.261 57.831,282.403 58.101,282.495 58.213 C 283.780 59.785,283.833 59.967,283.833 62.750 C 283.833 66.272,283.260 67.917,281.751 68.726 C 281.090 69.080,280.962 69.084,268.750 69.167 C 256.743 69.248,256.405 69.259,255.973 69.583 L 255.529 69.917 255.473 75.667 L 255.417 81.417 254.847 82.125 C 254.534 82.515,254.180 82.833,254.061 82.833 C 253.941 82.833,253.560 82.980,253.213 83.158 C 250.747 84.430,233.010 84.401,229.368 83.119 C 226.846 82.231,227.000 83.613,227.000 61.838 L 227.000 43.722 227.542 43.106 C 227.962 42.628,228.401 42.381,229.500 42.004 L 230.917 41.518 260.470 41.509 L 290.023 41.500 290.737 41.991 M354.871 42.042 C 355.419 42.340,356.160 42.873,356.517 43.228 L 357.167 43.873 357.167 47.366 L 357.167 50.859 355.520 52.513 L 353.873 54.167 338.472 54.167 L 323.072 54.167 322.800 54.900 C 322.560 55.549,322.557 55.673,322.774 55.983 L 323.019 56.333 336.074 56.333 C 350.358 56.333,350.483 56.341,351.140 57.296 C 351.292 57.517,351.548 57.841,351.708 58.016 C 351.869 58.190,352.001 58.427,352.003 58.542 C 352.004 58.656,352.113 59.050,352.245 59.417 C 352.414 59.885,352.487 60.851,352.492 62.667 C 352.498 65.356,352.445 65.592,351.667 66.364 C 351.310 66.717,350.853 67.351,350.618 67.817 C 350.507 68.037,350.304 68.269,350.167 68.333 C 350.029 68.396,349.749 68.535,349.544 68.641 C 349.271 68.782,345.665 68.834,336.127 68.834 L 323.083 68.835 322.799 69.334 C 322.532 69.804,322.532 69.862,322.799 70.332 L 323.083 70.831 339.605 70.832 C 357.576 70.833,356.938 70.801,357.616 71.752 C 357.781 71.983,358.048 72.333,358.208 72.529 C 358.369 72.724,358.500 72.940,358.500 73.009 C 358.500 73.077,358.762 73.396,359.083 73.717 L 359.667 74.300 359.667 76.971 C 359.667 82.014,359.114 82.832,355.150 83.655 L 353.417 84.014 326.250 83.956 C 296.726 83.892,297.855 83.929,296.161 82.983 C 294.847 82.249,294.933 83.594,294.871 62.607 C 294.808 41.374,294.685 43.188,296.269 42.061 L 297.059 41.500 325.467 41.500 L 353.874 41.500 354.871 42.042 M215.791 113.756 C 215.568 114.056,215.548 114.175,215.708 114.267 C 215.823 114.333,215.860 114.325,215.791 114.249 C 215.722 114.173,215.791 113.973,215.943 113.804 C 216.095 113.636,216.189 113.468,216.152 113.432 C 216.114 113.396,215.952 113.542,215.791 113.756 M208.951 116.596 C 208.616 117.048,208.750 117.116,209.241 116.744 C 209.443 116.591,209.506 116.441,209.408 116.346 C 209.311 116.252,209.135 116.348,208.951 116.596 M114.863 118.168 C 114.927 119.342,114.924 119.350,114.533 119.252 C 114.282 119.189,114.178 119.216,114.246 119.327 C 114.397 119.571,115.455 119.543,115.556 119.292 C 115.624 119.125,115.643 119.125,115.654 119.292 C 115.662 119.421,115.915 119.500,116.319 119.500 C 116.685 119.500,117.009 119.408,117.057 119.292 C 117.200 118.938,117.494 119.517,117.501 120.167 C 117.511 121.063,117.963 121.517,119.016 121.689 C 119.913 121.836,128.606 121.860,128.207 121.715 C 128.092 121.673,128.038 121.574,128.087 121.494 C 128.136 121.415,128.025 121.380,127.841 121.415 C 127.657 121.451,127.464 121.409,127.410 121.323 C 127.357 121.237,127.408 121.167,127.523 121.167 C 127.678 121.167,127.684 121.118,127.547 120.980 C 127.231 120.665,127.508 119.639,128.026 119.203 C 128.528 118.780,128.454 118.167,127.900 118.167 C 127.760 118.167,127.279 118.046,126.829 117.900 C 126.124 117.669,125.734 117.658,123.965 117.817 C 120.931 118.090,120.510 118.150,120.114 118.362 C 119.915 118.468,119.501 118.583,119.192 118.617 C 118.884 118.651,118.583 118.688,118.524 118.699 C 118.276 118.746,117.833 118.447,117.833 118.232 C 117.833 118.104,117.750 118.000,117.649 118.000 C 117.547 118.000,117.509 117.884,117.564 117.741 C 117.624 117.584,117.594 117.525,117.487 117.591 C 117.382 117.656,117.332 117.575,117.364 117.392 C 117.411 117.117,117.275 117.078,116.108 117.034 L 114.798 116.985 114.863 118.168 M201.196 117.145 C 201.074 117.222,200.999 117.418,201.029 117.579 C 201.082 117.867,200.872 118.053,200.292 118.233 C 199.873 118.362,199.912 118.825,200.331 118.715 C 200.514 118.668,200.626 118.569,200.581 118.496 C 200.512 118.384,200.633 118.382,201.145 118.487 C 201.180 118.494,201.118 118.608,201.008 118.740 C 200.899 118.872,200.721 118.947,200.613 118.907 C 200.505 118.867,200.192 118.986,199.917 119.173 L 199.417 119.512 200.750 119.464 C 201.708 119.430,202.072 119.358,202.042 119.208 C 202.019 119.094,202.064 119.000,202.142 119.000 C 202.220 119.000,202.297 118.550,202.313 118.000 C 202.343 117.012,202.128 116.667,201.910 117.354 C 201.843 117.564,201.879 117.759,201.998 117.832 C 202.127 117.912,202.004 118.024,201.656 118.145 C 201.147 118.323,201.130 118.317,201.367 118.042 C 201.933 117.387,201.812 116.754,201.196 117.145 M116.252 119.003 C 116.309 119.096,116.438 119.122,116.537 119.060 C 116.645 118.993,116.670 119.026,116.599 119.141 C 116.487 119.322,115.833 119.125,115.833 118.911 C 115.833 118.764,116.147 118.833,116.252 119.003 M191.625 119.453 C 191.373 119.491,191.167 119.597,191.167 119.688 C 191.167 119.779,191.084 119.802,190.983 119.740 C 190.851 119.658,190.851 119.721,190.984 119.970 C 191.213 120.399,190.879 121.323,190.625 120.963 C 190.513 120.805,190.499 120.815,190.571 121.000 C 190.623 121.138,190.714 121.387,190.773 121.555 C 190.869 121.832,191.062 121.855,192.848 121.805 C 195.119 121.742,195.192 121.701,195.296 120.447 L 195.370 119.550 194.727 119.443 C 194.047 119.331,192.395 119.336,191.625 119.453 M136.109 121.279 C 136.084 121.305,134.680 121.350,132.990 121.380 C 129.196 121.447,129.096 121.485,129.205 122.791 C 129.258 123.435,129.375 123.785,129.589 123.942 C 129.974 124.223,145.500 124.280,145.500 124.000 C 145.500 123.908,145.352 123.833,145.171 123.833 C 144.830 123.833,144.207 123.071,144.394 122.884 C 144.452 122.825,144.500 122.870,144.500 122.982 C 144.500 123.094,144.586 123.133,144.692 123.068 C 144.825 122.986,144.790 122.880,144.577 122.725 C 144.408 122.601,144.352 122.500,144.453 122.500 C 144.554 122.500,144.618 122.369,144.594 122.209 C 144.542 121.849,143.749 121.690,141.949 121.676 C 141.233 121.671,140.145 121.595,139.532 121.508 C 138.382 121.344,136.191 121.198,136.109 121.279 M176.583 121.598 C 175.667 121.728,174.204 121.824,173.333 121.810 C 170.870 121.771,171.041 121.710,170.974 122.667 C 170.943 123.125,170.973 123.500,171.042 123.500 C 171.110 123.500,171.158 123.556,171.147 123.625 C 171.062 124.160,171.138 124.167,177.071 124.167 C 183.839 124.167,183.500 124.242,183.500 122.738 C 183.500 121.897,183.394 121.723,182.958 121.845 C 182.935 121.851,182.722 121.783,182.484 121.692 C 181.714 121.399,178.362 121.346,176.583 121.598 M190.258 121.514 C 190.301 121.582,190.241 121.676,190.126 121.723 C 190.011 121.769,190.085 121.813,190.292 121.820 C 190.500 121.827,190.667 121.734,190.667 121.611 C 190.667 121.489,190.557 121.389,190.424 121.389 C 190.291 121.389,190.216 121.445,190.258 121.514 " stroke="none" fill="#1e3f66" fill-rule="evenodd"></path><path id="path1" d="M124.333 13.924 C 123.371 14.040,121.349 14.142,119.841 14.151 C 117.028 14.167,115.455 14.284,110.667 14.834 C 108.774 15.051,107.576 15.278,106.823 15.561 C 106.190 15.800,105.033 16.047,104.073 16.148 C 101.947 16.371,97.494 16.825,96.417 16.927 C 94.945 17.067,94.497 17.198,94.243 17.561 C 93.996 17.913,93.943 17.916,88.819 17.862 C 81.976 17.790,81.833 17.827,81.833 19.661 L 81.833 20.167 79.542 20.177 C 75.690 20.193,75.042 20.432,74.877 21.898 L 74.790 22.667 73.187 22.669 C 70.317 22.672,70.004 22.855,70.001 24.542 L 70.000 25.000 68.292 25.009 C 65.660 25.024,65.230 25.271,65.183 26.792 L 65.167 27.333 64.208 27.334 C 61.681 27.337,60.843 27.718,60.707 28.926 L 60.623 29.667 59.568 29.667 C 58.325 29.667,58.167 29.835,58.167 31.156 L 58.167 32.000 57.208 32.001 C 54.594 32.004,53.721 32.422,53.530 33.765 L 53.414 34.583 52.642 34.633 C 51.685 34.695,51.323 35.059,51.209 36.077 L 51.123 36.833 50.228 36.833 C 49.013 36.833,48.667 37.179,48.667 38.395 L 48.667 39.290 47.899 39.376 C 46.932 39.486,46.676 39.745,46.530 40.764 L 46.413 41.580 45.582 41.698 C 44.220 41.892,44.000 42.283,44.000 44.509 L 44.000 46.333 42.923 46.333 C 41.542 46.333,41.500 46.411,41.500 48.989 L 41.500 51.000 40.704 51.000 C 39.176 51.000,39.167 51.022,39.167 54.843 L 39.167 58.167 38.163 58.167 C 36.787 58.167,36.833 57.918,36.833 65.261 C 36.833 72.462,36.769 72.167,38.333 72.167 L 39.167 72.167 39.168 75.458 C 39.169 80.517,39.455 81.500,40.926 81.500 L 41.500 81.500 41.510 82.625 C 41.533 85.227,41.900 85.973,43.231 86.123 L 44.000 86.210 44.000 87.276 C 44.000 88.496,44.196 88.667,45.594 88.667 L 46.333 88.667 46.333 89.633 C 46.333 90.838,46.495 91.000,47.692 91.000 L 48.651 91.000 48.701 92.125 L 48.750 93.250 49.875 93.299 L 51.000 93.349 51.000 94.391 C 51.000 95.679,51.146 95.833,52.367 95.833 L 53.333 95.833 53.333 96.667 C 53.333 97.815,53.699 98.167,54.895 98.167 L 55.790 98.167 55.903 99.161 C 56.040 100.374,56.315 100.498,58.875 100.499 L 60.500 100.500 60.500 101.467 C 60.500 102.684,60.656 102.833,61.928 102.833 L 62.957 102.833 63.045 103.620 C 63.193 104.928,63.622 105.167,65.823 105.167 L 67.628 105.167 67.743 106.246 C 67.884 107.561,68.105 107.664,70.792 107.666 L 72.500 107.667 72.500 108.183 C 72.500 109.653,72.928 109.837,76.606 109.952 L 79.463 110.041 79.535 111.034 C 79.630 112.348,79.571 112.328,83.292 112.331 L 86.500 112.333 86.500 113.135 C 86.500 114.625,86.340 114.576,91.486 114.633 L 96.000 114.682 96.003 115.549 C 96.007 117.020,95.447 116.911,103.224 116.964 L 110.127 117.011 110.199 118.008 C 110.239 118.556,110.364 119.098,110.477 119.211 C 110.754 119.488,114.424 119.615,114.255 119.342 C 114.176 119.213,114.263 119.185,114.533 119.252 C 114.924 119.350,114.927 119.342,114.863 118.168 L 114.798 116.985 116.108 117.034 C 117.275 117.078,117.411 117.117,117.364 117.392 C 117.332 117.575,117.382 117.656,117.487 117.591 C 117.594 117.525,117.624 117.584,117.564 117.741 C 117.509 117.884,117.547 118.000,117.649 118.000 C 117.750 118.000,117.833 118.104,117.833 118.232 C 117.833 118.447,118.276 118.746,118.524 118.699 C 118.583 118.688,118.884 118.651,119.192 118.617 C 119.501 118.583,119.915 118.468,120.114 118.362 C 120.501 118.154,120.906 118.096,123.750 117.837 C 124.758 117.745,125.771 117.618,126.000 117.555 C 126.773 117.344,127.234 117.323,134.417 117.175 C 140.898 117.043,143.352 116.895,144.353 116.577 C 144.542 116.517,145.646 116.405,146.806 116.327 C 147.967 116.250,150.117 116.068,151.583 115.923 C 153.050 115.778,155.000 115.589,155.917 115.503 C 157.111 115.391,158.046 115.180,159.215 114.757 C 160.113 114.432,161.043 114.167,161.282 114.167 C 161.521 114.167,162.287 114.058,162.983 113.925 C 168.381 112.895,168.605 112.841,169.552 112.325 C 170.215 111.964,171.145 111.673,172.500 111.403 C 174.524 111.001,176.822 110.287,176.995 110.009 C 177.184 109.702,178.928 109.003,179.507 109.002 C 180.810 108.998,183.333 107.993,183.333 107.478 C 183.333 107.166,182.653 106.679,182.051 106.560 C 180.753 106.302,171.066 106.641,170.001 106.981 C 169.233 107.226,147.586 107.229,145.917 106.985 C 145.275 106.891,143.212 106.744,141.333 106.658 C 133.853 106.318,132.577 106.228,132.192 106.018 C 131.976 105.900,131.151 105.700,130.358 105.574 C 129.565 105.448,128.429 105.233,127.833 105.096 C 126.323 104.749,124.016 104.382,121.083 104.021 C 119.031 103.769,118.383 103.620,117.466 103.191 C 116.849 102.902,115.833 102.594,115.195 102.504 C 114.559 102.414,113.861 102.272,113.642 102.189 C 113.423 102.106,112.683 101.953,111.997 101.849 C 110.648 101.645,109.067 101.234,108.667 100.982 C 107.803 100.440,106.462 99.966,105.415 99.833 C 103.601 99.603,102.175 99.202,101.247 98.662 C 99.704 97.764,98.752 97.337,98.289 97.335 C 97.700 97.333,95.530 96.579,95.167 96.250 C 95.015 96.113,94.833 96.000,94.763 96.000 C 94.692 96.000,94.436 95.861,94.192 95.692 C 93.949 95.522,93.225 95.211,92.583 95.002 C 90.859 94.437,90.285 94.173,90.046 93.830 C 89.801 93.481,88.591 92.884,87.000 92.327 C 86.317 92.088,85.668 91.711,85.244 91.307 C 84.874 90.955,84.516 90.667,84.449 90.667 C 84.073 90.667,81.484 89.283,81.212 88.936 C 81.034 88.711,80.445 88.289,79.903 87.999 C 79.361 87.709,78.465 87.028,77.912 86.486 C 77.360 85.944,76.782 85.500,76.628 85.500 C 76.342 85.500,73.284 82.889,72.833 82.261 C 72.696 82.069,72.113 81.468,71.537 80.927 C 70.962 80.385,70.449 79.770,70.396 79.561 C 70.344 79.352,70.053 79.034,69.750 78.855 C 69.224 78.545,68.990 78.223,68.445 77.062 C 68.311 76.775,67.818 76.162,67.350 75.699 C 66.883 75.236,66.500 74.759,66.500 74.637 C 66.500 74.028,65.375 71.619,64.577 70.516 C 63.540 69.086,62.953 60.261,63.633 56.333 C 63.752 55.646,63.916 54.692,63.998 54.214 C 64.094 53.651,64.443 52.857,64.986 51.964 C 65.447 51.205,66.020 50.058,66.260 49.417 C 66.564 48.600,66.903 48.050,67.389 47.583 C 67.771 47.217,68.306 46.491,68.578 45.970 C 68.883 45.388,69.278 44.907,69.604 44.720 C 69.896 44.553,70.392 44.043,70.707 43.586 C 71.022 43.129,71.603 42.566,71.997 42.335 C 72.392 42.104,72.797 41.766,72.898 41.583 C 73.371 40.728,73.864 40.190,74.411 39.930 C 74.740 39.775,75.193 39.354,75.419 38.997 C 75.783 38.419,77.098 37.412,77.861 37.126 C 78.013 37.068,78.238 36.817,78.361 36.568 C 78.483 36.318,78.696 36.055,78.833 35.983 C 80.504 35.105,81.679 34.358,82.117 33.896 C 82.410 33.587,82.760 33.333,82.894 33.333 C 83.423 33.333,84.757 32.620,85.698 31.834 C 86.260 31.364,86.989 30.927,87.385 30.820 C 88.770 30.449,89.490 30.138,90.114 29.640 C 91.028 28.912,91.857 28.523,93.260 28.164 C 94.667 27.804,95.158 27.576,95.468 27.140 C 95.588 26.971,95.815 26.833,95.972 26.833 C 96.130 26.833,96.407 26.730,96.588 26.604 C 96.900 26.387,98.939 25.728,99.833 25.556 C 100.385 25.450,102.000 24.662,102.000 24.499 C 102.000 24.429,102.731 24.205,103.625 24.003 C 106.829 23.277,108.779 22.705,109.426 22.302 C 110.356 21.723,110.443 21.699,113.052 21.332 C 115.403 21.001,117.639 20.465,119.667 19.746 C 121.513 19.091,121.851 19.029,124.167 18.914 C 126.157 18.815,128.360 18.497,132.250 17.748 C 136.073 17.011,137.490 16.802,139.583 16.667 C 146.980 16.191,149.605 15.986,151.237 15.756 C 152.239 15.615,153.139 15.495,153.237 15.489 C 153.808 15.456,152.314 15.113,150.669 14.899 C 147.502 14.489,145.326 14.337,140.250 14.169 C 137.592 14.081,135.079 13.936,134.667 13.845 C 133.616 13.615,126.441 13.670,124.333 13.924 M115.833 118.911 C 115.833 119.125,116.487 119.322,116.599 119.141 C 116.670 119.026,116.645 118.993,116.537 119.060 C 116.438 119.122,116.309 119.096,116.252 119.003 C 116.147 118.833,115.833 118.764,115.833 118.911 " stroke="none" fill="#b53645" fill-rule="evenodd"></path><path id="path2" d="M229.770 20.294 C 230.201 20.577,229.882 22.833,229.412 22.833 C 229.282 22.833,228.706 23.077,228.130 23.375 L 227.083 23.917 212.333 23.943 C 198.276 23.968,195.436 24.050,193.622 24.483 C 193.205 24.583,192.451 24.556,191.372 24.403 C 190.480 24.277,189.112 24.170,188.333 24.166 C 186.300 24.157,180.031 23.706,179.788 23.552 C 179.676 23.481,177.896 23.377,175.833 23.321 C 172.246 23.224,171.293 23.098,170.417 22.605 C 170.187 22.475,167.728 22.400,162.500 22.365 C 154.381 22.309,154.912 22.266,153.308 23.103 C 152.991 23.268,152.186 23.333,150.473 23.333 C 149.158 23.333,147.819 23.416,147.499 23.516 C 147.179 23.617,145.979 23.764,144.833 23.842 C 143.688 23.921,141.737 24.055,140.500 24.141 C 138.114 24.306,136.370 24.672,135.673 25.153 C 135.106 25.545,133.681 25.922,130.535 26.512 C 128.715 26.854,127.790 27.106,127.500 27.338 C 126.785 27.913,123.165 29.333,122.415 29.333 C 122.293 29.333,121.891 29.624,121.521 29.980 C 121.096 30.388,120.616 30.670,120.219 30.745 C 119.428 30.893,117.556 31.978,116.764 32.747 C 116.431 33.071,115.990 33.333,115.780 33.333 C 115.276 33.333,113.833 34.257,113.833 34.579 C 113.833 34.835,112.594 35.833,112.276 35.833 C 112.021 35.833,111.167 36.692,111.167 36.948 C 111.167 37.068,111.100 37.167,111.018 37.167 C 110.895 37.167,109.006 38.967,108.417 39.647 C 108.325 39.753,108.052 39.986,107.811 40.167 C 107.569 40.347,107.167 40.889,106.918 41.372 C 106.516 42.153,105.120 43.657,104.792 43.664 C 104.723 43.665,104.667 43.895,104.667 44.173 C 104.667 44.821,104.219 45.693,103.187 47.057 C 102.413 48.079,102.000 49.165,102.000 50.178 C 102.000 50.585,101.248 52.462,100.942 52.820 C 100.818 52.965,100.602 53.458,100.461 53.917 C 99.059 58.492,99.371 70.842,100.935 72.673 C 101.367 73.178,101.840 74.494,102.076 75.846 C 102.269 76.953,102.440 77.395,102.950 78.109 C 104.356 80.076,104.667 80.597,104.667 80.985 C 104.667 81.262,104.969 81.676,105.623 82.295 C 106.149 82.792,106.736 83.510,106.927 83.891 C 107.127 84.289,107.579 84.789,107.991 85.066 C 108.385 85.332,108.853 85.797,109.032 86.100 C 109.211 86.403,109.707 86.882,110.134 87.166 C 110.561 87.449,111.178 88.033,111.504 88.465 C 111.878 88.961,112.395 89.392,112.908 89.636 C 113.354 89.848,113.869 90.212,114.052 90.445 C 114.630 91.180,115.002 91.456,115.804 91.746 C 116.233 91.900,116.784 92.103,117.029 92.195 C 117.274 92.288,117.837 92.697,118.279 93.104 C 118.927 93.701,119.358 93.926,120.500 94.264 C 122.421 94.833,122.607 94.920,122.928 95.410 C 123.208 95.839,124.464 96.500,124.997 96.500 C 126.172 96.500,129.326 97.582,129.754 98.132 C 129.969 98.408,130.621 98.562,133.750 99.081 C 137.622 99.722,138.519 99.918,139.414 100.314 C 141.086 101.055,145.076 101.424,153.917 101.657 C 156.740 101.731,158.992 101.864,159.332 101.975 C 160.231 102.271,166.681 102.226,167.833 101.917 C 168.535 101.728,169.805 101.671,173.250 101.671 C 175.725 101.672,178.762 101.595,180.000 101.500 C 181.237 101.406,183.487 101.256,185.000 101.166 C 188.721 100.947,190.767 100.646,191.581 100.199 C 192.565 99.657,193.462 99.718,194.815 100.419 C 196.169 101.119,197.292 101.424,199.083 101.577 C 199.817 101.640,200.854 101.802,201.388 101.937 C 202.367 102.185,203.397 102.185,223.917 101.953 C 226.589 101.922,227.239 101.965,228.083 102.223 C 229.866 102.770,229.862 102.767,229.830 103.460 C 229.814 103.803,229.808 104.327,229.817 104.625 L 229.833 105.167 240.717 105.167 C 252.923 105.167,252.000 105.278,252.000 103.800 L 252.000 102.833 256.550 102.833 C 261.708 102.833,261.500 102.890,261.500 101.492 L 261.500 100.550 263.239 100.452 C 265.596 100.318,266.167 100.007,266.167 98.853 C 266.167 98.258,266.447 98.000,267.094 98.000 C 267.804 98.000,268.500 97.304,268.500 96.594 C 268.500 95.947,268.758 95.667,269.353 95.667 C 270.670 95.667,270.874 95.145,270.968 91.542 L 271.042 88.667 272.271 88.667 L 273.500 88.667 273.500 90.736 C 273.500 93.412,273.462 93.333,274.761 93.333 L 275.819 93.333 275.868 94.542 L 275.917 95.750 277.125 95.799 L 278.333 95.848 278.333 97.007 L 278.333 98.167 279.492 98.167 L 280.651 98.167 280.701 99.292 L 280.750 100.417 281.875 100.466 C 282.987 100.515,283.000 100.521,283.000 100.987 C 283.000 102.805,283.083 102.833,288.358 102.833 L 292.500 102.833 292.501 103.375 C 292.501 103.673,292.580 104.198,292.675 104.542 L 292.849 105.167 324.331 105.167 C 343.188 105.167,355.851 105.106,355.908 105.014 C 355.960 104.930,356.050 104.405,356.108 103.848 L 356.214 102.833 360.607 102.833 C 365.703 102.833,365.667 102.844,365.667 101.358 L 365.667 100.550 367.406 100.452 C 369.871 100.312,370.234 100.084,370.371 98.583 C 370.409 98.162,370.495 98.076,370.917 98.035 C 372.403 97.891,372.664 97.489,372.787 95.149 L 372.883 93.333 374.025 93.333 L 375.167 93.333 375.167 91.000 L 375.167 88.667 376.000 88.667 C 377.633 88.667,377.514 89.626,377.462 76.919 C 377.411 64.389,377.529 65.351,376.025 65.207 L 375.192 65.127 375.138 62.993 C 375.075 60.520,375.151 60.664,373.847 60.546 L 372.833 60.454 372.833 59.227 L 372.833 58.000 373.738 58.000 C 375.282 58.000,375.167 58.845,375.167 47.520 C 375.167 36.227,375.265 36.994,373.797 36.872 L 372.877 36.796 372.800 33.856 C 372.705 30.257,372.566 29.958,370.917 29.798 C 370.425 29.751,370.416 29.732,370.367 28.701 C 370.310 27.508,370.106 27.333,368.762 27.333 L 368.047 27.333 367.950 26.393 C 367.817 25.108,367.786 25.092,365.408 25.025 L 363.333 24.966 363.333 23.917 C 363.333 22.626,363.419 22.667,360.653 22.667 L 358.500 22.667 358.500 21.687 C 358.500 20.979,358.424 20.644,358.224 20.479 C 357.992 20.286,347.879 20.244,293.766 20.210 C 258.466 20.189,229.668 20.226,229.770 20.294 M170.955 29.114 C 172.134 29.521,172.563 29.571,175.750 29.680 C 177.982 29.757,179.552 29.888,180.083 30.043 C 180.596 30.192,182.137 30.330,184.083 30.400 C 188.942 30.575,191.198 30.783,192.143 31.142 C 192.605 31.318,193.006 31.439,193.033 31.412 C 193.129 31.318,195.594 30.800,197.000 30.579 C 198.950 30.271,353.278 30.222,355.500 30.528 C 356.895 30.720,357.801 31.108,358.323 31.737 C 358.451 31.892,358.797 32.120,359.090 32.242 C 359.692 32.494,360.368 33.021,360.993 33.728 C 361.226 33.992,361.518 34.292,361.641 34.395 C 362.387 35.022,362.799 35.497,363.500 36.543 C 363.729 36.885,363.977 37.165,364.051 37.166 C 364.448 37.169,365.005 39.021,365.160 40.847 C 365.248 41.894,365.398 43.012,365.494 43.332 C 365.725 44.111,365.720 50.837,365.488 51.447 C 365.390 51.706,365.250 52.825,365.178 53.934 C 365.036 56.127,364.679 57.177,363.834 57.892 C 362.304 59.186,361.849 63.333,363.237 63.333 C 363.728 63.333,364.667 64.219,365.064 65.057 C 365.297 65.550,365.670 66.073,365.892 66.218 C 366.641 66.709,367.010 67.590,367.530 70.124 L 368.034 72.583 367.948 78.250 C 367.844 85.074,367.368 87.646,366.085 88.333 C 365.885 88.439,365.529 88.963,365.292 89.495 C 365.007 90.138,364.689 90.566,364.348 90.768 C 364.065 90.935,363.833 91.152,363.833 91.249 C 363.833 91.435,363.244 92.000,363.051 92.000 C 362.989 92.000,362.783 92.137,362.594 92.305 C 362.231 92.627,360.610 93.333,360.234 93.333 C 360.112 93.333,359.937 93.473,359.846 93.643 C 359.055 95.120,359.964 95.083,324.417 95.083 C 289.307 95.083,291.086 95.149,289.790 93.809 C 289.537 93.547,289.273 93.333,289.204 93.333 C 288.346 93.333,286.229 92.092,285.725 91.294 C 285.493 90.926,285.198 90.667,285.011 90.667 C 284.560 90.667,283.500 89.376,283.500 88.827 C 283.500 88.533,283.298 88.186,282.912 87.815 C 281.734 86.684,281.448 85.862,281.194 82.879 C 280.983 80.413,281.829 80.646,273.266 80.702 L 265.917 80.750 264.917 81.176 L 263.917 81.602 263.819 83.010 C 263.644 85.541,262.791 88.162,261.966 88.702 C 261.754 88.841,261.472 89.171,261.339 89.436 C 261.137 89.837,259.517 91.525,258.599 92.290 C 258.341 92.505,256.547 93.333,256.340 93.333 C 256.274 93.333,255.920 93.620,255.551 93.970 L 254.881 94.608 252.649 94.845 C 250.449 95.080,235.263 95.179,225.083 95.025 C 222.975 94.993,217.050 95.019,211.917 95.082 C 205.707 95.158,202.026 95.137,200.917 95.020 C 200.000 94.922,198.708 94.796,198.046 94.738 C 196.949 94.643,196.777 94.576,196.091 93.972 L 195.339 93.310 193.795 93.375 C 192.680 93.422,191.925 93.559,191.083 93.866 C 188.900 94.662,185.288 94.939,174.167 95.162 C 169.458 95.257,168.268 95.328,167.599 95.555 C 166.350 95.979,160.627 95.954,158.861 95.517 C 157.785 95.250,156.716 95.186,152.083 95.110 C 144.577 94.986,141.374 94.661,139.625 93.844 C 138.498 93.317,136.936 92.950,134.600 92.663 C 133.783 92.563,132.808 92.374,132.433 92.243 C 132.057 92.112,131.637 92.003,131.500 92.002 C 131.362 92.000,131.025 91.792,130.750 91.539 C 130.137 90.976,129.467 90.667,128.857 90.667 C 127.562 90.667,124.654 89.599,124.337 89.007 C 124.185 88.723,123.727 88.527,121.775 87.909 C 121.095 87.695,120.614 87.405,120.191 86.955 C 119.857 86.599,119.107 86.078,118.525 85.795 C 117.861 85.474,116.990 84.826,116.191 84.060 C 115.490 83.388,114.810 82.837,114.680 82.836 C 114.405 82.833,113.833 82.354,113.833 82.126 C 113.833 81.861,112.689 80.598,112.206 80.330 C 111.898 80.158,111.495 79.565,110.962 78.496 C 110.506 77.582,109.934 76.706,109.604 76.417 C 109.000 75.887,108.500 75.044,108.500 74.556 C 108.500 74.043,107.960 72.766,107.556 72.324 C 107.342 72.090,107.167 71.832,107.167 71.752 C 107.167 71.671,107.019 71.300,106.839 70.927 C 105.359 67.872,105.930 55.015,107.629 53.104 C 108.000 52.688,108.500 51.400,108.500 50.863 C 108.500 50.322,109.120 49.184,109.665 48.726 C 109.922 48.510,110.445 47.700,110.828 46.927 C 111.523 45.525,111.733 45.252,112.372 44.923 C 112.558 44.828,113.000 44.267,113.356 43.676 C 113.778 42.975,114.174 42.530,114.495 42.395 C 114.766 42.281,115.425 41.752,115.960 41.219 C 116.495 40.686,117.360 39.992,117.882 39.676 C 118.404 39.361,118.871 38.986,118.920 38.843 C 119.057 38.441,120.373 37.719,121.677 37.330 C 122.687 37.029,122.882 36.909,123.025 36.501 C 123.230 35.912,124.192 35.403,125.583 35.148 C 126.133 35.047,126.714 34.897,126.873 34.815 C 127.032 34.734,127.317 34.667,127.506 34.667 C 127.695 34.667,128.091 34.404,128.385 34.083 C 128.986 33.427,130.338 32.955,132.181 32.758 C 133.433 32.624,136.044 32.007,136.172 31.814 C 136.682 31.049,138.800 30.650,143.667 30.403 C 144.813 30.345,146.325 30.156,147.028 29.982 C 147.983 29.746,148.912 29.667,150.708 29.667 C 152.030 29.667,153.163 29.615,153.225 29.552 C 153.382 29.395,154.460 28.999,155.167 28.838 C 155.487 28.765,158.880 28.696,162.705 28.686 L 169.660 28.667 170.955 29.114 M158.250 41.452 C 158.067 41.497,157.692 41.633,157.417 41.756 C 155.821 42.468,155.639 42.500,153.169 42.500 C 151.818 42.500,150.309 42.576,149.817 42.670 C 149.325 42.763,147.833 42.915,146.503 43.006 C 143.244 43.231,141.467 43.605,140.429 44.285 C 139.971 44.584,139.272 44.870,138.846 44.931 C 136.133 45.321,133.718 46.020,133.370 46.516 C 133.069 46.946,131.924 47.667,131.545 47.665 C 130.671 47.660,129.125 48.420,128.642 49.093 C 128.182 49.733,127.276 50.333,126.770 50.333 C 126.496 50.333,126.053 50.817,125.693 51.507 C 125.541 51.799,125.197 52.160,124.928 52.310 C 124.216 52.708,123.667 53.196,123.667 53.433 C 123.667 53.896,122.955 55.252,122.425 55.798 C 120.606 57.671,120.584 67.429,122.395 69.324 C 122.960 69.916,123.999 71.729,124.000 72.126 C 124.000 72.242,124.299 72.456,124.665 72.602 C 125.312 72.861,126.333 73.989,126.333 74.444 C 126.333 74.692,126.853 75.000,127.271 75.000 C 127.631 75.000,129.771 76.276,130.049 76.656 C 130.420 77.164,131.408 77.624,132.333 77.718 C 133.156 77.801,134.404 78.272,134.898 78.685 C 135.728 79.378,135.937 79.519,136.239 79.588 C 138.180 80.033,138.916 80.166,139.917 80.252 C 141.228 80.364,142.419 80.629,142.917 80.919 C 143.260 81.119,144.274 81.435,146.167 81.931 C 147.879 82.380,158.312 82.882,165.750 82.873 C 173.227 82.863,187.048 82.363,187.497 82.085 C 187.597 82.024,188.442 81.901,189.375 81.814 C 190.406 81.717,191.174 81.561,191.333 81.417 C 191.850 80.949,193.105 80.523,194.313 80.406 C 196.227 80.220,196.667 79.755,196.667 77.920 C 196.667 76.557,197.207 75.000,197.681 75.000 C 197.765 75.000,197.833 74.370,197.833 73.599 L 197.833 72.198 196.875 71.641 L 195.917 71.083 193.667 71.109 C 191.685 71.131,187.017 71.573,184.321 71.994 C 183.811 72.073,182.965 72.370,182.443 72.653 C 181.631 73.092,181.317 73.167,180.288 73.167 C 179.625 73.167,178.558 73.278,177.917 73.414 C 176.992 73.610,175.317 73.660,169.833 73.658 C 161.754 73.656,160.097 73.512,158.582 72.681 C 157.452 72.060,155.966 71.627,153.933 71.326 C 152.520 71.116,152.405 71.066,151.516 70.288 C 151.003 69.839,150.327 69.363,150.014 69.232 C 149.350 68.954,148.333 67.964,148.333 67.596 C 148.333 67.456,148.127 67.235,147.875 67.103 C 146.703 66.494,146.331 65.430,146.337 62.700 C 146.342 60.175,146.895 58.167,147.585 58.167 C 147.719 58.167,147.932 57.923,148.058 57.625 C 148.297 57.061,149.611 55.765,150.122 55.590 C 150.284 55.535,150.568 55.248,150.752 54.953 C 150.991 54.571,151.303 54.354,151.836 54.200 C 153.041 53.851,154.403 53.303,154.583 53.096 C 155.383 52.175,157.439 51.738,162.095 51.499 C 163.922 51.406,165.754 51.258,166.167 51.172 C 167.333 50.927,171.230 50.966,172.309 51.233 C 172.882 51.374,174.686 51.505,176.917 51.567 C 178.933 51.623,181.333 51.778,182.250 51.912 C 183.167 52.046,184.315 52.158,184.802 52.161 C 185.640 52.166,187.081 52.630,187.667 53.083 C 188.733 53.907,192.719 54.202,194.166 53.564 L 194.856 53.259 194.790 52.005 C 194.753 51.315,194.560 49.963,194.362 49.000 C 194.163 48.038,194.000 47.008,194.000 46.711 C 194.000 45.748,192.843 43.667,192.308 43.667 C 192.059 43.667,191.656 43.591,191.413 43.499 C 190.658 43.212,183.534 42.708,177.750 42.533 L 173.917 42.417 172.882 41.875 L 171.847 41.333 165.215 41.353 C 161.568 41.363,158.433 41.408,158.250 41.452 M203.542 43.305 L 202.333 43.739 202.337 61.994 C 202.341 79.731,202.385 81.384,202.863 81.690 C 204.224 82.564,204.366 82.577,213.086 82.580 L 221.255 82.583 222.365 82.112 C 222.975 81.852,223.537 81.515,223.612 81.362 C 223.688 81.209,223.770 72.678,223.795 62.404 L 223.840 43.724 222.525 43.279 L 221.210 42.833 212.980 42.852 L 204.750 42.870 203.542 43.305 M230.020 43.260 C 229.527 43.483,229.027 43.667,228.909 43.667 C 228.384 43.667,228.333 45.318,228.330 62.383 L 228.327 79.417 228.872 80.534 C 229.334 81.482,229.544 81.723,230.250 82.118 L 231.083 82.583 241.512 82.583 L 251.941 82.583 252.611 82.140 L 253.281 81.697 253.390 79.906 C 253.451 78.921,253.500 76.220,253.500 73.904 L 253.500 69.693 254.177 69.113 C 255.154 68.277,254.947 68.290,268.432 68.222 L 280.781 68.160 281.137 67.782 C 282.105 66.751,282.359 61.089,281.500 59.692 C 281.225 59.245,281.000 58.766,281.000 58.627 C 281.000 58.021,280.770 58.009,268.405 57.963 C 256.342 57.917,256.244 57.914,255.478 57.556 C 254.546 57.120,253.500 56.114,253.500 55.653 C 253.500 54.924,254.961 52.838,255.478 52.828 C 255.628 52.825,255.896 52.713,256.074 52.578 C 256.353 52.367,258.505 52.333,271.721 52.333 C 288.890 52.333,289.725 52.293,290.544 51.424 L 291.023 50.917 290.934 47.367 C 290.849 43.990,290.826 43.793,290.464 43.334 L 290.083 42.852 260.500 42.852 L 230.917 42.853 230.020 43.260 M296.612 43.360 L 296.150 43.887 296.200 62.652 C 296.255 83.439,296.181 82.104,297.299 82.428 C 297.940 82.614,352.706 82.709,354.711 82.528 C 357.391 82.285,357.626 81.833,357.654 76.871 L 357.667 74.658 356.995 73.595 C 356.626 73.010,356.195 72.469,356.037 72.391 C 355.879 72.313,348.389 72.229,339.392 72.204 L 323.034 72.159 322.323 71.527 C 321.246 70.572,321.248 69.093,322.327 68.135 L 323.043 67.500 335.347 67.500 C 347.525 67.500,349.331 67.428,349.335 66.945 C 349.336 66.838,349.635 66.375,350.000 65.917 L 350.663 65.083 350.665 62.917 C 350.667 60.046,350.331 58.220,349.707 57.709 L 349.250 57.335 336.167 57.331 L 323.083 57.328 322.428 56.956 C 321.457 56.404,321.284 55.217,321.946 53.644 C 322.531 52.251,321.162 52.362,338.470 52.303 L 353.817 52.250 354.467 51.615 L 355.117 50.981 355.225 49.221 C 355.345 47.259,355.189 43.667,354.983 43.667 C 354.910 43.667,354.648 43.479,354.401 43.250 L 353.951 42.833 325.513 42.833 L 297.074 42.833 296.612 43.360 " stroke="none" fill="#f5f7f9" fill-rule="evenodd"></path><path id="path3" d="M157.583 16.687 C 156.392 16.762,152.604 16.894,149.167 16.980 C 144.344 17.100,142.696 17.196,141.950 17.401 C 141.370 17.561,140.330 17.667,139.346 17.667 C 138.258 17.667,137.504 17.752,137.102 17.920 C 135.879 18.431,133.691 18.847,131.417 19.003 C 124.125 19.500,122.225 19.790,120.511 20.666 C 119.473 21.196,118.419 21.426,116.335 21.578 C 114.238 21.731,112.119 22.248,110.599 22.978 C 109.063 23.716,107.424 24.167,106.277 24.167 C 105.406 24.167,103.678 24.708,103.414 25.063 C 103.093 25.495,99.230 26.833,98.304 26.833 C 97.895 26.833,97.371 27.099,96.833 27.580 C 96.278 28.076,94.894 28.590,91.875 29.419 C 91.669 29.476,91.496 29.611,91.491 29.720 C 91.474 30.074,90.606 30.609,89.417 30.998 C 87.810 31.524,86.859 32.026,86.133 32.733 C 85.794 33.063,85.396 33.333,85.248 33.333 C 84.784 33.333,83.275 34.137,82.667 34.708 C 81.922 35.407,81.468 35.685,80.329 36.140 C 79.670 36.404,79.244 36.719,78.829 37.250 C 78.421 37.772,78.004 38.084,77.417 38.306 C 76.763 38.552,76.467 38.794,76.044 39.429 C 75.748 39.874,75.298 40.345,75.044 40.476 C 74.457 40.780,73.946 41.291,73.643 41.878 C 73.512 42.131,73.036 42.581,72.586 42.878 C 72.136 43.174,71.576 43.737,71.342 44.130 C 71.108 44.522,70.654 44.979,70.333 45.147 C 69.657 45.499,69.000 46.379,69.000 46.932 C 69.000 47.169,68.721 47.577,68.265 48.004 C 67.527 48.696,66.500 50.545,66.500 51.182 C 66.500 51.644,66.037 52.516,65.580 52.917 C 63.611 54.641,63.592 67.996,65.555 70.160 C 66.149 70.814,66.500 71.451,66.500 71.872 C 66.500 72.722,67.410 74.666,67.967 75.005 C 68.263 75.184,68.624 75.612,68.771 75.957 C 69.331 77.276,69.537 77.594,70.038 77.917 C 70.323 78.100,70.862 78.712,71.236 79.276 C 71.615 79.847,72.081 80.347,72.287 80.403 C 72.491 80.459,72.828 80.754,73.037 81.060 C 73.645 81.950,74.472 82.833,74.703 82.839 C 75.009 82.846,75.515 83.261,75.731 83.680 C 75.833 83.878,76.442 84.357,77.083 84.743 C 77.725 85.130,78.400 85.678,78.583 85.961 C 78.921 86.483,79.148 86.636,80.126 87.004 C 80.425 87.116,80.912 87.423,81.209 87.685 C 81.507 87.947,81.839 88.163,81.947 88.164 C 82.056 88.165,82.190 88.312,82.246 88.489 C 82.347 88.805,83.844 89.667,84.293 89.667 C 84.641 89.667,86.135 90.696,86.213 90.990 C 86.275 91.223,87.232 91.602,89.177 92.166 C 89.503 92.261,90.077 92.624,90.452 92.974 C 91.154 93.629,92.792 94.328,94.420 94.669 C 94.961 94.783,95.466 95.035,95.847 95.381 C 96.519 95.992,97.568 96.423,99.250 96.779 C 99.892 96.915,100.488 97.095,100.575 97.180 C 100.662 97.264,100.890 97.333,101.082 97.333 C 101.274 97.333,101.692 97.580,102.012 97.882 C 102.529 98.370,102.812 98.471,104.588 98.802 C 108.170 99.471,108.509 99.546,108.598 99.690 C 108.647 99.769,108.847 99.833,109.042 99.833 C 109.238 99.833,109.590 100.011,109.824 100.228 C 110.326 100.693,111.657 101.167,112.463 101.167 C 114.229 101.167,118.766 102.220,119.583 102.819 C 120.127 103.218,122.609 103.636,125.667 103.844 C 129.760 104.123,131.641 104.426,132.750 104.987 C 133.609 105.421,133.938 105.494,135.083 105.500 C 135.817 105.504,136.717 105.585,137.083 105.680 C 140.043 106.441,176.174 106.451,178.053 105.690 C 178.311 105.585,179.112 105.500,179.834 105.500 C 180.804 105.500,181.443 105.394,182.282 105.093 C 183.338 104.715,183.638 104.687,186.583 104.694 C 193.684 104.711,201.149 103.239,196.778 102.684 C 195.937 102.577,194.724 102.377,194.081 102.240 C 193.168 102.045,192.658 102.027,191.748 102.157 C 191.107 102.249,188.483 102.369,185.917 102.424 C 180.451 102.540,179.753 102.636,179.163 103.347 C 178.771 103.819,178.708 103.840,178.246 103.649 C 177.452 103.322,169.403 103.224,169.034 103.536 C 167.675 104.686,158.296 104.653,157.581 103.495 C 157.520 103.398,155.997 103.333,153.777 103.333 C 150.956 103.333,149.996 103.280,149.745 103.110 C 149.241 102.767,147.223 102.500,145.135 102.499 C 139.887 102.497,135.140 101.707,134.783 100.776 C 134.662 100.460,131.422 99.841,129.833 99.831 C 128.909 99.825,127.792 99.336,127.162 98.662 C 126.749 98.219,126.411 98.093,124.539 97.681 C 122.202 97.167,121.847 97.029,121.388 96.454 C 120.938 95.890,120.035 95.402,119.000 95.161 C 118.496 95.044,117.971 94.894,117.833 94.827 C 117.696 94.760,117.369 94.605,117.106 94.481 C 116.844 94.358,116.564 94.085,116.484 93.874 C 116.404 93.664,116.206 93.445,116.044 93.388 C 115.882 93.331,115.435 93.145,115.051 92.975 C 114.666 92.806,114.291 92.666,114.217 92.666 C 113.996 92.665,112.833 91.533,112.833 91.319 C 112.833 91.033,112.312 90.678,111.883 90.672 C 111.460 90.666,110.546 89.782,110.313 89.153 C 110.164 88.751,109.255 88.167,108.780 88.167 C 108.666 88.167,108.449 87.959,108.300 87.706 C 107.939 87.096,107.373 86.499,106.708 86.028 C 106.395 85.806,106.017 85.298,105.815 84.827 C 105.622 84.378,105.337 83.971,105.182 83.921 C 104.645 83.751,103.705 82.580,103.436 81.746 C 103.231 81.113,103.032 80.836,102.624 80.614 C 102.055 80.305,101.577 79.324,101.149 77.583 C 100.858 76.402,100.586 75.832,100.003 75.182 C 99.722 74.869,99.463 74.457,99.427 74.265 C 99.391 74.073,99.285 73.504,99.190 73.000 C 99.096 72.496,98.972 71.521,98.914 70.833 C 98.759 68.984,98.342 66.298,98.151 65.913 C 97.888 65.382,98.057 60.087,98.370 59.077 C 98.513 58.615,98.715 57.153,98.820 55.827 C 98.925 54.501,99.090 53.004,99.186 52.500 C 99.283 51.996,99.395 51.413,99.435 51.204 C 99.475 50.996,99.756 50.546,100.058 50.204 C 100.665 49.518,100.864 49.074,101.243 47.562 C 101.383 47.001,101.611 46.326,101.748 46.062 C 101.886 45.799,101.998 45.488,101.999 45.372 C 102.000 45.256,102.261 45.037,102.580 44.885 C 103.065 44.653,103.203 44.460,103.423 43.702 C 103.698 42.758,104.465 41.799,105.104 41.601 C 105.330 41.531,105.565 41.205,105.751 40.704 C 106.341 39.121,110.479 34.844,111.676 34.581 C 111.953 34.520,112.235 34.275,112.418 33.936 C 112.734 33.350,113.782 32.613,114.562 32.429 C 115.084 32.307,115.250 32.169,115.780 31.417 C 116.024 31.070,116.599 30.713,117.650 30.255 C 118.484 29.892,119.167 29.535,119.167 29.464 C 119.167 29.392,119.241 29.333,119.332 29.333 C 119.423 29.333,119.704 29.117,119.957 28.852 C 120.464 28.322,120.983 28.157,123.939 27.583 C 124.250 27.523,124.790 27.158,125.272 26.680 C 126.143 25.819,127.042 25.500,128.599 25.500 C 129.733 25.500,131.535 25.015,131.920 24.607 C 132.628 23.856,134.478 23.376,137.500 23.162 C 141.780 22.858,142.699 22.734,142.865 22.437 C 142.984 22.225,143.286 22.167,144.264 22.167 C 145.105 22.167,145.639 22.083,145.902 21.911 C 146.659 21.415,147.450 21.288,150.833 21.121 C 158.147 20.758,178.137 20.997,180.333 21.473 C 180.746 21.562,181.660 21.743,182.365 21.875 C 183.070 22.007,183.837 22.240,184.070 22.393 C 185.425 23.280,196.551 23.267,197.542 22.377 C 197.831 22.117,200.793 22.133,205.583 22.420 C 208.237 22.579,205.315 21.712,201.667 21.257 C 200.521 21.114,198.683 20.769,197.583 20.489 C 196.483 20.210,194.839 19.794,193.930 19.565 C 193.020 19.336,191.820 19.116,191.263 19.076 C 186.526 18.737,185.731 18.629,184.500 18.152 C 183.552 17.785,182.968 17.667,182.083 17.665 C 181.393 17.664,180.486 17.527,179.860 17.331 C 179.099 17.093,178.331 17.000,177.110 16.998 C 176.179 16.997,174.442 16.886,173.250 16.752 C 170.854 16.481,161.449 16.442,157.583 16.687 M227.781 107.179 L 227.311 107.648 227.777 107.613 C 228.155 107.584,228.250 107.491,228.278 107.122 C 228.298 106.871,228.299 106.676,228.282 106.688 C 228.264 106.700,228.039 106.921,227.781 107.179 M225.033 108.231 C 224.824 108.585,224.459 108.923,224.181 109.020 C 223.532 109.246,223.393 109.633,223.914 109.764 C 224.824 109.993,225.917 109.333,225.413 108.859 C 225.140 108.602,225.126 108.603,225.216 108.863 C 225.352 109.253,224.865 109.652,224.657 109.323 C 224.535 109.131,224.505 109.147,224.503 109.403 C 224.501 109.578,224.453 109.675,224.396 109.618 C 224.158 109.380,224.495 108.955,224.752 109.168 C 224.888 109.282,225.009 109.309,225.019 109.229 C 225.105 108.579,225.337 108.149,225.535 108.272 C 225.638 108.335,225.615 108.430,225.476 108.518 C 225.300 108.630,225.314 108.662,225.542 108.664 C 225.761 108.666,225.833 108.532,225.831 108.125 C 225.829 107.756,225.782 107.656,225.684 107.811 C 225.571 107.990,225.525 107.993,225.469 107.825 C 225.429 107.705,225.239 107.882,225.033 108.231 M221.059 110.127 C 221.119 110.225,221.112 110.330,221.043 110.361 C 220.973 110.392,220.774 110.697,220.600 111.039 C 220.358 111.515,220.154 111.685,219.727 111.765 C 219.395 111.828,219.214 111.941,219.279 112.047 C 219.347 112.157,219.284 112.183,219.111 112.117 C 218.958 112.058,218.833 112.083,218.833 112.172 C 218.833 112.261,219.133 112.333,219.500 112.333 C 219.876 112.333,220.167 112.253,220.167 112.149 C 220.167 112.042,220.044 112.011,219.875 112.075 C 219.647 112.162,219.627 112.142,219.785 111.984 C 219.939 111.828,220.041 111.826,220.222 111.977 C 220.702 112.375,221.375 111.702,220.977 111.222 C 220.826 111.041,220.828 110.939,220.984 110.785 C 221.142 110.627,221.162 110.647,221.075 110.875 C 221.011 111.044,221.042 111.167,221.149 111.167 C 221.394 111.167,221.387 110.219,221.141 110.067 C 221.027 109.997,220.994 110.021,221.059 110.127 M215.535 112.945 C 215.122 113.592,215.177 113.965,215.597 113.365 C 215.737 113.164,215.979 113.009,216.134 113.019 C 216.366 113.035,216.360 113.053,216.101 113.120 C 215.848 113.184,215.831 113.229,216.017 113.345 C 216.205 113.461,216.170 113.563,215.840 113.870 C 215.473 114.209,215.461 114.212,215.725 113.892 C 215.895 113.686,215.953 113.491,215.862 113.434 C 215.774 113.380,215.656 113.455,215.599 113.602 C 215.540 113.755,215.391 113.827,215.246 113.771 C 214.944 113.656,213.811 114.163,213.932 114.359 C 213.979 114.434,213.909 114.454,213.776 114.403 C 213.643 114.352,213.484 114.391,213.424 114.489 C 213.236 114.793,214.029 114.688,214.286 114.375 C 214.417 114.215,214.477 114.177,214.419 114.292 C 214.286 114.555,214.676 114.560,215.524 114.307 C 216.063 114.145,216.200 114.009,216.357 113.486 C 216.715 112.291,216.178 111.938,215.535 112.945 M212.667 114.500 L 212.250 114.633 212.708 114.650 C 212.960 114.659,213.167 114.592,213.167 114.500 C 213.167 114.408,213.148 114.341,213.125 114.350 C 213.102 114.359,212.896 114.427,212.667 114.500 M208.773 114.917 C 208.826 115.054,208.782 115.167,208.675 115.167 C 208.568 115.167,208.527 115.242,208.583 115.333 C 208.640 115.425,208.588 115.501,208.468 115.503 C 208.310 115.504,208.318 115.549,208.500 115.667 C 208.667 115.774,208.681 115.829,208.542 115.831 C 208.427 115.832,208.333 115.950,208.333 116.093 C 208.333 116.236,208.257 116.306,208.164 116.248 C 208.071 116.191,208.045 116.062,208.106 115.963 C 208.175 115.851,208.140 115.830,208.014 115.908 C 207.902 115.977,207.858 116.157,207.915 116.309 C 207.994 116.517,207.973 116.537,207.826 116.391 C 207.680 116.246,207.554 116.267,207.313 116.475 C 207.138 116.626,206.789 116.797,206.539 116.855 C 206.164 116.942,206.210 116.964,206.802 116.980 C 207.285 116.994,207.483 116.940,207.406 116.817 C 207.324 116.684,207.387 116.684,207.636 116.817 C 207.875 116.945,208.013 116.947,208.088 116.826 C 208.163 116.704,208.263 116.706,208.414 116.832 C 208.579 116.968,208.713 116.910,208.961 116.595 C 209.141 116.366,209.318 116.207,209.353 116.242 C 209.388 116.277,209.422 115.936,209.429 115.486 C 209.440 114.739,209.407 114.667,209.059 114.667 C 208.788 114.667,208.705 114.739,208.773 114.917 M199.106 116.895 C 198.446 116.995,198.172 117.106,198.227 117.250 C 198.271 117.365,198.223 117.544,198.120 117.646 C 197.982 117.785,197.989 117.833,198.145 117.833 C 198.299 117.833,198.289 117.902,198.106 118.084 C 197.962 118.228,197.888 118.512,197.931 118.751 C 197.997 119.112,197.946 119.167,197.545 119.169 C 197.291 119.171,196.971 119.247,196.833 119.339 C 196.307 119.691,199.367 119.491,199.955 119.136 C 200.252 118.956,200.562 118.852,200.645 118.903 C 200.728 118.954,200.888 118.885,201.002 118.748 C 201.115 118.612,201.180 118.494,201.145 118.487 C 200.633 118.382,200.512 118.384,200.581 118.496 C 200.626 118.569,200.514 118.668,200.331 118.715 C 199.912 118.825,199.873 118.362,200.292 118.233 C 200.872 118.053,201.082 117.867,201.029 117.579 C 200.974 117.283,201.252 117.007,201.609 117.003 C 201.857 116.999,201.704 117.652,201.367 118.042 C 201.130 118.317,201.147 118.323,201.656 118.145 C 202.032 118.014,202.133 117.915,201.984 117.823 C 201.817 117.720,201.811 117.597,201.958 117.276 L 202.147 116.861 201.107 116.805 C 200.534 116.775,199.634 116.815,199.106 116.895 M192.975 118.742 C 192.943 118.771,192.242 118.839,191.417 118.893 C 190.592 118.947,189.467 119.068,188.917 119.161 C 188.367 119.255,187.429 119.333,186.833 119.335 C 185.199 119.340,184.404 119.804,185.003 120.403 C 185.104 120.504,185.056 120.683,184.873 120.893 C 184.714 121.075,184.670 121.173,184.776 121.112 C 184.901 121.039,184.941 121.105,184.891 121.298 C 184.840 121.493,184.630 121.611,184.290 121.637 C 182.777 121.752,183.968 121.844,186.738 121.826 C 189.914 121.805,190.408 121.756,190.237 121.478 C 190.185 121.394,190.241 121.346,190.363 121.371 C 190.484 121.396,190.634 121.529,190.697 121.667 C 190.791 121.875,190.812 121.870,190.822 121.635 C 190.828 121.480,190.758 121.307,190.667 121.250 C 190.575 121.193,190.501 121.058,190.503 120.948 C 190.504 120.807,190.544 120.811,190.640 120.963 C 190.877 121.336,191.206 120.386,190.984 119.970 C 190.872 119.762,190.867 119.668,190.969 119.731 C 191.062 119.788,191.170 119.741,191.208 119.626 C 191.260 119.471,191.867 119.420,193.565 119.432 C 195.866 119.446,196.051 119.224,194.000 118.907 C 193.679 118.858,193.330 118.789,193.225 118.753 C 193.119 118.718,193.007 118.713,192.975 118.742 M127.985 119.224 C 127.506 119.646,127.248 120.681,127.547 120.980 C 127.684 121.118,127.678 121.167,127.523 121.167 C 127.408 121.167,127.357 121.237,127.410 121.323 C 127.464 121.409,127.674 121.449,127.879 121.413 C 128.207 121.354,128.218 121.370,127.975 121.554 C 127.595 121.842,129.048 121.911,129.558 121.629 C 130.125 121.316,137.906 121.213,139.583 121.496 C 140.133 121.589,141.183 121.669,141.917 121.675 C 143.749 121.690,144.541 121.848,144.594 122.209 C 144.618 122.369,144.554 122.500,144.453 122.500 C 144.352 122.500,144.408 122.601,144.577 122.725 C 144.790 122.880,144.825 122.986,144.692 123.068 C 144.586 123.133,144.500 123.094,144.500 122.982 C 144.500 122.870,144.452 122.825,144.394 122.884 C 144.207 123.071,144.830 123.833,145.171 123.833 C 145.352 123.833,145.500 123.907,145.500 123.996 C 145.500 124.101,150.090 124.161,158.323 124.165 C 171.068 124.170,171.146 124.168,171.121 123.835 C 171.107 123.651,171.055 123.500,171.006 123.500 C 170.957 123.500,170.943 123.125,170.974 122.667 C 171.041 121.712,170.916 121.760,173.167 121.821 C 173.946 121.843,175.551 121.739,176.734 121.592 C 178.635 121.355,181.782 121.359,182.189 121.600 C 182.402 121.726,183.500 121.851,183.500 121.748 C 183.500 121.577,182.975 121.103,182.685 121.013 C 181.893 120.769,171.058 120.904,170.162 121.169 C 169.456 121.378,169.007 121.409,168.245 121.302 C 167.698 121.224,160.800 121.092,152.917 121.008 C 133.338 120.799,132.377 120.745,131.664 119.803 C 131.547 119.648,129.026 118.832,128.687 118.839 C 128.538 118.841,128.223 119.015,127.985 119.224 " stroke="none" fill="#0493c3" fill-rule="evenodd"></path><path id="path4" d="M227.746 20.816 C 227.317 21.236,227.054 21.662,227.000 22.024 L 226.917 22.583 217.000 22.583 C 211.546 22.583,206.446 22.529,205.667 22.463 C 201.977 22.150,197.843 22.106,197.542 22.377 C 196.551 23.267,185.425 23.280,184.070 22.393 C 183.837 22.240,183.070 22.007,182.365 21.875 C 181.660 21.743,180.746 21.562,180.333 21.473 C 178.137 20.997,158.147 20.758,150.833 21.121 C 147.450 21.288,146.659 21.415,145.902 21.911 C 145.639 22.083,145.105 22.167,144.264 22.167 C 143.286 22.167,142.984 22.225,142.865 22.437 C 142.699 22.734,141.780 22.858,137.500 23.162 C 134.478 23.376,132.628 23.856,131.920 24.607 C 131.535 25.015,129.733 25.500,128.599 25.500 C 127.042 25.500,126.143 25.819,125.272 26.680 C 124.790 27.158,124.250 27.523,123.939 27.583 C 120.983 28.157,120.464 28.322,119.957 28.852 C 119.704 29.117,119.423 29.333,119.332 29.333 C 119.241 29.333,119.167 29.392,119.167 29.464 C 119.167 29.535,118.484 29.892,117.650 30.255 C 116.599 30.713,116.024 31.070,115.780 31.417 C 115.250 32.169,115.084 32.307,114.562 32.429 C 113.782 32.613,112.734 33.350,112.418 33.936 C 112.235 34.275,111.953 34.520,111.676 34.581 C 110.479 34.844,106.341 39.121,105.751 40.704 C 105.565 41.205,105.330 41.531,105.104 41.601 C 104.465 41.799,103.698 42.758,103.423 43.702 C 103.203 44.460,103.065 44.653,102.580 44.885 C 102.261 45.037,102.000 45.256,101.999 45.372 C 101.998 45.488,101.886 45.799,101.748 46.062 C 101.611 46.326,101.383 47.001,101.243 47.562 C 100.864 49.074,100.665 49.518,100.058 50.204 C 99.756 50.546,99.475 50.996,99.435 51.204 C 99.395 51.413,99.283 51.996,99.186 52.500 C 99.090 53.004,98.925 54.501,98.820 55.827 C 98.715 57.153,98.513 58.615,98.370 59.077 C 98.057 60.087,97.888 65.382,98.151 65.913 C 98.342 66.298,98.759 68.984,98.914 70.833 C 98.972 71.521,99.096 72.496,99.190 73.000 C 99.285 73.504,99.391 74.073,99.427 74.265 C 99.463 74.457,99.722 74.869,100.003 75.182 C 100.586 75.832,100.858 76.402,101.149 77.583 C 101.577 79.324,102.055 80.305,102.624 80.614 C 103.032 80.836,103.231 81.113,103.436 81.746 C 103.705 82.580,104.645 83.751,105.182 83.921 C 105.337 83.971,105.622 84.378,105.815 84.827 C 106.017 85.298,106.395 85.806,106.708 86.028 C 107.373 86.499,107.939 87.096,108.300 87.706 C 108.449 87.959,108.666 88.167,108.780 88.167 C 109.255 88.167,110.164 88.751,110.313 89.153 C 110.546 89.782,111.460 90.666,111.883 90.672 C 112.312 90.678,112.833 91.033,112.833 91.319 C 112.833 91.533,113.996 92.665,114.217 92.666 C 114.291 92.666,114.666 92.806,115.051 92.975 C 115.435 93.145,115.882 93.331,116.044 93.388 C 116.206 93.445,116.404 93.664,116.484 93.874 C 116.564 94.085,116.844 94.358,117.106 94.481 C 117.369 94.605,117.696 94.760,117.833 94.827 C 117.971 94.894,118.496 95.044,119.000 95.161 C 120.035 95.402,120.938 95.890,121.388 96.454 C 121.847 97.029,122.202 97.167,124.539 97.681 C 126.411 98.093,126.749 98.219,127.162 98.662 C 127.792 99.336,128.909 99.825,129.833 99.831 C 131.422 99.841,134.662 100.460,134.783 100.776 C 135.140 101.707,139.887 102.497,145.135 102.499 C 147.223 102.500,149.241 102.767,149.745 103.110 C 149.996 103.280,150.956 103.333,153.777 103.333 C 155.997 103.333,157.520 103.398,157.581 103.495 C 158.296 104.653,167.675 104.686,169.034 103.536 C 169.403 103.224,177.452 103.322,178.246 103.649 C 178.708 103.840,178.771 103.819,179.163 103.347 C 179.753 102.636,180.451 102.540,185.917 102.424 C 188.483 102.369,191.107 102.249,191.748 102.157 C 192.658 102.027,193.168 102.045,194.081 102.240 C 194.724 102.377,195.937 102.577,196.778 102.684 C 198.214 102.866,198.288 102.895,198.028 103.162 C 197.430 103.775,192.146 104.656,189.000 104.667 C 187.634 104.672,187.100 104.802,187.325 105.074 C 187.448 105.221,187.221 105.348,186.454 105.562 C 183.452 106.399,183.095 106.590,183.249 107.271 C 183.403 107.952,181.143 108.997,179.507 109.002 C 178.928 109.003,177.184 109.702,176.995 110.009 C 176.822 110.287,174.524 111.001,172.500 111.403 C 171.145 111.673,170.215 111.964,169.552 112.325 C 168.605 112.841,168.381 112.895,162.983 113.925 C 162.287 114.058,161.521 114.167,161.282 114.167 C 161.043 114.167,160.113 114.432,159.215 114.757 C 158.046 115.180,157.111 115.391,155.917 115.503 C 155.000 115.589,153.050 115.778,151.583 115.923 C 150.117 116.068,147.967 116.250,146.806 116.327 C 145.646 116.405,144.542 116.517,144.353 116.577 C 143.350 116.895,140.895 117.042,134.417 117.171 C 127.359 117.311,126.252 117.360,126.076 117.535 C 125.975 117.636,127.510 118.167,127.900 118.167 C 128.040 118.167,128.235 118.317,128.333 118.500 C 128.431 118.683,128.612 118.833,128.735 118.833 C 129.048 118.833,131.559 119.664,131.664 119.803 C 132.377 120.745,133.338 120.799,152.917 121.008 C 160.800 121.092,167.698 121.224,168.245 121.302 C 169.007 121.409,169.456 121.378,170.162 121.169 C 170.942 120.938,171.952 120.899,176.750 120.913 C 182.880 120.932,182.837 120.928,183.302 121.464 C 183.475 121.664,183.651 121.793,183.692 121.752 C 183.734 121.711,184.003 121.659,184.290 121.637 C 184.630 121.611,184.840 121.493,184.891 121.298 C 184.941 121.105,184.901 121.039,184.776 121.112 C 184.670 121.173,184.714 121.075,184.873 120.893 C 185.056 120.683,185.104 120.504,185.003 120.403 C 184.404 119.804,185.199 119.340,186.833 119.334 C 187.429 119.332,188.377 119.256,188.940 119.165 C 191.816 118.698,194.140 118.707,195.039 119.187 C 195.857 119.625,198.028 119.284,197.928 118.733 C 197.888 118.512,197.968 118.223,198.106 118.084 C 198.289 117.902,198.299 117.833,198.145 117.833 C 197.989 117.833,197.982 117.785,198.120 117.646 C 198.223 117.544,198.272 117.367,198.228 117.254 C 198.105 116.933,199.881 116.729,201.500 116.878 C 204.428 117.148,207.500 116.838,207.500 116.273 C 207.500 116.192,207.614 116.221,207.754 116.336 C 207.964 116.511,207.991 116.503,207.909 116.290 C 207.855 116.149,207.902 115.977,208.014 115.908 C 208.140 115.830,208.175 115.851,208.106 115.963 C 208.045 116.062,208.071 116.191,208.164 116.248 C 208.257 116.306,208.333 116.236,208.333 116.093 C 208.333 115.950,208.427 115.832,208.542 115.831 C 208.681 115.829,208.667 115.774,208.500 115.667 C 208.318 115.549,208.310 115.504,208.468 115.503 C 208.588 115.501,208.640 115.425,208.583 115.333 C 208.527 115.242,208.568 115.167,208.675 115.167 C 208.782 115.167,208.826 115.054,208.773 114.917 C 208.692 114.704,208.935 114.667,210.381 114.667 C 211.319 114.667,212.329 114.597,212.626 114.512 C 212.992 114.407,213.167 114.413,213.167 114.532 C 213.167 114.643,213.256 114.633,213.409 114.506 C 213.543 114.395,213.742 114.360,213.852 114.428 C 213.966 114.499,214.008 114.481,213.950 114.387 C 213.816 114.170,214.920 113.646,215.246 113.771 C 215.391 113.827,215.540 113.755,215.599 113.602 C 215.656 113.455,215.780 113.384,215.877 113.443 C 215.974 113.503,216.003 113.472,215.941 113.373 C 215.881 113.275,215.925 113.157,216.041 113.111 C 216.191 113.050,216.194 113.023,216.051 113.013 C 215.942 113.006,215.737 113.164,215.597 113.365 C 215.177 113.965,215.122 113.592,215.535 112.945 C 215.795 112.539,216.050 112.341,216.333 112.326 C 216.563 112.315,217.219 112.293,217.792 112.278 C 218.365 112.263,218.833 112.197,218.833 112.131 C 218.833 112.065,218.958 112.058,219.111 112.117 C 219.284 112.183,219.347 112.157,219.279 112.047 C 219.214 111.941,219.395 111.828,219.727 111.765 C 220.154 111.685,220.358 111.515,220.600 111.039 C 220.774 110.697,220.973 110.392,221.043 110.361 C 221.112 110.330,221.126 110.236,221.075 110.152 C 220.988 110.012,221.891 109.911,222.792 109.959 C 222.998 109.970,223.167 109.911,223.167 109.828 C 223.167 109.745,223.291 109.725,223.444 109.784 C 223.621 109.851,223.681 109.824,223.609 109.708 C 223.476 109.492,223.926 109.000,224.257 109.000 C 224.385 109.000,224.467 109.094,224.439 109.208 C 224.411 109.323,224.420 109.360,224.458 109.291 C 224.497 109.221,224.616 109.214,224.723 109.273 C 224.868 109.355,224.869 109.331,224.727 109.177 C 224.584 109.021,224.642 108.812,224.967 108.317 C 225.229 107.916,225.440 107.736,225.511 107.850 C 225.596 107.988,225.643 107.987,225.690 107.847 C 225.725 107.742,226.091 107.636,226.504 107.612 C 226.917 107.588,227.347 107.511,227.461 107.441 C 227.574 107.371,227.736 107.357,227.822 107.410 C 228.131 107.600,228.269 107.188,228.308 105.958 L 228.333 105.167 229.072 105.167 L 229.810 105.167 229.814 103.993 C 229.818 102.672,229.935 102.791,228.083 102.223 C 227.239 101.965,226.589 101.922,223.917 101.953 C 203.397 102.185,202.367 102.185,201.388 101.937 C 200.854 101.802,199.817 101.640,199.083 101.577 C 197.292 101.424,196.169 101.119,194.815 100.419 C 193.462 99.718,192.565 99.657,191.581 100.199 C 190.767 100.646,188.721 100.947,185.000 101.166 C 183.487 101.256,181.237 101.406,180.000 101.500 C 178.762 101.595,175.725 101.672,173.250 101.671 C 169.805 101.671,168.535 101.728,167.833 101.917 C 166.681 102.226,160.231 102.271,159.332 101.975 C 158.992 101.864,156.740 101.731,153.917 101.657 C 145.076 101.424,141.086 101.055,139.414 100.314 C 138.519 99.918,137.622 99.722,133.750 99.081 C 130.621 98.562,129.969 98.408,129.754 98.132 C 129.326 97.582,126.172 96.500,124.997 96.500 C 124.464 96.500,123.208 95.839,122.928 95.410 C 122.607 94.920,122.421 94.833,120.500 94.264 C 119.358 93.926,118.927 93.701,118.279 93.104 C 117.837 92.697,117.274 92.288,117.029 92.195 C 116.784 92.103,116.233 91.900,115.804 91.746 C 115.002 91.456,114.630 91.180,114.052 90.445 C 113.869 90.212,113.354 89.848,112.908 89.636 C 112.395 89.392,111.878 88.961,111.504 88.465 C 111.178 88.033,110.561 87.449,110.134 87.166 C 109.707 86.882,109.211 86.403,109.032 86.100 C 108.853 85.797,108.385 85.332,107.991 85.066 C 107.579 84.789,107.127 84.289,106.927 83.891 C 106.736 83.510,106.149 82.792,105.623 82.295 C 104.969 81.676,104.667 81.262,104.667 80.985 C 104.667 80.597,104.356 80.076,102.950 78.109 C 102.440 77.395,102.269 76.953,102.076 75.846 C 101.840 74.494,101.367 73.178,100.935 72.673 C 99.601 71.111,99.074 59.876,100.114 55.167 C 100.321 54.226,100.730 53.067,100.942 52.820 C 101.248 52.462,102.000 50.585,102.000 50.178 C 102.000 49.165,102.413 48.079,103.187 47.057 C 104.219 45.693,104.667 44.821,104.667 44.173 C 104.667 43.895,104.723 43.665,104.792 43.664 C 105.120 43.657,106.516 42.153,106.918 41.372 C 107.167 40.889,107.569 40.347,107.811 40.167 C 108.052 39.986,108.325 39.753,108.417 39.647 C 109.006 38.967,110.895 37.167,111.018 37.167 C 111.100 37.167,111.167 37.068,111.167 36.948 C 111.167 36.692,112.021 35.833,112.276 35.833 C 112.594 35.833,113.833 34.835,113.833 34.579 C 113.833 34.257,115.276 33.333,115.780 33.333 C 115.990 33.333,116.431 33.071,116.764 32.747 C 117.556 31.978,119.428 30.893,120.219 30.745 C 120.616 30.670,121.096 30.388,121.521 29.980 C 121.891 29.624,122.293 29.333,122.415 29.333 C 123.165 29.333,126.785 27.913,127.500 27.338 C 127.790 27.106,128.715 26.854,130.535 26.512 C 133.681 25.922,135.106 25.545,135.673 25.153 C 136.370 24.672,138.114 24.306,140.500 24.141 C 141.737 24.055,143.688 23.921,144.833 23.842 C 145.979 23.764,147.179 23.617,147.499 23.516 C 147.819 23.416,149.158 23.333,150.473 23.333 C 152.186 23.333,152.991 23.268,153.308 23.103 C 154.912 22.266,154.381 22.309,162.500 22.365 C 167.728 22.400,170.187 22.475,170.417 22.605 C 171.293 23.098,172.246 23.224,175.833 23.321 C 177.896 23.377,179.676 23.481,179.788 23.552 C 180.031 23.706,186.300 24.157,188.333 24.166 C 189.112 24.170,190.480 24.277,191.372 24.403 C 192.451 24.556,193.205 24.583,193.622 24.483 C 195.436 24.050,198.276 23.968,212.333 23.943 L 227.083 23.917 228.130 23.375 C 228.706 23.077,229.282 22.833,229.412 22.833 C 229.882 22.833,230.201 20.576,229.770 20.294 C 229.249 19.953,228.404 20.170,227.746 20.816 M155.167 28.838 C 154.460 28.999,153.382 29.395,153.225 29.552 C 153.163 29.615,152.030 29.667,150.708 29.667 C 148.912 29.667,147.983 29.746,147.028 29.982 C 146.325 30.156,144.813 30.345,143.667 30.403 C 138.800 30.650,136.682 31.049,136.172 31.814 C 136.044 32.007,133.433 32.624,132.181 32.758 C 130.338 32.955,128.986 33.427,128.385 34.083 C 128.091 34.404,127.695 34.667,127.506 34.667 C 127.317 34.667,127.032 34.734,126.873 34.815 C 126.714 34.897,126.133 35.047,125.583 35.148 C 124.192 35.403,123.230 35.912,123.025 36.501 C 122.882 36.909,122.687 37.029,121.677 37.330 C 120.373 37.719,119.057 38.441,118.920 38.843 C 118.871 38.986,118.404 39.361,117.882 39.676 C 117.360 39.992,116.495 40.686,115.960 41.219 C 115.425 41.752,114.766 42.281,114.495 42.395 C 114.174 42.530,113.778 42.975,113.356 43.676 C 113.000 44.267,112.558 44.828,112.372 44.923 C 111.733 45.252,111.523 45.525,110.828 46.927 C 110.445 47.700,109.922 48.510,109.665 48.726 C 109.120 49.184,108.500 50.322,108.500 50.863 C 108.500 51.400,108.000 52.688,107.629 53.104 C 105.930 55.015,105.359 67.872,106.839 70.927 C 107.019 71.300,107.167 71.671,107.167 71.752 C 107.167 71.832,107.342 72.090,107.556 72.324 C 107.960 72.766,108.500 74.043,108.500 74.556 C 108.500 75.044,109.000 75.887,109.604 76.417 C 109.934 76.706,110.506 77.582,110.962 78.496 C 111.495 79.565,111.898 80.158,112.206 80.330 C 112.689 80.598,113.833 81.861,113.833 82.126 C 113.833 82.354,114.405 82.833,114.680 82.836 C 114.810 82.837,115.490 83.388,116.191 84.060 C 116.990 84.826,117.861 85.474,118.525 85.795 C 119.107 86.078,119.857 86.599,120.191 86.955 C 120.614 87.405,121.095 87.695,121.775 87.909 C 123.727 88.527,124.185 88.723,124.337 89.007 C 124.654 89.599,127.562 90.667,128.857 90.667 C 129.467 90.667,130.137 90.976,130.750 91.539 C 131.025 91.792,131.362 92.000,131.500 92.002 C 131.637 92.003,132.057 92.112,132.433 92.243 C 132.808 92.374,133.783 92.563,134.600 92.663 C 136.936 92.950,138.498 93.317,139.625 93.844 C 141.374 94.661,144.577 94.986,152.083 95.110 C 156.716 95.186,157.785 95.250,158.861 95.517 C 160.627 95.954,166.350 95.979,167.599 95.555 C 168.268 95.328,169.458 95.257,174.167 95.162 C 185.288 94.939,188.900 94.662,191.083 93.866 C 191.925 93.559,192.680 93.422,193.795 93.375 L 195.339 93.310 196.091 93.972 C 196.777 94.576,196.949 94.643,198.046 94.738 C 198.708 94.796,200.000 94.922,200.917 95.020 C 202.026 95.137,205.707 95.158,211.917 95.082 C 217.050 95.019,222.975 94.993,225.083 95.025 C 235.263 95.179,250.449 95.080,252.649 94.845 L 254.881 94.608 255.551 93.970 C 255.920 93.620,256.274 93.333,256.340 93.333 C 256.547 93.333,258.341 92.505,258.599 92.290 C 259.517 91.525,261.137 89.837,261.339 89.436 C 261.472 89.171,261.754 88.841,261.966 88.702 C 262.791 88.162,263.644 85.541,263.819 83.010 L 263.917 81.602 264.917 81.176 L 265.917 80.750 273.266 80.702 C 281.829 80.646,280.983 80.413,281.194 82.879 C 281.448 85.862,281.734 86.684,282.912 87.815 C 283.298 88.186,283.500 88.533,283.500 88.827 C 283.500 89.376,284.560 90.667,285.011 90.667 C 285.198 90.667,285.493 90.926,285.725 91.294 C 286.229 92.092,288.346 93.333,289.204 93.333 C 289.273 93.333,289.537 93.547,289.790 93.809 C 291.086 95.149,289.307 95.083,324.417 95.083 C 359.964 95.083,359.055 95.120,359.846 93.643 C 359.937 93.473,360.112 93.333,360.234 93.333 C 360.610 93.333,362.231 92.627,362.594 92.305 C 362.783 92.137,362.989 92.000,363.051 92.000 C 363.244 92.000,363.833 91.435,363.833 91.249 C 363.833 91.152,364.065 90.935,364.348 90.768 C 364.689 90.566,365.007 90.138,365.292 89.495 C 365.529 88.963,365.885 88.439,366.085 88.333 C 367.368 87.646,367.844 85.074,367.948 78.250 L 368.034 72.583 367.530 70.124 C 367.010 67.590,366.641 66.709,365.892 66.218 C 365.670 66.073,365.297 65.550,365.064 65.057 C 364.667 64.219,363.728 63.333,363.237 63.333 C 361.849 63.333,362.304 59.186,363.834 57.892 C 364.679 57.177,365.036 56.127,365.178 53.934 C 365.250 52.825,365.390 51.706,365.488 51.447 C 365.720 50.837,365.725 44.111,365.494 43.332 C 365.398 43.012,365.248 41.894,365.160 40.847 C 365.005 39.021,364.448 37.169,364.051 37.166 C 363.977 37.165,363.729 36.885,363.500 36.543 C 362.799 35.497,362.387 35.022,361.641 34.395 C 361.518 34.292,361.226 33.992,360.993 33.728 C 360.368 33.021,359.692 32.494,359.090 32.242 C 358.797 32.120,358.451 31.892,358.323 31.737 C 357.801 31.108,356.895 30.720,355.500 30.528 C 353.278 30.222,198.950 30.271,197.000 30.579 C 195.594 30.800,193.129 31.318,193.033 31.412 C 193.006 31.439,192.605 31.318,192.143 31.142 C 191.198 30.783,188.942 30.575,184.083 30.400 C 182.137 30.330,180.596 30.192,180.083 30.043 C 179.552 29.888,177.982 29.757,175.750 29.680 C 172.563 29.571,172.134 29.521,170.955 29.114 L 169.660 28.667 162.705 28.686 C 158.880 28.696,155.487 28.765,155.167 28.838 M175.333 30.979 C 180.695 31.180,184.919 31.430,185.128 31.560 C 185.213 31.612,186.080 31.731,187.055 31.823 C 188.349 31.946,189.041 32.099,189.622 32.393 C 191.758 33.472,194.620 33.543,196.039 32.553 C 196.409 32.295,196.983 31.933,197.314 31.750 C 197.914 31.418,198.275 31.416,275.917 31.368 L 353.917 31.319 355.125 31.689 C 355.790 31.892,356.333 32.114,356.333 32.182 C 356.333 32.449,357.760 33.333,358.192 33.333 C 358.625 33.333,359.356 33.914,360.191 34.920 C 360.342 35.101,360.779 35.503,361.162 35.811 C 361.572 36.142,362.041 36.752,362.304 37.295 C 362.549 37.803,362.900 38.300,363.083 38.401 C 363.751 38.767,363.805 38.980,364.175 42.750 C 364.418 45.223,364.281 52.259,363.946 54.489 C 363.711 56.057,363.616 56.244,362.765 56.798 C 362.665 56.863,362.454 57.179,362.296 57.500 C 361.741 58.626,361.031 59.856,360.770 60.144 C 359.903 61.102,361.747 64.667,363.109 64.667 C 363.532 64.667,363.833 64.979,363.833 65.417 C 363.833 65.610,364.077 66.133,364.375 66.580 C 364.673 67.026,365.000 67.531,365.102 67.702 C 365.204 67.873,365.440 68.178,365.628 68.381 C 366.475 69.299,366.536 69.726,366.620 75.417 C 366.736 83.226,366.366 86.833,365.450 86.833 C 365.324 86.833,364.927 87.406,364.569 88.105 C 364.168 88.887,363.693 89.545,363.335 89.814 C 363.016 90.054,362.405 90.601,361.977 91.031 C 361.409 91.602,361.029 91.838,360.559 91.911 C 359.482 92.077,358.526 92.440,356.921 93.291 C 356.649 93.435,355.524 93.688,354.421 93.853 C 351.653 94.265,297.672 94.322,295.417 93.914 C 294.683 93.782,293.761 93.672,293.367 93.670 C 292.627 93.667,291.877 93.371,291.523 92.944 C 291.259 92.627,289.847 92.085,288.583 91.817 C 287.682 91.627,287.516 91.522,286.909 90.761 C 286.538 90.297,285.940 89.763,285.581 89.575 C 285.027 89.285,284.871 89.076,284.557 88.197 C 284.353 87.628,284.032 86.945,283.843 86.680 C 283.654 86.415,283.500 86.077,283.500 85.927 C 283.500 85.778,283.380 85.610,283.234 85.554 C 282.769 85.376,282.351 84.079,282.235 82.459 C 282.123 80.884,281.882 80.230,281.178 79.594 C 280.787 79.239,268.181 79.182,265.500 79.522 C 263.162 79.819,262.500 80.552,262.500 82.848 C 262.500 85.109,262.219 86.318,261.537 86.990 C 261.217 87.305,260.690 87.980,260.366 88.490 C 260.041 89.000,259.627 89.523,259.446 89.652 C 259.265 89.781,258.647 90.352,258.074 90.920 C 257.191 91.795,256.919 91.966,256.307 92.039 C 255.909 92.086,255.021 92.390,254.333 92.716 C 251.579 94.021,250.038 94.167,239.036 94.166 C 230.750 94.165,229.909 94.138,227.750 93.810 C 224.763 93.357,221.899 93.342,220.833 93.775 C 219.727 94.225,202.898 94.337,201.281 93.905 C 200.714 93.754,199.773 93.525,199.190 93.397 C 198.607 93.269,197.707 92.921,197.190 92.624 L 196.250 92.083 193.500 92.087 C 190.381 92.092,188.560 92.314,185.903 93.014 C 184.572 93.364,183.664 93.501,182.653 93.502 C 181.747 93.504,180.984 93.605,180.500 93.787 C 178.658 94.480,150.789 94.538,148.250 93.854 C 147.883 93.755,147.208 93.672,146.750 93.669 C 145.881 93.663,144.770 93.377,143.917 92.940 C 143.328 92.639,139.361 92.003,138.017 91.994 C 136.010 91.982,134.356 91.541,132.667 90.568 C 131.715 90.020,130.754 89.733,129.123 89.512 C 127.580 89.302,126.890 89.035,125.952 88.282 C 125.180 87.663,123.098 86.833,122.318 86.833 C 121.927 86.833,121.749 86.709,121.474 86.244 C 121.225 85.822,120.832 85.517,120.092 85.171 C 119.523 84.905,118.961 84.570,118.842 84.427 C 118.723 84.284,118.539 84.167,118.432 84.167 C 118.326 84.167,118.106 83.942,117.944 83.668 C 117.782 83.394,117.484 83.082,117.283 82.975 C 117.081 82.869,116.622 82.531,116.262 82.224 C 115.901 81.918,115.524 81.667,115.423 81.667 C 115.321 81.667,115.116 81.460,114.966 81.208 C 114.816 80.956,114.221 80.262,113.645 79.667 C 112.401 78.381,111.939 77.741,111.389 76.539 C 111.112 75.933,110.794 75.534,110.405 75.305 C 110.061 75.102,109.791 74.789,109.732 74.525 C 109.485 73.423,109.307 72.718,109.179 72.333 C 109.102 72.104,108.901 71.467,108.732 70.917 C 108.563 70.367,108.257 69.642,108.052 69.306 C 106.752 67.170,106.782 58.880,108.097 56.872 C 108.237 56.659,108.692 55.119,109.108 53.450 C 109.818 50.600,109.895 50.396,110.378 50.083 C 110.687 49.883,111.135 49.284,111.500 48.583 C 112.404 46.846,112.534 46.653,113.376 45.798 C 113.815 45.352,114.234 44.732,114.344 44.365 C 114.508 43.815,114.676 43.650,115.456 43.267 C 115.962 43.019,116.737 42.474,117.179 42.055 C 117.621 41.637,118.191 41.186,118.446 41.054 C 118.701 40.922,118.948 40.757,118.996 40.688 C 119.044 40.618,119.440 40.319,119.875 40.023 C 120.310 39.726,120.667 39.419,120.667 39.339 C 120.667 39.118,121.683 38.556,122.287 38.444 C 122.816 38.345,123.327 38.046,124.861 36.939 C 125.586 36.416,126.850 35.988,128.373 35.750 C 128.715 35.696,129.502 35.309,130.123 34.888 C 131.413 34.013,132.925 33.591,135.413 33.410 C 137.053 33.291,138.389 32.973,139.398 32.464 C 141.052 31.628,145.973 31.007,151.083 30.989 C 152.367 30.984,153.717 30.917,154.083 30.839 C 154.919 30.662,169.424 30.757,175.333 30.979 M156.583 40.189 C 156.217 40.271,154.669 40.409,153.145 40.493 C 150.744 40.627,150.232 40.706,149.312 41.087 C 148.199 41.547,145.603 42.001,141.727 42.414 C 139.482 42.653,138.687 42.882,137.667 43.583 C 137.324 43.819,136.225 44.198,135.000 44.502 C 132.579 45.103,132.317 45.213,131.979 45.770 C 131.801 46.063,131.335 46.320,130.384 46.649 C 128.716 47.227,127.899 47.722,127.572 48.355 C 127.406 48.677,127.021 48.976,126.446 49.230 C 125.636 49.588,125.226 49.967,124.451 51.073 C 124.286 51.308,124.016 51.500,123.851 51.500 C 123.528 51.500,123.000 51.993,123.000 52.296 C 123.000 52.684,122.189 53.946,121.459 54.694 C 120.653 55.519,120.333 56.424,120.333 57.883 C 120.333 58.268,120.225 59.108,120.094 59.750 C 119.629 62.019,119.581 64.601,119.980 65.893 C 120.174 66.521,120.333 67.314,120.333 67.654 C 120.333 68.823,120.796 69.943,121.653 70.852 C 122.098 71.323,122.619 72.024,122.812 72.410 C 123.215 73.217,123.567 73.574,124.196 73.813 C 124.441 73.906,124.890 74.361,125.193 74.824 C 125.509 75.307,125.976 75.772,126.289 75.916 C 126.588 76.054,127.103 76.291,127.432 76.443 C 127.762 76.595,128.114 76.901,128.215 77.123 C 128.445 77.628,129.318 78.078,131.223 78.676 C 132.260 79.001,132.871 79.300,133.250 79.667 C 133.834 80.233,134.114 80.327,136.930 80.908 C 139.224 81.381,139.844 81.579,141.000 82.205 C 142.015 82.755,143.920 83.024,148.917 83.321 C 150.428 83.410,151.705 83.574,152.146 83.735 C 152.729 83.947,153.600 84.000,156.497 84.000 L 160.120 84.000 161.057 84.500 L 161.994 85.000 165.750 85.000 L 169.506 85.000 170.443 84.500 L 171.380 84.000 176.169 84.000 C 180.138 84.000,181.083 83.954,181.687 83.734 C 182.173 83.557,183.420 83.418,185.417 83.319 C 193.568 82.914,194.817 82.652,197.167 80.850 C 198.527 79.807,198.665 79.564,198.666 78.216 C 198.666 77.556,198.779 76.584,198.917 76.056 C 199.210 74.929,199.249 72.138,198.978 71.614 C 198.694 71.064,197.524 70.012,197.069 69.898 C 196.848 69.843,196.667 69.732,196.667 69.652 C 196.667 68.809,193.701 68.650,192.083 69.406 C 191.625 69.621,191.063 69.836,190.833 69.885 C 190.604 69.933,190.004 70.089,189.500 70.230 C 188.996 70.372,187.282 70.566,185.692 70.661 C 184.102 70.756,182.714 70.887,182.609 70.953 C 182.503 71.018,181.442 71.112,180.250 71.162 C 178.274 71.244,177.996 71.296,177.083 71.751 L 176.083 72.250 170.082 72.299 C 164.089 72.348,164.078 72.348,162.998 71.946 C 162.403 71.725,161.392 71.454,160.750 71.344 C 160.108 71.235,159.208 71.076,158.750 70.992 C 158.292 70.909,157.204 70.753,156.333 70.646 C 154.526 70.424,153.352 69.959,152.500 69.128 C 152.179 68.814,151.663 68.507,151.352 68.445 C 150.556 68.286,149.767 67.758,149.512 67.214 C 149.392 66.959,149.241 66.637,149.176 66.500 C 149.111 66.362,148.839 66.150,148.571 66.027 C 146.957 65.290,146.868 60.069,148.458 59.345 C 148.675 59.246,148.999 58.834,149.178 58.429 C 149.509 57.682,150.343 56.833,150.748 56.833 C 150.870 56.833,151.295 56.456,151.693 55.995 C 152.416 55.157,152.417 55.157,154.553 54.628 C 156.112 54.242,156.796 53.992,157.085 53.703 C 158.799 51.989,179.181 51.965,182.429 53.673 C 183.222 54.090,183.557 54.167,184.592 54.167 C 185.266 54.167,186.252 54.280,186.784 54.419 C 190.549 55.401,195.593 54.993,196.402 53.641 C 197.028 52.595,196.246 46.333,195.490 46.333 C 195.427 46.333,195.333 46.127,195.282 45.875 C 194.671 42.859,194.027 42.513,188.250 42.104 C 187.700 42.065,186.912 41.915,186.500 41.769 C 186.072 41.618,185.207 41.504,184.487 41.502 C 183.519 41.501,182.978 41.400,182.170 41.072 C 181.213 40.683,180.790 40.629,177.582 40.489 C 175.638 40.403,173.652 40.259,173.168 40.167 C 172.073 39.959,157.515 39.978,156.583 40.189 M172.882 41.875 L 173.917 42.417 177.750 42.533 C 183.534 42.708,190.658 43.212,191.413 43.499 C 191.656 43.591,192.059 43.667,192.308 43.667 C 192.843 43.667,194.000 45.748,194.000 46.711 C 194.000 47.008,194.163 48.038,194.362 49.000 C 194.560 49.963,194.753 51.315,194.790 52.005 L 194.856 53.259 194.166 53.564 C 192.719 54.202,188.733 53.907,187.667 53.083 C 187.081 52.630,185.640 52.166,184.802 52.161 C 184.315 52.158,183.167 52.046,182.250 51.912 C 181.333 51.778,178.933 51.623,176.917 51.567 C 174.686 51.505,172.882 51.374,172.309 51.233 C 171.230 50.966,167.333 50.927,166.167 51.172 C 165.754 51.258,163.922 51.406,162.095 51.499 C 157.439 51.738,155.383 52.175,154.583 53.096 C 154.403 53.303,153.041 53.851,151.836 54.200 C 151.303 54.354,150.991 54.571,150.752 54.953 C 150.568 55.248,150.284 55.535,150.122 55.590 C 149.611 55.765,148.297 57.061,148.058 57.625 C 147.932 57.923,147.719 58.167,147.585 58.167 C 146.895 58.167,146.342 60.175,146.337 62.700 C 146.331 65.430,146.703 66.494,147.875 67.103 C 148.127 67.235,148.333 67.456,148.333 67.596 C 148.333 67.964,149.350 68.954,150.014 69.232 C 150.327 69.363,151.003 69.839,151.516 70.288 C 152.405 71.066,152.520 71.116,153.933 71.326 C 155.966 71.627,157.452 72.060,158.582 72.681 C 160.097 73.512,161.754 73.656,169.833 73.658 C 175.317 73.660,176.992 73.610,177.917 73.414 C 178.558 73.278,179.625 73.167,180.288 73.167 C 181.317 73.167,181.631 73.092,182.443 72.653 C 182.965 72.370,183.811 72.073,184.321 71.994 C 187.017 71.573,191.685 71.131,193.667 71.109 L 195.917 71.083 196.875 71.641 L 197.833 72.198 197.833 73.599 C 197.833 74.370,197.765 75.000,197.681 75.000 C 197.207 75.000,196.667 76.557,196.667 77.920 C 196.667 79.755,196.227 80.220,194.313 80.406 C 193.105 80.523,191.850 80.949,191.333 81.417 C 191.174 81.561,190.406 81.717,189.375 81.814 C 188.442 81.901,187.597 82.024,187.497 82.085 C 187.048 82.363,173.227 82.863,165.750 82.873 C 158.312 82.882,147.879 82.380,146.167 81.931 C 144.274 81.435,143.260 81.119,142.917 80.919 C 142.419 80.629,141.228 80.364,139.917 80.252 C 138.916 80.166,138.180 80.033,136.239 79.588 C 135.937 79.519,135.728 79.378,134.898 78.685 C 134.404 78.272,133.156 77.801,132.333 77.718 C 131.408 77.624,130.420 77.164,130.049 76.656 C 129.771 76.276,127.631 75.000,127.271 75.000 C 126.853 75.000,126.333 74.692,126.333 74.444 C 126.333 73.989,125.312 72.861,124.665 72.602 C 124.299 72.456,124.000 72.242,124.000 72.126 C 123.999 71.729,122.960 69.916,122.395 69.324 C 120.584 67.429,120.606 57.671,122.425 55.798 C 122.955 55.252,123.667 53.896,123.667 53.433 C 123.667 53.196,124.216 52.708,124.928 52.310 C 125.197 52.160,125.541 51.799,125.693 51.507 C 126.053 50.817,126.496 50.333,126.770 50.333 C 127.276 50.333,128.182 49.733,128.642 49.093 C 129.125 48.420,130.671 47.660,131.545 47.665 C 131.924 47.667,133.069 46.946,133.370 46.516 C 133.718 46.020,136.133 45.321,138.846 44.931 C 139.272 44.870,139.971 44.584,140.429 44.285 C 141.467 43.605,143.244 43.231,146.503 43.006 C 147.833 42.915,149.325 42.763,149.817 42.670 C 150.309 42.576,151.818 42.500,153.169 42.500 C 155.639 42.500,155.821 42.468,157.417 41.756 C 158.261 41.379,158.391 41.373,165.215 41.353 L 171.847 41.333 172.882 41.875 M203.553 41.834 C 202.222 42.165,201.765 42.426,201.310 43.116 C 201.015 43.564,201.002 44.379,201.001 62.564 C 201.000 84.533,200.806 82.316,202.798 83.060 C 204.932 83.858,205.018 83.867,211.583 83.950 C 220.764 84.065,223.758 83.662,224.770 82.173 L 225.167 81.589 225.167 62.583 L 225.167 43.577 224.761 42.980 C 224.308 42.313,223.930 42.127,222.281 41.756 C 220.480 41.350,205.244 41.414,203.553 41.834 M229.500 42.004 C 228.401 42.381,227.962 42.628,227.542 43.106 L 227.000 43.722 227.000 61.838 C 227.000 83.613,226.846 82.231,229.368 83.119 C 233.010 84.401,250.747 84.430,253.213 83.158 C 253.560 82.980,253.941 82.833,254.061 82.833 C 254.180 82.833,254.534 82.515,254.847 82.125 L 255.417 81.417 255.473 75.667 L 255.529 69.917 255.973 69.583 C 256.405 69.259,256.743 69.248,268.750 69.167 C 280.962 69.084,281.090 69.080,281.751 68.726 C 283.260 67.917,283.833 66.272,283.833 62.750 C 283.833 59.967,283.780 59.785,282.495 58.213 C 282.403 58.101,282.261 57.831,282.178 57.613 C 281.814 56.656,281.962 56.667,268.922 56.667 C 256.384 56.667,256.654 56.682,255.871 55.911 C 255.557 55.602,255.536 55.522,255.746 55.441 C 255.886 55.388,256.000 55.243,256.000 55.120 C 256.000 54.997,256.222 54.732,256.493 54.531 L 256.987 54.167 272.868 54.163 C 289.357 54.159,289.794 54.141,290.342 53.443 C 290.526 53.210,290.813 52.976,290.981 52.923 C 291.150 52.869,291.535 52.339,291.837 51.743 L 292.386 50.661 292.281 47.415 C 292.158 43.564,291.947 42.823,290.737 41.991 L 290.023 41.500 260.470 41.509 L 230.917 41.518 229.500 42.004 M296.269 42.061 C 294.685 43.188,294.808 41.374,294.871 62.607 C 294.933 83.594,294.847 82.249,296.161 82.983 C 297.855 83.929,296.726 83.892,326.250 83.956 L 353.417 84.014 355.150 83.655 C 359.114 82.832,359.667 82.014,359.667 76.971 L 359.667 74.300 359.083 73.717 C 358.762 73.396,358.500 73.077,358.500 73.009 C 358.500 72.940,358.369 72.724,358.208 72.529 C 358.048 72.333,357.781 71.983,357.616 71.752 C 356.938 70.801,357.576 70.833,339.605 70.832 L 323.083 70.831 322.799 70.332 C 322.532 69.862,322.532 69.804,322.799 69.334 L 323.083 68.835 336.127 68.834 C 345.665 68.834,349.271 68.782,349.544 68.641 C 349.749 68.535,350.029 68.396,350.167 68.333 C 350.304 68.269,350.507 68.037,350.618 67.817 C 350.853 67.351,351.310 66.717,351.667 66.364 C 352.445 65.592,352.498 65.356,352.492 62.667 C 352.487 60.851,352.414 59.885,352.245 59.417 C 352.113 59.050,352.004 58.656,352.003 58.542 C 352.001 58.427,351.869 58.190,351.708 58.016 C 351.548 57.841,351.292 57.517,351.140 57.296 C 350.483 56.341,350.358 56.333,336.074 56.333 L 323.019 56.333 322.774 55.983 C 322.557 55.673,322.560 55.549,322.800 54.900 L 323.072 54.167 338.472 54.167 L 353.873 54.167 355.520 52.513 L 357.167 50.859 357.167 47.366 L 357.167 43.873 356.517 43.228 C 356.160 42.873,355.419 42.340,354.871 42.042 L 353.874 41.500 325.467 41.500 L 297.059 41.500 296.269 42.061 M222.525 43.279 L 223.840 43.724 223.795 62.404 C 223.770 72.678,223.688 81.209,223.612 81.362 C 223.537 81.515,222.975 81.852,222.365 82.112 L 221.255 82.583 213.086 82.580 C 204.366 82.577,204.224 82.564,202.863 81.690 C 202.385 81.384,202.341 79.731,202.337 61.994 L 202.333 43.739 203.542 43.305 L 204.750 42.870 212.980 42.852 L 221.210 42.833 222.525 43.279 M290.464 43.334 C 290.826 43.793,290.849 43.990,290.934 47.367 L 291.023 50.917 290.544 51.424 C 289.725 52.293,288.890 52.333,271.721 52.333 C 258.505 52.333,256.353 52.367,256.074 52.578 C 255.896 52.713,255.628 52.825,255.478 52.828 C 254.961 52.838,253.500 54.924,253.500 55.653 C 253.500 56.114,254.546 57.120,255.478 57.556 C 256.244 57.914,256.342 57.917,268.405 57.963 C 280.770 58.009,281.000 58.021,281.000 58.627 C 281.000 58.766,281.225 59.245,281.500 59.692 C 282.359 61.089,282.105 66.751,281.137 67.782 L 280.781 68.160 268.432 68.222 C 254.947 68.290,255.154 68.277,254.177 69.113 L 253.500 69.693 253.500 73.904 C 253.500 76.220,253.451 78.921,253.390 79.906 L 253.281 81.697 252.611 82.140 L 251.941 82.583 241.512 82.583 L 231.083 82.583 230.250 82.118 C 229.544 81.723,229.334 81.482,228.872 80.534 L 228.327 79.417 228.330 62.383 C 228.333 45.318,228.384 43.667,228.909 43.667 C 229.027 43.667,229.527 43.483,230.020 43.260 L 230.917 42.853 260.500 42.852 L 290.083 42.852 290.464 43.334 M354.401 43.250 C 354.648 43.479,354.910 43.667,354.983 43.667 C 355.189 43.667,355.345 47.259,355.225 49.221 L 355.117 50.981 354.467 51.615 L 353.817 52.250 338.470 52.303 C 321.162 52.362,322.531 52.251,321.946 53.644 C 321.284 55.217,321.457 56.404,322.428 56.956 L 323.083 57.328 336.167 57.331 L 349.250 57.335 349.707 57.709 C 350.331 58.220,350.667 60.046,350.665 62.917 L 350.663 65.083 350.000 65.917 C 349.635 66.375,349.336 66.838,349.335 66.945 C 349.331 67.428,347.525 67.500,335.347 67.500 L 323.043 67.500 322.327 68.135 C 321.248 69.093,321.246 70.572,322.323 71.527 L 323.034 72.159 339.392 72.204 C 348.389 72.229,355.879 72.313,356.037 72.391 C 356.195 72.469,356.626 73.010,356.995 73.595 L 357.667 74.658 357.654 76.871 C 357.626 81.833,357.391 82.285,354.711 82.528 C 352.706 82.709,297.940 82.614,297.299 82.428 C 296.181 82.104,296.255 83.439,296.200 62.652 L 296.150 43.887 296.612 43.360 L 297.074 42.833 325.513 42.833 L 353.951 42.833 354.401 43.250 M225.188 108.527 C 225.072 108.713,225.020 108.908,225.072 108.961 C 225.124 109.013,225.167 108.964,225.167 108.851 C 225.167 108.739,225.253 108.701,225.359 108.766 C 225.473 108.836,225.506 108.812,225.441 108.707 C 225.381 108.609,225.422 108.498,225.532 108.461 C 225.657 108.420,225.670 108.355,225.567 108.291 C 225.475 108.235,225.305 108.341,225.188 108.527 " stroke="none" fill="#6cb1d2" fill-rule="evenodd"></path></g></svg>