<svg id="svg" version="1.1" xmlns="http://www.w3.org/2000/svg" xmlns:xlink="http://www.w3.org/1999/xlink" width="400" height="226.75" viewBox="0, 0, 400,226.75"><g id="svgg"><path id="path0" d="M208.844 34.718 C 208.407 34.830,205.805 35.330,203.061 35.828 C 200.317 36.326,197.944 36.783,197.786 36.842 C 197.629 36.901,197.016 37.009,196.426 37.082 C 195.835 37.155,194.382 37.404,193.197 37.636 C 192.012 37.868,189.512 38.328,187.642 38.659 C 185.771 38.990,183.985 39.322,183.673 39.397 C 183.362 39.471,182.954 39.549,182.766 39.569 C 180.799 39.783,180.466 40.152,180.641 41.924 C 180.885 44.376,180.887 44.378,182.907 44.568 C 184.978 44.762,185.788 45.317,185.598 46.415 C 185.461 47.212,184.005 55.987,183.476 59.201 C 183.127 61.326,183.115 61.894,183.374 64.190 C 183.786 67.845,183.824 68.153,184.106 70.181 C 184.340 71.862,185.527 81.764,185.829 84.556 C 185.951 85.686,186.219 87.839,186.848 92.744 C 187.188 95.394,187.248 95.623,187.647 95.776 C 187.940 95.888,192.633 95.508,195.465 95.142 C 195.901 95.085,196.922 94.984,197.732 94.916 C 202.874 94.485,202.886 94.483,203.206 94.164 C 203.552 93.817,203.534 93.119,202.928 83.819 C 202.791 81.717,202.765 79.922,202.870 79.830 C 202.975 79.738,206.224 79.482,210.091 79.261 C 218.593 78.775,217.202 79.396,223.671 73.196 C 230.315 66.828,229.547 68.202,230.618 60.771 C 230.735 59.960,230.878 59.042,230.936 58.730 C 230.994 58.418,231.098 57.704,231.166 57.143 C 231.234 56.582,231.444 55.102,231.633 53.855 C 232.692 46.852,232.748 46.306,232.448 45.944 C 232.099 45.523,229.675 44.116,225.964 42.178 C 224.467 41.396,222.528 40.353,221.655 39.859 C 212.247 34.537,211.191 34.113,208.844 34.718 M204.422 49.666 C 205.669 50.129,208.169 50.994,209.977 51.589 C 211.786 52.184,213.653 52.831,214.126 53.027 L 214.987 53.384 214.832 54.640 C 214.505 57.294,213.223 65.084,213.092 65.215 C 212.967 65.340,210.620 65.822,208.617 66.134 C 208.180 66.202,206.548 66.491,204.989 66.778 C 203.430 67.064,202.110 67.257,202.057 67.206 C 201.958 67.113,201.742 64.200,201.478 59.410 C 201.399 57.976,201.243 55.782,201.131 54.535 C 200.954 52.559,200.811 49.206,200.883 48.692 C 200.917 48.449,201.789 48.689,204.422 49.666 M46.597 102.044 C 46.385 102.454,45.928 103.462,45.582 104.286 C 45.235 105.109,44.265 107.364,43.425 109.297 C 42.586 111.230,41.564 113.628,41.154 114.626 C 40.745 115.624,39.725 118.022,38.889 119.955 C 38.053 121.888,36.931 124.490,36.397 125.737 C 35.863 126.984,35.114 128.719,34.733 129.592 C 34.109 131.021,31.827 136.376,29.081 142.857 C 28.526 144.167,27.777 145.883,27.415 146.671 C 27.053 147.459,26.757 148.195,26.757 148.305 C 26.757 148.415,26.459 149.148,26.094 149.933 C 25.198 151.861,21.315 160.916,21.315 161.076 C 21.315 161.147,21.012 161.846,20.642 162.632 C 19.965 164.067,18.405 167.763,17.719 169.558 C 17.228 170.842,17.441 171.135,19.525 172.043 C 23.835 173.920,31.565 177.212,32.993 177.779 C 33.866 178.126,36.864 179.398,39.655 180.605 C 45.425 183.102,45.592 183.124,46.029 181.466 C 46.314 180.383,47.290 177.181,49.399 170.408 C 50.021 168.413,50.905 165.505,51.363 163.946 C 51.822 162.387,52.403 160.499,52.655 159.751 C 52.906 159.002,53.134 158.288,53.162 158.163 C 53.374 157.212,54.852 152.395,55.109 151.814 C 55.220 151.565,55.670 150.085,56.110 148.526 C 56.550 146.967,57.116 145.132,57.367 144.448 C 57.618 143.763,57.823 143.081,57.823 142.932 C 57.823 141.091,58.506 141.312,59.693 143.537 C 60.125 144.348,61.987 147.715,63.830 151.020 C 65.673 154.325,67.485 157.591,67.857 158.277 C 68.950 160.295,70.336 162.584,70.543 162.711 C 70.887 162.925,71.857 161.824,77.664 154.631 C 81.588 149.771,85.502 145.002,86.486 143.883 L 87.478 142.754 87.625 145.017 C 87.706 146.261,87.818 147.942,87.875 148.753 C 87.931 149.563,88.080 152.268,88.206 154.762 C 88.333 157.256,88.535 160.726,88.656 162.472 C 88.912 166.163,89.214 171.020,89.694 179.195 C 90.135 186.704,89.823 186.110,92.989 185.460 C 94.164 185.218,95.380 184.974,95.692 184.917 C 96.003 184.859,96.514 184.754,96.825 184.683 C 97.137 184.612,97.698 184.500,98.073 184.435 C 98.447 184.370,100.079 184.018,101.701 183.654 C 103.322 183.290,104.994 182.938,105.417 182.873 C 105.840 182.808,106.255 182.711,106.340 182.659 C 106.425 182.606,106.997 182.500,107.612 182.423 C 108.227 182.346,108.908 182.232,109.125 182.170 C 109.342 182.108,109.801 182.006,110.145 181.943 C 111.014 181.786,118.481 180.198,119.602 179.932 C 120.920 179.620,120.898 179.335,118.773 169.388 C 118.413 167.704,117.973 165.521,117.795 164.536 C 117.616 163.551,117.419 162.582,117.357 162.382 C 117.295 162.182,116.993 160.692,116.685 159.070 C 116.377 157.449,115.299 152.092,114.288 147.166 C 113.277 142.239,112.255 137.188,112.018 135.941 C 111.781 134.694,110.760 129.643,109.748 124.717 C 108.737 119.790,107.661 114.447,107.357 112.842 C 106.336 107.440,106.491 107.645,103.226 107.366 C 102.693 107.320,102.080 107.231,101.865 107.167 C 101.650 107.103,101.015 106.998,100.454 106.933 C 99.892 106.869,98.260 106.656,96.825 106.462 C 95.391 106.267,93.452 106.008,92.517 105.887 C 91.582 105.766,90.573 105.620,90.277 105.562 C 86.427 104.813,86.547 104.725,83.555 110.544 C 82.337 112.914,80.229 116.995,78.870 119.615 C 77.512 122.234,75.928 125.323,75.351 126.480 C 74.774 127.637,74.203 128.551,74.082 128.511 C 73.885 128.446,71.818 122.654,70.744 119.161 C 70.514 118.413,69.269 114.702,67.976 110.915 C 65.363 103.256,65.568 103.587,63.265 103.296 C 62.579 103.210,61.763 103.101,61.451 103.055 C 61.139 103.009,60.374 102.914,59.751 102.845 C 59.127 102.776,58.362 102.669,58.050 102.608 C 57.738 102.547,56.922 102.439,56.236 102.368 C 55.550 102.297,54.019 102.097,52.834 101.922 C 51.650 101.748,49.848 101.537,48.831 101.452 L 46.982 101.299 46.597 102.044 M211.164 134.694 C 211.164 135.130,211.210 135.309,211.267 135.091 C 211.324 134.872,211.324 134.515,211.267 134.297 C 211.210 134.079,211.164 134.257,211.164 134.694 " stroke="none" fill="#e42414" fill-rule="evenodd"></path><path id="path1" d="M83.277 31.455 C 83.620 31.507,84.181 31.507,84.524 31.455 C 84.867 31.403,84.586 31.360,83.900 31.360 C 83.214 31.360,82.934 31.403,83.277 31.455 M236.735 36.338 C 236.456 36.995,235.601 40.442,235.601 40.909 C 235.601 41.105,236.145 41.573,236.810 41.948 C 238.810 43.077,238.805 42.981,237.318 52.381 C 236.502 57.542,236.267 59.130,235.597 64.017 C 234.753 70.174,234.945 69.768,231.186 73.316 C 228.757 75.608,228.345 76.097,228.345 76.688 C 228.345 77.480,229.124 82.912,229.624 85.601 C 230.076 88.033,230.067 87.977,230.511 90.774 C 231.013 93.936,230.941 93.875,234.200 93.890 C 235.656 93.897,237.460 93.945,238.209 93.997 C 238.957 94.049,241.202 94.142,243.197 94.204 C 246.531 94.307,248.406 94.390,253.741 94.670 C 254.802 94.726,258.373 94.834,261.678 94.910 C 264.983 94.987,267.933 95.088,268.234 95.135 C 269.156 95.280,274.625 95.292,274.767 95.150 C 274.841 95.076,274.782 94.224,274.636 93.256 C 274.490 92.288,273.977 88.811,273.496 85.529 C 273.016 82.247,272.519 79.458,272.392 79.331 C 272.191 79.130,262.849 80.318,257.823 81.184 C 253.741 81.887,250.778 82.244,250.656 82.046 C 250.500 81.794,249.521 75.551,249.325 73.552 C 249.142 71.695,249.196 71.624,250.571 71.894 C 254.304 72.627,264.655 74.150,265.902 74.150 C 266.872 74.150,267.047 73.849,267.218 71.889 C 267.299 70.957,267.461 69.783,267.578 69.281 C 268.182 66.686,268.516 62.264,268.128 61.981 C 267.857 61.783,266.096 61.702,261.824 61.693 C 252.720 61.672,250.273 61.504,250.408 60.907 C 250.467 60.645,250.834 59.257,251.222 57.823 C 251.610 56.389,252.113 54.525,252.339 53.682 C 252.565 52.838,252.855 52.043,252.983 51.915 C 253.199 51.699,256.403 52.460,257.710 53.037 C 257.959 53.148,259.133 53.513,260.317 53.849 C 261.502 54.185,262.727 54.547,263.039 54.653 C 264.061 55.000,272.088 57.419,272.475 57.497 C 273.054 57.612,273.226 57.030,274.026 52.268 C 274.486 49.524,275.055 46.319,275.289 45.146 C 275.774 42.721,275.673 42.305,274.555 42.108 C 271.949 41.649,269.193 41.189,265.420 40.584 C 263.050 40.203,260.754 39.835,260.317 39.765 C 259.881 39.695,259.457 39.597,259.376 39.547 C 259.246 39.467,250.752 37.990,247.052 37.403 C 246.304 37.284,245.283 37.083,244.785 36.957 C 243.773 36.700,238.057 35.828,237.383 35.828 C 237.146 35.828,236.854 36.057,236.735 36.338 M93.028 45.862 C 92.708 46.267,92.256 47.166,92.373 47.166 C 92.428 47.166,92.683 46.808,92.940 46.372 C 93.408 45.579,93.452 45.327,93.028 45.862 M117.534 48.356 C 117.281 48.637,116.993 49.019,116.894 49.206 C 116.703 49.567,116.755 49.518,117.673 48.469 C 117.974 48.126,118.169 47.846,118.106 47.846 C 118.044 47.846,117.786 48.075,117.534 48.356 M106.595 62.885 C 106.647 62.926,107.046 63.189,107.483 63.471 L 108.277 63.983 107.596 63.399 C 107.222 63.077,106.823 62.814,106.708 62.813 C 106.594 62.812,106.543 62.845,106.595 62.885 M67.800 70.578 C 67.466 71.034,67.411 71.193,67.656 70.994 C 68.028 70.692,68.590 69.841,68.418 69.841 C 68.375 69.841,68.096 70.173,67.800 70.578 M65.533 82.837 C 65.533 82.876,65.865 83.208,66.270 83.574 L 67.007 84.240 66.341 83.503 C 65.720 82.816,65.533 82.662,65.533 82.837 M131.026 105.385 C 130.652 105.827,130.140 107.441,128.669 112.812 C 128.123 114.807,127.563 116.746,127.425 117.120 C 127.287 117.494,126.719 119.433,126.162 121.429 C 125.605 123.424,125.055 125.261,124.938 125.510 C 124.822 125.760,124.515 126.780,124.255 127.778 C 123.599 130.299,123.205 131.696,122.334 134.580 C 121.920 135.952,121.249 138.299,120.843 139.796 C 120.437 141.293,120.035 142.599,119.950 142.699 C 119.865 142.798,119.985 143.666,120.217 144.626 C 120.448 145.586,120.896 147.800,121.213 149.546 C 121.529 151.293,122.138 154.303,122.565 156.236 C 122.992 158.169,123.656 161.485,124.040 163.605 C 124.425 165.726,124.837 167.766,124.957 168.141 C 125.077 168.515,125.631 171.200,126.189 174.108 C 126.746 177.015,127.261 179.489,127.332 179.605 C 127.404 179.721,127.514 180.242,127.577 180.764 C 127.736 182.087,127.988 182.457,128.847 182.629 C 136.245 184.112,135.890 184.271,136.628 179.138 C 137.064 176.106,138.023 170.493,138.334 169.148 L 138.573 168.114 140.658 167.737 C 141.805 167.530,143.203 167.301,143.764 167.229 C 144.325 167.157,144.938 167.055,145.125 167.003 C 145.312 166.951,146.587 166.753,147.959 166.563 C 150.598 166.198,152.346 165.943,155.669 165.438 C 157.584 165.147,158.369 165.006,159.567 164.736 C 160.234 164.586,160.321 164.777,160.908 167.676 C 164.002 182.954,163.984 182.876,164.623 183.218 C 165.061 183.453,167.105 183.136,173.583 181.828 C 175.454 181.450,178.668 180.835,180.726 180.461 C 190.192 178.741,190.246 178.722,189.598 177.479 C 189.319 176.943,186.801 169.705,185.680 166.213 C 185.299 165.028,184.910 163.957,184.814 163.832 C 184.719 163.707,184.310 162.585,183.906 161.338 C 183.501 160.091,182.635 157.540,181.980 155.669 C 181.326 153.798,180.562 151.604,180.284 150.794 C 180.005 149.983,179.220 147.738,178.539 145.805 C 177.857 143.872,176.809 140.862,176.210 139.116 C 175.610 137.370,174.646 134.618,174.068 133.002 C 173.489 131.385,173.015 129.906,173.014 129.714 C 173.014 129.522,172.882 129.110,172.722 128.798 C 172.561 128.486,171.942 126.803,171.345 125.057 C 170.749 123.311,170.176 121.678,170.072 121.429 C 169.706 120.549,169.139 118.979,168.486 117.040 C 165.333 107.672,166.033 108.512,160.998 108.059 C 160.187 107.986,158.912 107.828,158.163 107.708 C 157.415 107.588,154.354 107.279,151.361 107.022 C 148.367 106.766,145.051 106.459,143.991 106.342 C 142.931 106.225,141.553 106.075,140.930 106.009 C 140.306 105.943,139.388 105.842,138.889 105.785 C 138.390 105.728,137.268 105.623,136.395 105.552 C 135.522 105.481,134.253 105.326,133.575 105.206 C 131.847 104.901,131.411 104.932,131.026 105.385 M311.755 107.263 C 311.394 107.474,309.621 109.639,307.026 113.039 C 306.359 113.912,305.635 114.830,305.415 115.079 C 304.675 115.921,300.321 121.418,299.381 122.698 C 298.869 123.396,298.314 124.113,298.148 124.291 C 297.982 124.469,297.514 125.046,297.109 125.572 C 296.704 126.099,296.062 126.922,295.684 127.400 C 294.971 128.301,294.940 128.442,293.634 136.735 C 293.506 137.545,293.314 138.413,293.208 138.662 C 293.101 138.912,292.642 141.412,292.187 144.218 C 291.733 147.024,291.199 150.136,291.001 151.134 C 290.495 153.683,290.953 155.702,293.417 161.791 C 293.700 162.492,295.239 166.975,296.841 171.769 C 298.183 175.781,298.503 176.386,299.498 176.783 C 299.961 176.967,300.544 177.207,300.794 177.317 C 301.043 177.426,304.155 178.446,307.710 179.584 C 311.264 180.721,314.989 181.939,315.986 182.290 C 316.984 182.642,319.076 183.313,320.635 183.782 C 322.194 184.251,323.566 184.725,323.685 184.835 C 323.803 184.944,324.057 185.034,324.248 185.034 C 324.439 185.034,326.004 185.499,327.726 186.067 C 329.675 186.710,331.046 187.046,331.358 186.958 C 332.145 186.735,343.805 181.491,347.732 179.594 C 348.730 179.112,350.057 178.517,350.680 178.273 C 351.304 178.029,352.439 177.511,353.203 177.123 C 353.966 176.735,354.649 176.417,354.720 176.417 C 354.791 176.417,355.696 176.020,356.733 175.534 C 357.769 175.049,359.296 174.345,360.127 173.971 C 362.056 173.101,362.216 172.781,363.613 167.007 C 363.945 165.635,364.603 163.033,365.075 161.224 C 366.014 157.625,366.863 154.175,367.028 153.288 C 367.086 152.976,367.283 152.262,367.466 151.701 C 367.900 150.370,370.295 140.532,370.295 140.080 C 370.295 139.703,368.592 137.101,365.879 133.333 C 364.936 132.024,363.814 130.442,363.386 129.819 C 362.958 129.195,362.299 128.252,361.922 127.723 C 361.546 127.193,360.237 125.357,359.015 123.641 C 357.792 121.925,356.400 119.960,355.921 119.274 C 355.443 118.588,354.500 117.262,353.826 116.327 C 353.152 115.391,352.186 114.034,351.680 113.310 C 350.580 111.736,350.304 111.615,346.899 111.214 C 345.443 111.042,344.015 110.851,343.725 110.790 C 343.435 110.729,342.636 110.621,341.950 110.550 C 341.264 110.480,339.632 110.277,338.322 110.099 C 337.012 109.922,334.002 109.560,331.633 109.296 C 329.263 109.031,326.151 108.665,324.717 108.481 C 323.282 108.298,321.497 108.093,320.748 108.025 C 320.000 107.958,319.238 107.854,319.054 107.794 C 317.598 107.319,312.317 106.935,311.755 107.263 M290.168 119.322 C 290.091 119.608,290.039 120.096,290.051 120.408 C 290.063 120.742,290.153 120.562,290.270 119.969 C 290.478 118.907,290.404 118.439,290.168 119.322 M260.836 127.324 C 260.838 127.948,260.882 128.176,260.934 127.831 C 260.986 127.487,260.984 126.976,260.931 126.698 C 260.877 126.419,260.834 126.701,260.836 127.324 M151.516 127.859 L 152.692 128.005 153.461 131.859 C 153.884 133.980,154.316 136.071,154.421 136.508 C 154.527 136.944,155.116 139.751,155.731 142.744 C 156.347 145.737,156.891 148.339,156.940 148.526 C 157.043 148.916,157.743 148.906,148.413 148.649 C 144.921 148.552,142.019 148.432,141.965 148.383 C 141.849 148.275,142.469 143.966,142.972 141.383 C 143.267 139.870,144.530 132.202,145.026 128.912 C 145.271 127.290,145.101 127.372,147.848 127.551 C 149.219 127.641,150.870 127.779,151.516 127.859 M325.397 133.230 C 326.083 133.420,328.379 134.020,330.499 134.565 C 332.619 135.109,334.864 135.709,335.488 135.899 C 336.111 136.089,337.320 136.431,338.173 136.659 C 340.116 137.180,340.022 136.968,340.592 142.085 C 340.854 144.443,341.252 147.902,341.476 149.773 C 341.749 152.048,341.809 153.270,341.659 153.462 C 341.367 153.836,327.284 160.837,327.028 160.735 C 326.921 160.693,324.658 158.362,321.999 155.556 C 319.341 152.749,316.621 149.891,315.955 149.202 L 314.745 147.951 315.139 147.231 C 315.839 145.950,318.761 140.933,320.080 138.747 C 320.786 137.578,321.772 135.856,322.272 134.921 C 322.772 133.985,323.226 133.143,323.282 133.050 C 323.432 132.797,324.007 132.846,325.397 133.230 M260.609 134.354 C 260.611 134.977,260.655 135.206,260.707 134.861 C 260.759 134.516,260.758 134.006,260.704 133.727 C 260.650 133.448,260.607 133.730,260.609 134.354 M285.384 146.155 C 285.298 146.734,285.273 147.253,285.330 147.310 C 285.387 147.367,285.504 146.940,285.591 146.362 C 285.677 145.783,285.702 145.264,285.645 145.207 C 285.589 145.150,285.471 145.577,285.384 146.155 M263.065 175.095 C 263.050 175.303,262.980 175.660,262.908 175.888 C 262.784 176.282,262.791 176.283,263.037 175.900 C 263.179 175.678,263.250 175.321,263.193 175.106 C 263.101 174.755,263.089 174.754,263.065 175.095 M273.302 182.929 C 273.647 182.981,274.157 182.980,274.436 182.926 C 274.715 182.872,274.433 182.830,273.810 182.831 C 273.186 182.833,272.958 182.877,273.302 182.929 M269.444 183.156 C 269.787 183.208,270.349 183.208,270.692 183.156 C 271.035 183.104,270.754 183.061,270.068 183.061 C 269.382 183.061,269.101 183.104,269.444 183.156 " stroke="none" fill="#43ab33" fill-rule="evenodd"></path><path id="path2" d="M96.939 30.162 C 94.694 30.383,91.531 30.681,89.909 30.824 C 88.288 30.968,86.349 31.179,85.601 31.295 C 84.853 31.410,83.424 31.559,82.426 31.627 C 79.133 31.851,77.897 32.020,77.432 32.310 C 77.078 32.531,69.700 43.192,68.594 45.081 C 68.469 45.294,67.653 46.512,66.780 47.789 C 65.045 50.326,64.182 51.718,64.176 51.989 C 64.172 52.169,67.121 54.128,68.934 55.149 C 69.495 55.465,71.179 56.503,72.676 57.456 C 74.172 58.409,75.652 59.313,75.964 59.465 C 76.276 59.617,77.623 60.432,78.959 61.276 C 80.294 62.121,81.450 62.812,81.528 62.812 C 81.606 62.812,82.248 63.184,82.955 63.640 C 83.662 64.095,84.623 64.708,85.091 65.000 C 85.558 65.293,86.324 65.772,86.791 66.065 C 87.586 66.562,92.774 69.682,94.160 70.496 C 94.989 70.983,94.971 71.050,93.516 73.016 C 92.823 73.951,91.549 75.706,90.685 76.915 C 89.820 78.124,89.015 79.174,88.895 79.248 C 88.775 79.322,87.386 78.282,85.807 76.936 C 84.229 75.591,82.057 73.776,80.981 72.902 C 79.905 72.029,77.549 70.065,75.744 68.537 C 71.748 65.155,71.959 65.178,69.949 67.904 C 69.079 69.084,66.972 71.883,65.266 74.124 C 60.955 79.788,61.067 79.229,63.815 81.406 C 64.838 82.217,66.332 83.456,67.135 84.161 C 71.988 88.421,78.651 94.071,79.115 94.319 C 79.888 94.733,107.038 94.409,108.452 93.969 C 108.826 93.852,110.358 90.913,111.338 88.434 C 111.559 87.872,112.093 86.648,112.524 85.713 C 112.954 84.778,113.590 83.350,113.937 82.540 C 114.283 81.729,114.853 80.454,115.203 79.705 C 115.554 78.957,116.040 77.834,116.285 77.210 C 116.530 76.585,117.109 75.259,117.572 74.262 C 119.094 70.982,119.101 71.058,117.188 69.804 C 116.527 69.371,114.354 67.942,112.358 66.628 C 110.363 65.314,107.098 63.166,105.102 61.853 C 87.288 50.134,89.346 51.781,90.458 50.130 C 90.927 49.435,91.599 48.356,91.952 47.732 C 92.853 46.143,94.375 43.764,94.492 43.764 C 94.545 43.764,96.242 44.912,98.262 46.315 C 106.967 52.360,111.387 55.329,111.685 55.329 C 112.086 55.329,115.543 51.256,117.074 48.980 C 117.284 48.668,118.170 47.545,119.043 46.485 C 121.231 43.829,121.178 43.666,117.199 40.888 C 116.494 40.395,113.790 38.344,111.190 36.330 C 103.435 30.320,102.548 29.702,101.737 29.732 C 101.343 29.747,99.184 29.941,96.939 30.162 M262.061 104.089 C 261.822 104.430,261.719 105.293,261.693 107.154 C 261.673 108.578,261.617 110.332,261.569 111.051 C 261.521 111.770,261.415 114.450,261.334 117.007 C 261.253 119.563,261.153 122.319,261.111 123.129 C 261.070 123.940,260.974 126.644,260.898 129.138 C 260.762 133.579,260.629 136.615,260.433 139.796 C 260.378 140.669,260.274 143.220,260.200 145.465 C 260.127 147.710,260.029 150.516,259.983 151.701 C 259.937 152.885,259.837 156.049,259.761 158.730 C 259.684 161.412,259.571 164.290,259.508 165.126 L 259.393 166.646 261.314 168.273 C 263.755 170.341,263.882 170.636,263.528 173.438 C 263.184 176.163,262.986 176.453,260.767 177.467 L 258.957 178.294 258.954 180.134 C 258.952 181.145,258.892 182.193,258.819 182.462 C 258.619 183.210,259.448 183.923,260.373 183.799 C 260.779 183.745,262.132 183.638,263.379 183.563 C 264.626 183.488,266.616 183.334,267.800 183.221 C 268.985 183.108,271.026 182.951,272.336 182.872 C 273.645 182.793,275.074 182.693,275.510 182.649 C 275.947 182.605,276.726 182.562,277.242 182.554 C 278.929 182.528,279.121 182.194,279.860 177.987 C 280.219 175.939,280.562 174.008,280.621 173.696 C 280.680 173.384,281.075 171.139,281.500 168.707 C 281.925 166.276,282.334 163.980,282.408 163.605 C 282.483 163.231,282.644 162.313,282.765 161.565 C 282.887 160.816,283.094 159.694,283.225 159.070 C 283.356 158.447,283.710 156.508,284.012 154.762 C 284.314 153.016,284.611 151.332,284.672 151.020 C 284.733 150.709,284.946 149.331,285.145 147.959 C 285.344 146.587,285.602 145.159,285.719 144.785 C 285.836 144.410,286.088 143.135,286.278 141.950 C 286.469 140.765,286.784 138.929,286.978 137.868 C 287.172 136.808,287.375 135.635,287.428 135.261 C 287.482 134.887,287.583 134.325,287.654 134.014 C 287.725 133.702,287.832 133.039,287.893 132.540 C 287.954 132.041,288.105 131.276,288.228 130.839 C 288.351 130.402,288.865 127.545,289.370 124.490 C 290.470 117.830,290.317 118.705,291.026 114.966 C 291.738 111.208,291.742 110.972,291.100 110.623 C 290.575 110.338,290.029 110.200,280.977 108.067 C 278.059 107.379,275.351 106.711,274.958 106.581 C 274.566 106.451,273.586 106.205,272.780 106.033 C 269.086 105.244,265.795 104.475,264.966 104.207 C 263.091 103.600,262.423 103.573,262.061 104.089 " stroke="none" fill="#049bdb" fill-rule="evenodd"></path><path id="path3" d="M302.381 33.249 C 298.284 33.900,294.575 34.475,289.569 35.233 C 287.511 35.545,284.113 36.061,282.017 36.381 C 279.921 36.700,278.059 36.961,277.878 36.961 C 276.974 36.961,277.719 37.382,278.855 37.513 C 281.823 37.855,281.898 38.028,281.087 42.696 C 279.012 54.650,278.818 55.906,278.809 57.483 C 278.800 58.860,279.315 64.564,279.934 69.955 C 280.120 71.576,280.477 74.943,280.727 77.438 C 280.977 79.932,281.281 82.891,281.402 84.014 C 281.524 85.136,281.842 88.248,282.110 90.930 C 282.389 93.721,282.713 95.929,282.868 96.096 C 283.140 96.389,288.683 96.074,293.878 95.471 C 294.938 95.348,296.392 95.187,297.109 95.113 C 298.810 94.938,298.725 95.597,298.416 84.947 C 298.167 76.355,298.187 75.510,298.638 75.510 C 298.885 75.510,300.679 78.105,303.887 83.107 C 312.605 96.696,312.281 96.241,313.111 96.037 C 313.590 95.919,326.296 90.593,329.368 89.223 C 329.745 89.055,330.331 88.812,330.672 88.682 C 331.763 88.268,331.544 87.965,328.027 85.018 C 327.666 84.715,326.540 83.753,325.526 82.880 C 324.512 82.007,323.133 80.833,322.461 80.272 C 318.082 76.614,315.194 74.053,315.201 73.836 C 315.205 73.696,315.894 73.165,316.731 72.654 C 322.576 69.089,324.652 67.741,324.988 67.293 C 325.363 66.793,325.826 64.515,326.763 58.559 C 327.182 55.896,327.430 54.385,328.459 48.247 C 329.074 44.576,330.161 45.582,317.800 38.379 C 314.683 36.562,311.723 34.805,311.224 34.473 C 308.197 32.461,307.737 32.397,302.381 33.249 M123.591 37.627 C 123.120 38.506,123.330 38.945,124.698 39.947 C 127.943 42.324,127.860 43.952,124.255 48.542 C 122.454 50.837,122.584 50.214,122.107 58.844 C 121.649 67.151,121.609 66.478,122.590 67.006 C 124.394 67.977,125.072 70.736,124.039 72.902 C 121.519 78.185,120.600 80.913,120.993 81.938 C 121.065 82.127,123.379 84.303,126.135 86.775 C 128.890 89.247,131.663 91.754,132.296 92.346 C 134.592 94.494,132.063 94.231,155.556 94.759 C 164.212 94.953,162.983 95.339,166.511 91.318 C 168.156 89.444,170.458 86.829,171.628 85.508 C 172.797 84.187,173.843 82.902,173.952 82.653 C 174.147 82.206,176.270 69.881,178.874 54.082 C 179.121 52.585,179.389 51.101,179.470 50.784 C 179.765 49.629,179.283 49.490,171.655 48.538 C 166.558 47.902,162.432 47.354,160.317 47.032 C 159.008 46.833,157.630 46.705,157.256 46.748 L 156.576 46.825 156.562 49.206 C 156.554 50.516,156.625 52.914,156.720 54.535 C 157.034 59.919,157.596 72.702,157.596 74.441 L 157.596 76.154 156.179 76.298 C 152.376 76.682,140.917 77.217,140.781 77.017 C 140.699 76.897,140.672 76.687,140.721 76.551 C 140.770 76.415,141.016 74.926,141.267 73.243 C 141.517 71.559,141.921 68.957,142.163 67.460 C 142.405 65.964,142.652 64.433,142.713 64.059 C 142.773 63.685,143.091 61.746,143.420 59.751 C 143.749 57.755,144.264 54.592,144.565 52.721 C 144.866 50.850,145.371 47.738,145.687 45.805 C 146.863 38.603,147.181 39.311,142.578 38.893 C 140.674 38.720,138.044 38.470,136.735 38.339 C 123.936 37.053,123.899 37.051,123.591 37.627 M298.341 47.417 C 299.175 47.746,306.117 50.192,308.730 51.077 C 309.853 51.457,310.847 51.835,310.941 51.916 C 311.034 51.996,310.861 53.588,310.557 55.453 C 310.252 57.318,309.835 60.066,309.630 61.560 C 309.209 64.631,309.041 65.079,308.312 65.079 C 308.028 65.079,306.016 65.377,303.841 65.740 C 301.666 66.104,299.427 66.436,298.866 66.477 L 297.846 66.553 297.704 63.265 C 297.375 55.597,297.256 47.166,297.477 47.166 C 297.601 47.166,297.990 47.279,298.341 47.417 M221.542 101.823 C 220.981 101.923,219.552 102.159,218.367 102.348 C 217.183 102.537,215.040 102.893,213.605 103.140 C 212.171 103.387,208.651 103.958,205.782 104.409 C 202.914 104.861,199.700 105.377,198.639 105.557 C 197.579 105.738,195.079 106.144,193.084 106.461 C 188.054 107.259,185.259 107.714,184.516 107.856 C 183.471 108.055,183.213 108.709,183.459 110.544 C 183.576 111.417,183.876 114.019,184.125 116.327 C 184.374 118.634,184.681 121.236,184.807 122.109 C 184.933 122.982,185.291 125.992,185.602 128.798 C 185.913 131.604,186.475 136.451,186.852 139.569 C 187.228 142.687,187.735 147.075,187.979 149.320 C 188.660 155.604,188.761 156.100,190.142 159.977 C 190.853 161.973,191.831 164.768,192.314 166.189 C 192.797 167.610,193.551 169.778,193.989 171.007 C 194.426 172.237,195.147 174.289,195.589 175.567 C 196.032 176.845,196.634 178.554,196.928 179.365 C 197.222 180.176,197.592 181.278,197.751 181.814 C 198.132 183.103,197.647 183.045,203.771 182.535 C 214.255 181.660,213.037 182.649,212.712 175.276 C 211.860 155.941,211.863 156.236,212.555 156.236 C 213.008 156.236,213.695 157.158,216.909 162.075 C 219.007 165.286,221.996 169.853,223.550 172.222 C 231.331 184.088,230.871 183.447,231.615 183.447 C 232.040 183.447,236.721 181.422,242.029 178.942 C 243.133 178.426,244.125 178.005,244.233 178.005 C 244.342 178.005,245.021 177.706,245.742 177.341 C 246.462 176.977,248.136 176.217,249.461 175.652 C 253.334 174.002,255.707 172.867,255.885 172.580 C 256.095 172.240,254.984 171.193,250.541 167.542 C 248.622 165.965,245.464 163.363,243.524 161.759 C 241.583 160.156,239.645 158.555,239.216 158.203 C 234.212 154.093,234.214 154.095,234.633 153.782 C 235.128 153.411,238.480 151.437,243.985 148.276 C 248.999 145.395,248.834 145.591,249.523 141.723 C 249.824 140.040,250.500 136.468,251.026 133.787 C 252.703 125.240,252.814 124.655,253.301 121.810 C 253.563 120.274,253.726 118.882,253.663 118.716 C 253.558 118.444,248.309 115.202,245.805 113.863 C 245.244 113.563,244.529 113.141,244.218 112.925 C 243.906 112.710,241.610 111.362,239.116 109.931 C 236.621 108.500,232.391 106.037,229.714 104.458 C 224.406 101.327,224.376 101.317,221.542 101.823 M215.121 122.590 C 217.218 123.166,219.853 123.872,220.975 124.158 C 228.582 126.096,227.967 125.667,227.538 128.740 C 227.363 129.987,227.068 132.424,226.881 134.155 C 226.303 139.513,226.035 141.051,225.642 141.251 C 225.445 141.351,224.314 141.660,223.129 141.937 C 221.944 142.213,219.904 142.690,218.594 142.995 C 217.285 143.300,215.375 143.751,214.351 143.997 C 211.405 144.704,211.565 144.799,211.563 142.347 C 211.562 141.193,211.465 138.872,211.349 137.188 C 210.980 131.847,210.793 121.542,211.065 121.542 C 211.199 121.542,213.024 122.014,215.121 122.590 " stroke="none" fill="#f9d004" fill-rule="evenodd"></path><path id="path4" d="M100.567 24.024 C 100.317 24.124,100.025 24.155,99.918 24.092 C 99.810 24.030,99.657 24.079,99.578 24.202 C 99.498 24.325,97.239 24.600,94.558 24.813 C 91.876 25.025,89.538 25.247,89.362 25.305 C 89.186 25.363,85.837 25.664,81.919 25.973 L 74.795 26.536 73.736 27.656 C 73.153 28.272,72.268 29.447,71.769 30.267 C 71.270 31.087,70.628 32.020,70.343 32.340 C 70.057 32.660,69.617 33.361,69.365 33.897 C 69.113 34.433,68.610 35.164,68.247 35.520 C 67.883 35.876,67.583 36.251,67.580 36.354 C 67.577 36.456,67.268 36.985,66.893 37.528 C 66.519 38.072,66.213 38.604,66.213 38.709 C 66.213 38.815,66.019 39.068,65.782 39.270 C 65.545 39.473,64.928 40.363,64.412 41.248 C 63.895 42.133,63.381 42.857,63.271 42.857 C 63.160 42.857,62.999 43.078,62.913 43.348 C 62.828 43.618,62.413 44.319,61.991 44.906 C 61.569 45.492,61.223 46.062,61.221 46.172 C 61.218 46.282,60.987 46.589,60.706 46.855 C 60.426 47.121,60.047 47.631,59.864 47.989 C 59.350 48.997,58.419 50.436,58.165 50.615 C 58.021 50.717,57.937 53.102,57.937 57.096 L 57.937 63.416 58.617 64.017 C 58.991 64.348,59.731 64.833,60.261 65.096 C 60.791 65.358,61.224 65.645,61.224 65.732 C 61.224 65.820,61.724 66.183,62.335 66.540 C 63.076 66.972,63.378 67.272,63.242 67.438 C 62.548 68.286,60.998 70.556,60.998 70.725 C 60.998 70.836,60.861 70.979,60.694 71.043 C 60.526 71.107,59.995 71.756,59.512 72.485 C 59.030 73.213,58.300 74.157,57.889 74.581 C 57.479 75.006,57.143 75.468,57.143 75.608 C 57.143 75.748,56.811 76.217,56.406 76.650 L 55.669 77.438 55.596 83.220 C 55.501 90.846,55.655 91.417,58.096 92.477 C 58.189 92.518,58.753 93.052,59.348 93.664 C 59.944 94.277,60.490 94.779,60.563 94.781 C 60.636 94.783,61.117 95.174,61.633 95.650 L 62.570 96.515 61.387 96.345 C 60.737 96.252,58.112 95.946,55.556 95.665 C 52.999 95.385,50.856 95.088,50.794 95.005 C 50.691 94.868,47.796 94.468,44.731 94.166 C 43.127 94.008,42.608 94.383,41.938 96.185 C 41.645 96.974,41.289 97.738,41.146 97.883 C 41.004 98.028,40.760 98.488,40.604 98.904 C 40.449 99.320,40.075 100.272,39.775 101.020 C 39.474 101.769,39.228 102.501,39.228 102.648 C 39.229 102.795,39.096 103.050,38.934 103.215 C 38.686 103.468,37.940 105.230,36.912 107.993 C 36.784 108.336,36.592 108.617,36.485 108.617 C 36.378 108.617,36.222 108.897,36.140 109.240 C 36.057 109.583,35.813 110.272,35.597 110.771 C 34.814 112.579,34.240 114.126,34.240 114.429 C 34.240 114.600,34.154 114.739,34.048 114.739 C 33.845 114.739,33.464 115.573,32.652 117.800 C 31.996 119.598,31.709 120.181,31.481 120.181 C 31.377 120.181,31.293 120.286,31.293 120.413 C 31.293 120.770,29.237 125.945,29.043 126.075 C 28.949 126.139,28.559 127.058,28.175 128.118 C 27.792 129.178,27.061 130.875,26.551 131.888 C 26.041 132.901,25.624 133.828,25.624 133.946 C 25.624 134.287,24.461 137.062,24.266 137.188 C 24.169 137.251,23.934 137.761,23.744 138.322 C 23.098 140.230,21.957 142.968,21.757 143.091 C 21.647 143.159,21.259 144.027,20.893 145.020 C 19.968 147.533,19.429 148.847,19.266 148.980 C 19.190 149.042,18.691 150.215,18.157 151.587 C 17.622 152.959,17.094 154.138,16.983 154.208 C 16.873 154.277,16.436 155.298,16.013 156.475 C 15.087 159.052,14.724 159.880,14.345 160.277 C 14.188 160.442,14.059 160.723,14.059 160.903 C 14.059 161.083,13.863 161.662,13.624 162.191 C 12.692 164.252,12.245 165.376,12.245 165.656 C 12.245 165.817,12.146 165.983,12.026 166.024 C 11.820 166.095,11.267 167.436,10.124 170.635 C 9.856 171.383,9.561 172.029,9.467 172.071 C 9.374 172.113,9.297 174.755,9.297 177.942 L 9.297 183.738 9.949 184.329 C 10.897 185.190,11.626 185.714,11.875 185.714 C 12.179 185.714,17.094 187.593,17.234 187.762 C 17.381 187.942,22.368 190.023,22.650 190.023 C 22.768 190.023,22.899 190.106,22.940 190.207 C 23.016 190.394,25.316 191.358,27.211 191.999 C 27.772 192.188,28.283 192.424,28.345 192.523 C 28.478 192.731,33.595 194.785,33.981 194.785 C 34.124 194.785,34.240 194.874,34.240 194.983 C 34.240 195.213,35.616 195.813,38.209 196.716 C 39.206 197.064,40.125 197.469,40.249 197.617 C 40.374 197.764,41.650 198.327,43.084 198.867 C 44.518 199.407,45.743 199.914,45.805 199.993 C 46.031 200.281,48.284 201.134,48.816 201.134 C 49.600 201.134,49.969 200.582,50.562 198.526 C 50.849 197.528,51.161 196.661,51.253 196.599 C 51.431 196.480,51.707 195.523,52.858 191.043 C 53.242 189.547,53.642 188.270,53.745 188.206 C 53.849 188.142,54.353 186.564,54.866 184.700 C 55.379 182.835,55.873 181.254,55.965 181.187 C 56.140 181.059,56.214 180.806,57.501 175.966 C 57.948 174.283,58.405 172.850,58.516 172.781 C 58.627 172.713,58.994 171.564,59.332 170.229 C 59.874 168.092,60.317 167.146,60.317 168.129 C 60.317 168.310,60.460 168.540,60.634 168.640 C 60.809 168.739,61.283 169.484,61.689 170.295 C 62.095 171.105,62.857 172.485,63.383 173.360 C 63.909 174.235,64.556 175.425,64.820 176.005 C 65.084 176.585,65.429 177.195,65.586 177.362 C 65.744 177.528,66.277 178.464,66.770 179.441 C 67.264 180.418,67.825 181.405,68.017 181.635 C 68.210 181.865,68.541 182.366,68.754 182.750 C 69.507 184.109,70.485 183.740,72.104 181.484 C 72.537 180.880,73.186 180.079,73.546 179.705 C 73.905 179.331,74.444 178.642,74.744 178.175 C 75.044 177.707,75.380 177.324,75.491 177.324 C 75.602 177.324,76.059 176.772,76.507 176.098 C 76.955 175.423,77.730 174.484,78.230 174.010 C 78.729 173.537,79.138 173.042,79.138 172.912 C 79.138 172.782,79.572 172.194,80.102 171.607 C 80.632 171.020,81.233 170.306,81.437 170.021 C 81.861 169.428,81.822 169.090,82.339 177.948 C 82.486 180.473,82.675 182.540,82.758 182.540 C 82.841 182.540,83.092 186.545,83.315 191.440 C 83.831 202.723,83.833 202.742,84.651 203.134 C 85.298 203.444,90.404 202.696,90.706 202.247 C 90.771 202.151,91.791 201.909,92.974 201.708 C 97.233 200.983,101.476 200.146,101.587 200.009 C 101.650 199.932,104.298 199.386,107.472 198.797 C 110.646 198.207,113.299 197.635,113.368 197.525 C 113.874 196.713,121.652 196.696,122.222 197.506 C 122.359 197.700,124.175 198.118,125.737 198.315 C 126.361 198.394,127.789 198.644,128.912 198.871 C 130.034 199.097,131.820 199.408,132.880 199.561 C 133.940 199.714,134.858 199.908,134.921 199.991 C 135.094 200.222,139.493 200.969,140.130 200.876 C 140.441 200.830,140.812 200.552,140.960 200.253 C 141.108 199.955,141.328 199.649,141.448 199.573 C 141.569 199.496,141.818 198.362,142.002 197.052 C 143.131 189.010,143.887 184.231,144.041 184.165 C 144.138 184.123,144.218 183.952,144.218 183.783 C 144.218 183.394,144.622 183.279,146.655 183.089 C 147.560 183.004,148.299 182.846,148.299 182.737 C 148.299 182.629,148.631 182.535,149.036 182.528 C 149.442 182.522,150.975 182.336,152.443 182.115 L 155.113 181.713 155.211 182.183 C 155.264 182.441,155.433 183.418,155.586 184.354 C 155.739 185.289,155.940 186.107,156.033 186.171 C 156.126 186.235,156.630 188.633,157.152 191.500 C 157.674 194.366,158.178 196.763,158.271 196.825 C 158.364 196.888,158.514 197.437,158.604 198.045 C 158.954 200.420,159.448 200.807,161.626 200.415 C 162.465 200.264,163.203 200.080,163.265 200.007 C 163.328 199.934,165.062 199.597,167.120 199.259 C 173.365 198.232,176.060 197.717,176.185 197.525 C 176.250 197.424,176.814 197.272,177.438 197.186 C 178.061 197.100,180.137 196.772,182.050 196.457 C 186.043 195.799,185.706 195.713,185.868 197.425 C 186.068 199.538,186.650 200.223,188.246 200.225 C 188.953 200.226,189.565 200.144,189.607 200.043 C 189.649 199.942,192.693 199.633,196.372 199.356 C 200.051 199.078,203.418 198.806,203.855 198.751 C 204.291 198.696,207.251 198.443,210.431 198.190 C 213.626 197.935,216.247 197.628,216.289 197.504 C 216.330 197.380,216.825 197.279,217.388 197.279 C 219.795 197.279,220.090 196.596,219.881 191.509 C 219.727 187.748,219.771 187.690,220.983 190.051 C 221.279 190.628,221.663 191.154,221.836 191.221 C 222.009 191.287,222.336 191.734,222.562 192.213 C 222.991 193.123,224.027 194.617,224.320 194.747 C 224.413 194.788,224.490 194.923,224.490 195.046 C 224.490 195.169,224.796 195.715,225.170 196.259 C 225.544 196.802,225.850 197.361,225.850 197.500 C 225.850 197.639,226.114 198.017,226.436 198.339 C 226.758 198.661,227.229 199.322,227.482 199.808 C 227.999 200.799,228.479 201.134,229.384 201.134 C 230.099 201.134,232.653 200.246,232.653 199.997 C 232.653 199.904,232.985 199.705,233.390 199.554 C 234.213 199.248,235.680 198.663,237.132 198.062 C 237.662 197.843,238.095 197.591,238.095 197.502 C 238.095 197.413,238.733 197.112,239.512 196.833 C 241.165 196.242,243.600 195.200,243.764 195.014 C 243.827 194.943,244.337 194.694,244.898 194.461 C 247.139 193.528,249.099 192.636,249.206 192.501 C 249.269 192.422,249.906 192.140,250.624 191.874 L 251.927 191.390 251.927 195.256 C 251.927 199.008,252.055 199.843,252.698 200.285 C 252.988 200.484,257.881 200.234,258.050 200.011 C 258.112 199.929,262.245 199.627,267.234 199.339 C 272.222 199.052,276.763 198.787,277.324 198.749 C 277.885 198.712,279.467 198.609,280.839 198.521 C 284.301 198.297,284.504 198.114,284.924 194.841 C 285.008 194.187,285.151 193.651,285.241 193.651 C 285.332 193.651,285.530 192.860,285.681 191.893 C 286.121 189.082,286.820 184.662,287.232 182.086 C 287.441 180.777,287.689 179.652,287.782 179.588 C 287.876 179.523,288.024 178.930,288.112 178.269 C 288.310 176.772,288.429 176.912,289.227 179.592 C 289.580 180.777,289.943 181.797,290.034 181.859 C 290.279 182.028,291.840 186.784,292.172 188.379 C 292.257 188.784,292.402 189.116,292.495 189.116 C 292.587 189.116,292.886 189.609,293.158 190.212 C 293.686 191.380,294.074 191.666,295.692 192.077 C 296.253 192.220,296.763 192.404,296.825 192.485 C 296.941 192.635,297.606 192.856,301.814 194.143 C 303.124 194.544,304.229 194.954,304.271 195.055 C 304.312 195.156,304.477 195.238,304.636 195.238 C 304.795 195.238,305.731 195.494,306.715 195.806 C 307.698 196.119,309.370 196.596,310.430 196.867 C 311.490 197.137,312.489 197.491,312.651 197.653 C 312.813 197.815,313.375 198.057,313.899 198.191 C 314.424 198.324,315.108 198.524,315.420 198.634 C 315.731 198.744,316.803 199.065,317.800 199.347 C 318.798 199.629,319.666 199.929,319.728 200.013 C 319.829 200.149,320.888 200.468,325.510 201.754 C 326.259 201.962,326.926 202.211,326.993 202.307 C 327.161 202.545,328.984 203.175,329.507 203.175 C 329.741 203.175,329.932 203.277,329.932 203.401 C 329.932 203.679,332.251 203.706,332.551 203.431 C 332.670 203.323,333.251 203.054,333.844 202.833 C 334.436 202.613,334.921 202.357,334.921 202.264 C 334.921 202.172,335.252 201.969,335.658 201.815 C 338.222 200.837,339.802 200.140,340.078 199.864 C 340.252 199.690,340.668 199.481,341.002 199.401 C 341.337 199.321,342.091 199.014,342.680 198.720 C 343.268 198.426,343.906 198.186,344.097 198.186 C 344.288 198.186,344.625 198.007,344.846 197.789 C 345.066 197.571,346.495 196.889,348.020 196.273 C 349.546 195.658,350.794 195.071,350.794 194.970 C 350.794 194.868,350.906 194.785,351.043 194.785 C 351.327 194.785,352.056 194.467,355.102 193.018 C 356.287 192.455,357.715 191.815,358.277 191.597 C 360.583 190.701,361.350 190.363,361.588 190.135 C 361.726 190.003,362.236 189.730,362.722 189.529 C 366.863 187.815,367.330 187.490,367.823 185.976 C 367.971 185.520,368.167 185.096,368.258 185.034 C 368.349 184.972,368.916 182.727,369.518 180.045 C 370.120 177.364,370.676 175.119,370.754 175.057 C 370.939 174.909,371.290 173.525,371.993 170.181 C 372.651 167.053,373.063 165.468,373.259 165.306 C 373.334 165.244,373.504 164.683,373.637 164.059 C 374.481 160.095,375.340 156.566,375.485 156.466 C 375.578 156.402,375.891 155.227,376.181 153.855 C 376.471 152.483,376.897 150.544,377.128 149.546 C 377.458 148.120,377.548 146.809,377.549 143.410 L 377.551 139.088 376.764 137.515 C 376.332 136.649,375.740 135.721,375.450 135.452 C 375.160 135.182,374.677 134.485,374.377 133.902 C 374.077 133.319,373.667 132.723,373.466 132.577 C 373.265 132.432,372.620 131.566,372.033 130.654 C 371.445 129.742,370.754 128.772,370.497 128.500 C 370.240 128.227,369.766 127.545,369.443 126.984 C 369.120 126.423,368.566 125.669,368.211 125.309 C 367.856 124.949,367.413 124.337,367.226 123.949 C 367.040 123.560,366.225 122.354,365.416 121.267 C 364.607 120.181,363.946 119.229,363.946 119.153 C 363.946 119.076,363.657 118.724,363.304 118.371 C 362.951 118.018,362.509 117.413,362.322 117.027 C 362.135 116.640,361.713 115.993,361.384 115.588 C 360.457 114.446,359.205 112.636,358.971 112.099 C 358.855 111.831,358.665 111.576,358.549 111.532 C 358.433 111.487,357.865 110.711,357.288 109.807 C 356.711 108.903,356.148 108.163,356.036 108.163 C 355.925 108.163,355.676 107.830,355.483 107.423 C 354.752 105.883,353.613 105.298,350.924 105.082 C 350.042 105.011,349.116 104.864,348.866 104.755 C 348.617 104.647,346.372 104.348,343.878 104.091 C 331.237 102.789,331.378 102.833,335.502 101.463 C 338.484 100.472,338.322 100.948,338.322 93.155 L 338.322 86.599 337.585 85.849 C 337.180 85.436,336.287 84.641,335.601 84.082 C 334.915 83.523,333.844 82.591,333.220 82.011 C 332.596 81.431,331.971 80.956,331.830 80.955 C 331.689 80.953,331.319 80.620,331.009 80.213 L 330.446 79.474 330.878 76.642 C 331.115 75.084,331.372 73.401,331.449 72.902 C 331.525 72.404,331.655 71.944,331.738 71.882 C 331.820 71.820,332.049 70.646,332.246 69.274 C 333.382 61.365,334.079 57.016,334.227 56.916 C 334.646 56.633,335.153 51.172,335.150 46.978 L 335.147 42.595 334.203 41.688 C 333.684 41.189,332.599 40.469,331.791 40.087 C 330.984 39.706,330.153 39.229,329.946 39.028 C 329.481 38.577,328.096 37.762,326.814 37.185 C 326.284 36.946,325.850 36.666,325.850 36.562 C 325.850 36.458,324.957 35.930,323.866 35.388 C 322.775 34.846,321.775 34.273,321.645 34.114 C 321.514 33.956,320.596 33.398,319.604 32.873 C 318.612 32.349,317.698 31.804,317.574 31.663 C 317.449 31.522,316.565 31.009,315.609 30.523 C 314.654 30.038,313.592 29.400,313.250 29.106 C 312.908 28.812,312.543 28.571,312.440 28.571 C 312.336 28.571,311.765 28.273,311.171 27.908 C 310.577 27.544,309.810 27.175,309.467 27.090 C 309.124 27.005,308.844 26.844,308.844 26.733 C 308.844 26.474,307.322 26.467,307.163 26.725 C 307.097 26.832,306.555 26.981,305.959 27.056 C 305.363 27.131,303.804 27.347,302.494 27.536 C 301.185 27.725,298.532 28.096,296.599 28.360 C 294.666 28.624,293.033 28.916,292.971 29.007 C 292.908 29.099,291.633 29.333,290.136 29.526 C 281.492 30.640,276.290 31.385,276.190 31.523 C 276.128 31.609,275.059 31.818,273.814 31.987 C 270.985 32.372,270.295 32.874,270.295 34.548 C 270.295 35.240,270.198 35.600,270.011 35.599 C 269.855 35.598,268.044 35.332,265.986 35.009 C 263.929 34.686,261.862 34.370,261.395 34.307 C 260.927 34.244,260.544 34.111,260.544 34.012 C 260.544 33.913,259.906 33.761,259.127 33.675 C 258.348 33.589,257.277 33.426,256.748 33.312 C 256.219 33.199,255.096 33.005,254.253 32.882 C 248.708 32.074,246.609 31.717,246.392 31.544 C 246.256 31.436,244.563 31.126,242.630 30.856 C 240.697 30.586,237.959 30.152,236.546 29.893 C 232.934 29.231,232.641 29.426,231.960 32.937 C 231.797 33.778,231.580 34.467,231.478 34.467 C 231.376 34.467,231.293 34.665,231.293 34.907 C 231.293 35.149,231.190 35.410,231.066 35.488 C 230.941 35.565,230.838 35.800,230.838 36.011 C 230.837 36.222,230.732 36.771,230.604 37.230 L 230.372 38.066 228.962 37.369 C 228.186 36.986,227.500 36.596,227.438 36.503 C 227.375 36.409,226.338 35.864,225.133 35.290 C 223.928 34.716,222.908 34.167,222.866 34.068 C 222.824 33.970,221.769 33.391,220.522 32.782 C 219.274 32.173,218.203 31.608,218.141 31.526 C 218.078 31.444,217.007 30.878,215.760 30.268 C 214.512 29.657,213.430 29.070,213.355 28.962 C 212.962 28.397,209.241 28.447,208.844 29.022 C 208.781 29.112,207.914 29.310,206.916 29.462 C 205.918 29.614,204.898 29.775,204.649 29.821 C 204.399 29.866,203.379 30.051,202.381 30.233 C 201.383 30.415,199.368 30.741,197.902 30.958 C 196.437 31.174,195.238 31.440,195.238 31.549 C 195.238 31.657,194.977 31.746,194.658 31.746 C 194.339 31.746,193.651 31.842,193.128 31.959 C 192.605 32.076,189.779 32.558,186.848 33.030 C 183.917 33.502,181.468 33.948,181.406 34.021 C 181.298 34.147,178.373 34.734,176.200 35.066 C 174.313 35.354,174.150 35.723,174.150 39.690 L 174.150 43.120 172.619 42.974 C 171.777 42.894,170.578 42.738,169.955 42.628 C 169.331 42.517,166.831 42.199,164.399 41.921 C 161.967 41.643,159.943 41.331,159.902 41.229 C 159.860 41.127,159.568 41.043,159.253 41.043 C 158.937 41.043,157.415 40.875,155.870 40.669 L 153.061 40.294 153.061 37.642 C 153.061 34.933,152.838 34.240,151.966 34.240 C 151.820 34.240,151.701 34.158,151.701 34.058 C 151.701 33.957,150.145 33.757,148.243 33.613 C 146.341 33.470,141.213 33.048,136.848 32.677 C 132.483 32.305,128.044 31.929,126.984 31.840 C 125.924 31.751,125.005 31.599,124.941 31.503 C 124.757 31.225,118.982 31.006,118.606 31.264 C 118.395 31.408,118.244 32.020,118.183 32.978 C 118.076 34.645,118.054 34.671,117.347 33.957 C 117.069 33.676,116.314 33.090,115.670 32.653 C 115.025 32.217,114.233 31.623,113.911 31.335 C 113.589 31.047,112.954 30.575,112.501 30.288 C 112.049 30.000,111.419 29.504,111.102 29.185 C 110.785 28.866,109.974 28.233,109.298 27.779 C 108.623 27.324,107.932 26.755,107.764 26.515 C 107.595 26.274,107.346 26.077,107.210 26.077 C 107.074 26.077,106.527 25.720,105.994 25.283 C 105.462 24.847,104.864 24.490,104.667 24.490 C 104.470 24.490,104.308 24.337,104.308 24.150 C 104.308 23.771,101.436 23.674,100.567 24.024 M103.680 30.558 C 104.394 31.024,107.047 33.010,109.576 34.971 C 113.428 37.959,119.206 42.427,120.566 43.472 C 121.032 43.829,120.662 44.797,119.711 45.707 C 119.346 46.057,119.048 46.425,119.048 46.525 C 119.048 46.625,118.900 46.887,118.719 47.106 C 118.539 47.326,117.251 48.934,115.858 50.680 C 111.410 56.255,112.217 56.038,107.710 52.879 C 105.901 51.611,103.299 49.813,101.927 48.882 C 100.556 47.951,98.386 46.470,97.106 45.590 C 94.406 43.735,94.316 43.715,93.743 44.841 C 93.303 45.707,91.994 47.825,90.451 50.167 C 89.526 51.571,89.556 51.775,90.777 52.415 C 91.048 52.557,94.713 54.955,98.922 57.743 C 103.131 60.531,106.612 62.812,106.659 62.812 C 106.748 62.812,113.343 67.170,116.510 69.321 C 119.030 71.034,119.046 71.074,118.048 73.258 C 117.600 74.237,117.233 75.120,117.232 75.218 C 117.231 75.316,116.822 76.243,116.325 77.277 C 115.827 78.312,115.420 79.258,115.420 79.381 C 115.420 79.503,115.060 80.317,114.621 81.189 C 114.182 82.061,113.613 83.309,113.357 83.961 C 113.102 84.614,112.601 85.760,112.246 86.508 C 111.074 88.972,109.751 92.115,109.751 92.432 C 109.751 92.604,109.649 92.744,109.524 92.744 C 109.399 92.744,109.297 92.881,109.297 93.049 C 109.297 94.258,109.757 94.221,91.950 94.446 L 79.252 94.607 74.134 90.217 C 71.319 87.803,68.721 85.598,68.359 85.318 C 66.168 83.616,61.908 79.871,61.791 79.544 C 61.600 79.006,61.892 78.524,64.379 75.283 C 65.576 73.724,66.942 71.888,67.416 71.202 C 68.638 69.431,71.392 65.922,71.717 65.721 C 72.039 65.522,72.672 65.905,74.373 67.327 C 75.057 67.899,75.720 68.444,75.847 68.538 C 76.294 68.869,82.664 74.217,83.447 74.919 C 86.114 77.308,88.491 79.165,88.752 79.065 C 89.054 78.950,94.779 71.450,94.783 71.166 C 94.785 71.006,92.250 69.303,90.930 68.577 C 90.493 68.337,90.102 68.064,90.060 67.971 C 90.019 67.877,89.899 67.800,89.795 67.800 C 89.690 67.800,88.499 67.119,87.149 66.285 C 85.799 65.452,84.184 64.480,83.560 64.126 C 82.937 63.771,81.501 62.889,80.370 62.166 C 79.238 61.443,77.708 60.506,76.968 60.085 C 76.229 59.664,74.807 58.797,73.810 58.158 C 72.812 57.519,71.689 56.842,71.315 56.652 C 70.941 56.462,69.326 55.475,67.726 54.457 C 66.126 53.440,64.730 52.608,64.623 52.608 C 63.909 52.608,64.225 51.567,65.516 49.666 C 66.274 48.551,66.893 47.589,66.893 47.529 C 66.893 47.469,67.963 45.879,69.271 43.995 C 70.579 42.112,71.767 40.346,71.911 40.070 C 72.649 38.658,77.237 32.357,77.645 32.196 C 78.448 31.879,81.068 31.556,86.735 31.075 C 89.728 30.821,93.707 30.460,95.578 30.274 C 102.585 29.575,102.151 29.560,103.680 30.558 M308.617 33.011 C 309.303 33.330,310.731 34.134,311.791 34.796 C 312.851 35.459,316.168 37.429,319.161 39.176 C 322.154 40.922,325.522 42.917,326.644 43.610 L 328.685 44.869 328.653 46.304 C 328.636 47.092,328.412 48.910,328.156 50.343 C 327.688 52.966,327.360 54.892,326.074 62.585 C 325.245 67.550,325.355 67.347,322.569 69.058 C 321.361 69.801,320.043 70.612,319.640 70.862 C 319.237 71.111,318.075 71.825,317.058 72.449 C 316.041 73.073,315.205 73.696,315.201 73.836 C 315.193 74.072,316.582 75.291,324.686 82.160 C 330.474 87.065,331.293 87.802,331.293 88.105 C 331.293 88.415,329.645 89.255,327.324 90.127 C 326.576 90.408,323.209 91.819,319.841 93.263 C 313.428 96.011,312.745 96.258,312.331 95.977 C 312.192 95.883,311.235 94.478,310.206 92.857 C 309.177 91.236,308.015 89.450,307.625 88.889 C 307.235 88.328,306.814 87.701,306.689 87.496 C 304.020 83.105,298.918 75.510,298.638 75.510 C 298.189 75.510,298.170 76.356,298.424 85.281 C 298.590 91.104,298.609 94.679,298.476 94.812 C 298.233 95.055,296.505 95.249,288.690 95.912 C 282.386 96.446,282.664 96.509,282.465 94.501 C 282.388 93.721,282.169 91.451,281.977 89.456 C 281.786 87.460,281.580 85.573,281.521 85.261 C 281.461 84.949,281.158 82.041,280.847 78.798 C 280.537 75.556,280.174 72.035,280.043 70.975 C 278.769 60.742,278.613 56.928,279.307 52.948 C 282.184 36.439,282.227 37.901,278.855 37.513 C 277.724 37.383,276.973 36.961,277.871 36.961 C 278.047 36.961,279.552 36.751,281.215 36.495 C 285.752 35.795,290.816 35.023,295.125 34.374 C 297.245 34.054,300.765 33.498,302.948 33.138 C 305.130 32.778,307.018 32.471,307.143 32.457 C 307.268 32.442,307.931 32.692,308.617 33.011 M215.912 36.714 C 218.198 37.950,220.782 39.365,221.655 39.859 C 222.528 40.353,224.467 41.396,225.964 42.178 C 229.675 44.116,232.099 45.523,232.448 45.944 C 232.748 46.306,232.692 46.852,231.633 53.855 C 231.444 55.102,231.234 56.582,231.166 57.143 C 231.098 57.704,230.994 58.418,230.936 58.730 C 230.878 59.042,230.735 59.960,230.618 60.771 C 229.547 68.202,230.315 66.828,223.671 73.196 C 217.202 79.396,218.593 78.775,210.091 79.261 C 206.224 79.482,202.975 79.738,202.870 79.830 C 202.765 79.922,202.791 81.717,202.928 83.819 C 203.534 93.119,203.552 93.817,203.206 94.164 C 202.886 94.483,202.874 94.485,197.732 94.916 C 196.922 94.984,195.901 95.085,195.465 95.142 C 192.633 95.508,187.940 95.888,187.647 95.776 C 187.248 95.623,187.188 95.394,186.848 92.744 C 186.219 87.839,185.951 85.686,185.829 84.556 C 185.527 81.764,184.340 71.862,184.106 70.181 C 183.824 68.153,183.786 67.845,183.374 64.190 C 183.115 61.894,183.127 61.326,183.476 59.201 C 184.005 55.987,185.461 47.212,185.598 46.415 C 185.788 45.317,184.978 44.762,182.907 44.568 C 180.887 44.378,180.885 44.376,180.641 41.924 C 180.466 40.152,180.799 39.783,182.766 39.569 C 182.954 39.549,183.362 39.471,183.673 39.397 C 183.985 39.322,185.771 38.990,187.642 38.659 C 189.512 38.328,192.012 37.868,193.197 37.636 C 194.382 37.404,195.835 37.155,196.426 37.082 C 197.016 37.009,197.629 36.901,197.786 36.842 C 197.944 36.783,200.317 36.326,203.061 35.828 C 205.805 35.330,208.407 34.830,208.844 34.718 C 210.964 34.172,211.480 34.317,215.912 36.714 M240.846 36.277 C 242.513 36.524,244.286 36.830,244.785 36.957 C 245.283 37.083,246.304 37.284,247.052 37.403 C 250.752 37.990,259.246 39.467,259.376 39.547 C 259.457 39.597,259.881 39.695,260.317 39.765 C 260.754 39.835,263.050 40.203,265.420 40.584 C 269.193 41.189,271.949 41.649,274.555 42.108 C 275.673 42.305,275.774 42.721,275.289 45.146 C 275.055 46.319,274.486 49.524,274.026 52.268 C 273.226 57.030,273.054 57.612,272.475 57.497 C 272.088 57.419,264.061 55.000,263.039 54.653 C 262.727 54.547,261.502 54.185,260.317 53.849 C 259.133 53.513,257.959 53.148,257.710 53.037 C 256.403 52.460,253.199 51.699,252.983 51.915 C 252.855 52.043,252.565 52.838,252.339 53.682 C 252.113 54.525,251.610 56.389,251.222 57.823 C 250.834 59.257,250.467 60.645,250.408 60.907 C 250.273 61.504,252.720 61.672,261.824 61.693 C 266.096 61.702,267.857 61.783,268.128 61.981 C 268.516 62.264,268.182 66.686,267.578 69.281 C 267.461 69.783,267.299 70.957,267.218 71.889 C 267.047 73.849,266.872 74.150,265.902 74.150 C 264.655 74.150,254.304 72.627,250.571 71.894 C 249.196 71.624,249.142 71.695,249.325 73.552 C 249.521 75.551,250.500 81.794,250.656 82.046 C 250.778 82.244,253.741 81.887,257.823 81.184 C 262.849 80.318,272.191 79.130,272.392 79.331 C 272.519 79.458,273.016 82.247,273.496 85.529 C 273.977 88.811,274.490 92.288,274.636 93.256 C 274.782 94.224,274.841 95.076,274.767 95.150 C 274.625 95.292,269.156 95.280,268.234 95.135 C 267.933 95.088,264.983 94.987,261.678 94.910 C 258.373 94.834,254.802 94.726,253.741 94.670 C 248.406 94.390,246.531 94.307,243.197 94.204 C 241.202 94.142,238.957 94.049,238.209 93.997 C 237.460 93.945,235.656 93.897,234.200 93.890 C 230.941 93.875,231.013 93.936,230.511 90.774 C 230.067 87.977,230.076 88.033,229.624 85.601 C 229.124 82.912,228.345 77.480,228.345 76.688 C 228.345 76.097,228.757 75.608,231.186 73.316 C 234.945 69.768,234.753 70.174,235.597 64.017 C 236.267 59.130,236.502 57.542,237.318 52.381 C 238.805 42.981,238.810 43.077,236.810 41.948 C 235.435 41.172,235.441 41.198,236.060 38.700 C 236.878 35.397,236.432 35.623,240.846 36.277 M127.103 37.410 C 128.098 37.532,131.259 37.845,134.127 38.105 C 144.855 39.079,146.109 39.216,146.334 39.441 C 146.575 39.681,146.304 42.336,145.675 45.918 C 145.499 46.916,145.198 48.804,145.005 50.113 C 144.812 51.423,144.506 53.311,144.326 54.308 C 144.146 55.306,143.736 57.755,143.416 59.751 C 143.096 61.746,142.783 63.679,142.721 64.046 C 140.612 76.525,140.549 77.309,141.667 77.192 C 142.134 77.144,144.456 77.000,146.825 76.874 C 149.195 76.747,152.603 76.524,154.399 76.378 L 157.665 76.112 157.507 71.786 C 157.420 69.407,157.259 65.624,157.149 63.379 C 156.409 48.236,156.376 47.162,156.640 46.897 C 156.938 46.599,158.367 46.731,165.646 47.729 C 168.016 48.054,171.077 48.460,172.449 48.632 C 180.366 49.625,179.743 49.172,179.002 53.401 C 178.696 55.147,178.293 57.545,178.106 58.730 C 177.918 59.915,177.408 62.976,176.972 65.533 C 176.535 68.090,175.921 71.712,175.606 73.583 C 173.939 83.488,174.186 82.640,172.379 84.662 C 171.794 85.316,170.703 86.556,169.955 87.416 C 165.105 92.991,163.463 94.737,162.991 94.822 C 162.705 94.873,156.298 94.777,148.753 94.608 L 135.034 94.301 134.127 93.757 C 133.628 93.457,132.746 92.775,132.167 92.241 C 131.588 91.707,128.807 89.193,125.988 86.654 L 120.862 82.039 120.862 81.039 C 120.862 80.307,121.222 79.234,122.205 77.037 C 124.681 71.504,124.794 71.075,124.276 69.190 C 124.006 68.206,122.976 67.019,122.170 66.764 C 121.674 66.606,121.674 66.356,122.184 57.370 L 122.563 50.680 124.172 48.639 C 127.868 43.952,127.966 42.340,124.698 39.947 C 121.970 37.949,122.963 36.902,127.103 37.410 M297.407 53.571 C 297.493 57.095,297.627 61.457,297.704 63.265 L 297.846 66.553 298.866 66.477 C 299.427 66.436,301.666 66.104,303.841 65.740 C 306.016 65.377,308.028 65.079,308.312 65.079 C 309.008 65.079,309.195 64.639,309.517 62.245 C 309.667 61.122,310.085 58.378,310.445 56.147 C 311.159 51.714,311.163 51.816,310.263 51.602 C 309.674 51.462,304.592 49.689,299.773 47.941 C 298.588 47.512,297.536 47.162,297.435 47.163 C 297.333 47.164,297.321 50.048,297.407 53.571 M200.883 48.692 C 200.811 49.206,200.954 52.559,201.131 54.535 C 201.243 55.782,201.399 57.976,201.478 59.410 C 201.742 64.200,201.958 67.113,202.057 67.206 C 202.110 67.257,203.430 67.064,204.989 66.778 C 206.548 66.491,208.180 66.202,208.617 66.134 C 210.620 65.822,212.967 65.340,213.092 65.215 C 213.223 65.084,214.505 57.294,214.832 54.640 L 214.987 53.384 214.126 53.027 C 213.653 52.831,211.786 52.184,209.977 51.589 C 208.169 50.994,205.669 50.129,204.422 49.666 C 201.789 48.689,200.917 48.449,200.883 48.692 M52.834 101.922 C 54.019 102.097,55.550 102.297,56.236 102.368 C 56.922 102.439,57.738 102.547,58.050 102.608 C 58.362 102.669,59.127 102.776,59.751 102.845 C 60.374 102.914,61.139 103.009,61.451 103.055 C 61.763 103.101,62.579 103.210,63.265 103.296 C 65.568 103.587,65.363 103.256,67.976 110.915 C 69.269 114.702,70.514 118.413,70.744 119.161 C 71.818 122.654,73.885 128.446,74.082 128.511 C 74.203 128.551,74.774 127.637,75.351 126.480 C 75.928 125.323,77.512 122.234,78.870 119.615 C 80.229 116.995,82.337 112.914,83.555 110.544 C 86.547 104.725,86.427 104.813,90.277 105.562 C 90.573 105.620,91.582 105.766,92.517 105.887 C 93.452 106.008,95.391 106.267,96.825 106.462 C 98.260 106.656,99.892 106.869,100.454 106.933 C 101.015 106.998,101.650 107.103,101.865 107.167 C 102.080 107.231,102.693 107.320,103.226 107.366 C 106.491 107.645,106.336 107.440,107.357 112.842 C 107.661 114.447,108.737 119.790,109.748 124.717 C 110.760 129.643,111.781 134.694,112.018 135.941 C 112.255 137.188,113.277 142.239,114.288 147.166 C 115.299 152.092,116.377 157.449,116.685 159.070 C 116.993 160.692,117.295 162.182,117.357 162.382 C 117.419 162.582,117.616 163.551,117.795 164.536 C 117.973 165.521,118.413 167.704,118.773 169.388 C 120.898 179.335,120.920 179.620,119.602 179.932 C 118.481 180.198,111.014 181.786,110.145 181.943 C 109.801 182.006,109.342 182.108,109.125 182.170 C 108.908 182.232,108.227 182.346,107.612 182.423 C 106.997 182.500,106.425 182.606,106.340 182.659 C 106.255 182.711,105.840 182.808,105.417 182.873 C 104.994 182.938,103.322 183.290,101.701 183.654 C 100.079 184.018,98.447 184.370,98.073 184.435 C 97.698 184.500,97.137 184.612,96.825 184.683 C 96.514 184.754,96.003 184.859,95.692 184.917 C 95.380 184.974,94.164 185.218,92.989 185.460 C 89.823 186.110,90.135 186.704,89.694 179.195 C 89.214 171.020,88.912 166.163,88.656 162.472 C 88.535 160.726,88.333 157.256,88.206 154.762 C 88.080 152.268,87.931 149.563,87.875 148.753 C 87.818 147.942,87.706 146.261,87.625 145.017 L 87.478 142.754 86.486 143.883 C 85.502 145.002,81.588 149.771,77.664 154.631 C 71.857 161.824,70.887 162.925,70.543 162.711 C 70.336 162.584,68.950 160.295,67.857 158.277 C 67.485 157.591,65.673 154.325,63.830 151.020 C 61.987 147.715,60.125 144.348,59.693 143.537 C 58.506 141.312,57.823 141.091,57.823 142.932 C 57.823 143.081,57.618 143.763,57.367 144.448 C 57.116 145.132,56.550 146.967,56.110 148.526 C 55.670 150.085,55.220 151.565,55.109 151.814 C 54.852 152.395,53.374 157.212,53.162 158.163 C 53.134 158.288,52.906 159.002,52.655 159.751 C 52.403 160.499,51.822 162.387,51.363 163.946 C 50.905 165.505,50.021 168.413,49.399 170.408 C 47.290 177.181,46.314 180.383,46.029 181.466 C 45.592 183.124,45.425 183.102,39.655 180.605 C 36.864 179.398,33.866 178.126,32.993 177.779 C 31.565 177.212,23.835 173.920,19.525 172.043 C 17.441 171.135,17.228 170.842,17.719 169.558 C 18.405 167.763,19.965 164.067,20.642 162.632 C 21.012 161.846,21.315 161.147,21.315 161.076 C 21.315 160.916,25.198 151.861,26.094 149.933 C 26.459 149.148,26.757 148.415,26.757 148.305 C 26.757 148.195,27.053 147.459,27.415 146.671 C 27.777 145.883,28.526 144.167,29.081 142.857 C 31.827 136.376,34.109 131.021,34.733 129.592 C 35.114 128.719,35.863 126.984,36.397 125.737 C 36.931 124.490,38.053 121.888,38.889 119.955 C 39.725 118.022,40.745 115.624,41.154 114.626 C 41.564 113.628,42.586 111.230,43.425 109.297 C 44.265 107.364,45.235 105.109,45.582 104.286 C 45.928 103.462,46.385 102.454,46.597 102.044 L 46.982 101.299 48.831 101.452 C 49.848 101.537,51.650 101.748,52.834 101.922 M227.223 102.977 C 228.526 103.741,230.714 105.033,232.086 105.848 C 234.198 107.102,242.513 111.932,245.125 113.422 C 248.885 115.568,253.575 118.488,253.674 118.746 C 253.836 119.168,253.347 121.953,250.910 134.467 C 250.339 137.398,249.673 140.918,249.429 142.288 C 248.863 145.475,248.885 145.450,244.444 148.002 C 242.387 149.184,239.734 150.729,238.549 151.435 C 237.364 152.142,236.139 152.850,235.828 153.010 C 233.998 153.948,233.961 153.845,237.023 156.349 C 240.595 159.271,240.397 159.107,242.538 160.919 C 243.548 161.773,246.549 164.257,249.207 166.440 C 257.039 172.870,256.728 172.387,253.880 173.688 C 252.058 174.521,244.755 177.784,243.401 178.370 C 243.013 178.538,240.311 179.748,237.394 181.061 C 234.478 182.373,231.876 183.447,231.614 183.447 C 230.961 183.447,230.780 183.218,227.562 178.326 C 226.009 175.967,224.632 173.913,224.501 173.762 C 224.370 173.612,224.263 173.428,224.263 173.354 C 224.263 173.279,223.661 172.331,222.925 171.247 C 221.642 169.356,218.264 164.205,214.755 158.787 C 212.753 155.695,212.016 155.329,212.021 157.426 C 212.025 158.837,212.414 169.077,212.575 171.995 C 212.637 173.118,212.752 175.634,212.829 177.587 L 212.971 181.139 212.417 181.501 C 211.884 181.851,198.612 183.143,198.197 182.886 C 198.110 182.833,197.909 182.350,197.751 181.814 C 197.592 181.278,197.222 180.176,196.928 179.365 C 196.634 178.554,196.041 176.871,195.610 175.624 C 195.179 174.376,194.411 172.183,193.905 170.748 C 193.398 169.314,192.007 165.345,190.814 161.929 L 188.645 155.717 188.198 151.271 C 187.951 148.826,187.648 146.111,187.522 145.238 C 187.278 143.533,186.516 137.021,185.597 128.798 C 185.284 125.992,184.881 122.574,184.701 121.202 C 184.522 119.830,184.311 118.044,184.232 117.234 C 184.154 116.423,183.898 114.230,183.664 112.362 C 183.090 107.784,182.876 108.076,187.302 107.380 C 191.599 106.704,196.754 105.871,198.639 105.548 C 199.700 105.367,201.893 105.010,203.515 104.755 C 205.136 104.500,207.687 104.097,209.184 103.860 C 211.993 103.416,217.259 102.543,220.635 101.962 C 224.187 101.350,224.543 101.404,227.223 102.977 M264.800 104.087 C 266.014 104.340,267.163 104.633,267.354 104.739 C 267.546 104.845,268.056 105.002,268.488 105.088 C 269.952 105.380,275.162 106.574,276.531 106.931 C 277.279 107.126,280.187 107.795,282.993 108.418 C 285.799 109.042,288.248 109.632,288.435 109.730 C 288.622 109.827,289.306 110.034,289.955 110.189 C 291.400 110.534,291.689 110.855,291.551 111.957 C 291.315 113.841,290.213 120.543,290.087 120.862 C 290.013 121.049,289.460 124.008,288.859 127.438 C 288.257 130.867,287.707 133.980,287.636 134.354 C 287.564 134.728,287.470 135.238,287.425 135.488 C 287.381 135.737,287.125 137.166,286.856 138.662 C 286.587 140.159,286.168 142.659,285.924 144.218 C 285.681 145.777,285.390 147.358,285.277 147.732 C 285.163 148.107,285.004 148.907,284.922 149.510 C 284.840 150.114,284.724 150.828,284.664 151.098 C 284.604 151.367,284.509 151.893,284.454 152.268 C 284.148 154.344,282.769 162.172,282.684 162.309 C 282.629 162.399,282.525 162.849,282.452 163.309 C 281.845 167.146,280.267 176.242,280.186 176.373 C 280.130 176.464,279.975 177.301,279.841 178.235 C 279.321 181.861,279.168 182.247,278.185 182.422 C 277.040 182.625,275.487 182.752,268.481 183.212 C 264.926 183.446,261.483 183.697,260.829 183.770 C 259.301 183.942,258.714 183.467,258.833 182.155 C 258.876 181.681,258.921 180.616,258.934 179.790 L 258.957 178.287 260.261 177.660 C 260.978 177.316,261.820 176.917,262.132 176.775 C 263.169 176.301,264.117 171.606,263.426 170.364 C 263.149 169.866,261.391 168.254,261.124 168.254 C 261.046 168.254,260.618 167.889,260.172 167.444 L 259.362 166.634 259.496 163.986 C 259.570 162.529,259.684 159.654,259.750 157.596 C 259.948 151.420,260.217 144.218,260.432 139.342 C 260.482 138.220,260.585 135.006,260.661 132.200 C 260.738 129.393,260.840 126.587,260.889 125.964 C 260.970 124.938,261.067 122.989,261.340 116.893 C 261.391 115.771,261.499 112.557,261.580 109.751 C 261.690 105.956,261.810 104.518,262.048 104.138 C 262.433 103.526,262.129 103.532,264.800 104.087 M133.575 105.206 C 134.253 105.326,135.522 105.481,136.395 105.552 C 137.268 105.623,138.390 105.728,138.889 105.785 C 139.388 105.842,140.306 105.943,140.930 106.009 C 141.553 106.075,142.931 106.225,143.991 106.342 C 145.051 106.459,148.367 106.766,151.361 107.022 C 154.354 107.279,157.415 107.588,158.163 107.708 C 158.912 107.828,160.187 107.986,160.998 108.059 C 166.033 108.512,165.333 107.672,168.486 117.040 C 169.139 118.979,169.706 120.549,170.072 121.429 C 170.176 121.678,170.749 123.311,171.345 125.057 C 171.942 126.803,172.561 128.486,172.722 128.798 C 172.882 129.110,173.014 129.522,173.014 129.714 C 173.015 129.906,173.489 131.385,174.068 133.002 C 174.646 134.618,175.610 137.370,176.210 139.116 C 176.809 140.862,177.857 143.872,178.539 145.805 C 179.220 147.738,180.005 149.983,180.284 150.794 C 180.562 151.604,181.326 153.798,181.980 155.669 C 182.635 157.540,183.501 160.091,183.906 161.338 C 184.310 162.585,184.719 163.707,184.814 163.832 C 184.910 163.957,185.299 165.028,185.680 166.213 C 186.801 169.705,189.319 176.943,189.598 177.479 C 190.246 178.722,190.192 178.741,180.726 180.461 C 178.668 180.835,175.454 181.450,173.583 181.828 C 167.105 183.136,165.061 183.453,164.623 183.218 C 163.984 182.876,164.002 182.954,160.908 167.676 C 160.321 164.777,160.234 164.586,159.567 164.736 C 158.369 165.006,157.584 165.147,155.669 165.438 C 152.346 165.943,150.598 166.198,147.959 166.563 C 146.587 166.753,145.312 166.951,145.125 167.003 C 144.938 167.055,144.325 167.157,143.764 167.229 C 143.203 167.301,141.805 167.530,140.658 167.737 L 138.573 168.114 138.334 169.148 C 138.023 170.493,137.064 176.106,136.628 179.138 C 135.890 184.271,136.245 184.112,128.847 182.629 C 127.988 182.457,127.736 182.087,127.577 180.764 C 127.514 180.242,127.404 179.721,127.332 179.605 C 127.261 179.489,126.746 177.015,126.189 174.108 C 125.631 171.200,125.077 168.515,124.957 168.141 C 124.837 167.766,124.425 165.726,124.040 163.605 C 123.656 161.485,122.992 158.169,122.565 156.236 C 122.138 154.303,121.529 151.293,121.213 149.546 C 120.896 147.800,120.448 145.586,120.217 144.626 C 119.985 143.666,119.865 142.798,119.950 142.699 C 120.035 142.599,120.437 141.293,120.843 139.796 C 121.249 138.299,121.920 135.952,122.334 134.580 C 123.205 131.696,123.599 130.299,124.255 127.778 C 124.515 126.780,124.822 125.760,124.938 125.510 C 125.055 125.261,125.605 123.424,126.162 121.429 C 126.719 119.433,127.287 117.494,127.425 117.120 C 127.563 116.746,128.123 114.807,128.669 112.812 C 130.995 104.317,130.744 104.706,133.575 105.206 M316.106 107.359 C 317.544 107.539,318.870 107.734,319.054 107.794 C 319.238 107.854,320.000 107.958,320.748 108.025 C 321.497 108.093,323.282 108.298,324.717 108.481 C 326.151 108.665,329.263 109.031,331.633 109.296 C 334.002 109.560,337.012 109.922,338.322 110.099 C 339.632 110.277,341.264 110.480,341.950 110.550 C 342.636 110.621,343.435 110.729,343.725 110.790 C 344.015 110.851,345.443 111.042,346.899 111.214 C 350.304 111.615,350.580 111.736,351.680 113.310 C 352.186 114.034,353.152 115.391,353.826 116.327 C 354.500 117.262,355.443 118.588,355.921 119.274 C 356.400 119.960,357.792 121.925,359.015 123.641 C 360.237 125.357,361.546 127.193,361.922 127.723 C 362.299 128.252,362.958 129.195,363.386 129.819 C 363.814 130.442,364.936 132.024,365.879 133.333 C 368.592 137.101,370.295 139.703,370.295 140.080 C 370.295 140.532,367.900 150.370,367.466 151.701 C 367.283 152.262,367.086 152.976,367.028 153.288 C 366.863 154.175,366.014 157.625,365.075 161.224 C 364.603 163.033,363.945 165.635,363.613 167.007 C 362.216 172.781,362.056 173.101,360.127 173.971 C 359.296 174.345,357.769 175.049,356.733 175.534 C 355.696 176.020,354.791 176.417,354.720 176.417 C 354.649 176.417,353.966 176.735,353.203 177.123 C 352.439 177.511,351.304 178.029,350.680 178.273 C 350.057 178.517,348.730 179.112,347.732 179.594 C 343.805 181.491,332.145 186.735,331.358 186.958 C 331.046 187.046,329.675 186.710,327.726 186.067 C 326.004 185.499,324.439 185.034,324.248 185.034 C 324.057 185.034,323.803 184.944,323.685 184.835 C 323.566 184.725,322.194 184.251,320.635 183.782 C 319.076 183.313,316.984 182.642,315.986 182.290 C 314.989 181.939,311.264 180.721,307.710 179.584 C 304.155 178.446,301.043 177.426,300.794 177.317 C 300.544 177.207,299.961 176.967,299.498 176.783 C 298.503 176.386,298.183 175.781,296.841 171.769 C 295.239 166.975,293.700 162.492,293.417 161.791 C 290.953 155.702,290.495 153.683,291.001 151.134 C 291.199 150.136,291.733 147.024,292.187 144.218 C 292.642 141.412,293.101 138.912,293.208 138.662 C 293.314 138.413,293.506 137.545,293.634 136.735 C 294.940 128.442,294.971 128.301,295.684 127.400 C 296.062 126.922,296.704 126.099,297.109 125.572 C 297.514 125.046,297.982 124.469,298.148 124.291 C 298.314 124.113,298.869 123.396,299.381 122.698 C 300.321 121.418,304.675 115.921,305.415 115.079 C 305.635 114.830,306.359 113.912,307.026 113.039 C 312.173 106.296,311.410 106.773,316.106 107.359 M210.950 126.134 C 211.341 139.191,211.646 144.444,212.013 144.444 C 212.498 144.444,224.939 141.540,225.527 141.290 C 226.028 141.076,226.239 140.031,226.767 135.147 C 227.144 131.665,227.683 127.361,227.806 126.854 C 227.999 126.060,227.136 125.719,220.975 124.160 C 219.853 123.876,217.218 123.171,215.121 122.593 C 213.024 122.015,211.197 121.542,211.061 121.542 C 210.885 121.542,210.853 122.880,210.950 126.134 M145.260 127.696 C 145.207 127.866,145.102 128.413,145.026 128.912 C 144.530 132.202,143.267 139.870,142.972 141.383 C 142.469 143.966,141.849 148.275,141.965 148.383 C 142.019 148.432,144.921 148.552,148.413 148.649 C 157.743 148.906,157.043 148.916,156.940 148.526 C 156.891 148.339,156.347 145.737,155.731 142.744 C 155.116 139.751,154.527 136.944,154.421 136.508 C 154.316 136.071,153.884 133.980,153.461 131.859 L 152.692 128.005 151.516 127.859 C 148.320 127.464,145.356 127.387,145.260 127.696 M323.282 133.050 C 323.226 133.143,322.772 133.985,322.272 134.921 C 321.772 135.856,320.786 137.578,320.080 138.747 C 318.761 140.933,315.839 145.950,315.139 147.231 L 314.745 147.951 315.955 149.202 C 316.621 149.891,319.341 152.749,321.999 155.556 C 324.658 158.362,326.921 160.693,327.028 160.735 C 327.284 160.837,341.367 153.836,341.659 153.462 C 341.809 153.270,341.749 152.048,341.476 149.773 C 341.252 147.902,340.854 144.443,340.592 142.085 C 340.022 136.968,340.116 137.180,338.173 136.659 C 337.320 136.431,336.111 136.089,335.488 135.899 C 334.864 135.709,332.619 135.109,330.499 134.565 C 328.379 134.020,326.083 133.420,325.397 133.230 C 324.007 132.846,323.432 132.797,323.282 133.050 M373.967 183.957 L 374.036 184.921 375.567 184.988 L 377.098 185.055 377.098 189.239 L 377.098 193.424 378.118 193.424 L 379.138 193.424 379.138 189.229 L 379.138 185.034 380.215 185.031 C 382.047 185.026,382.313 184.879,382.313 183.874 L 382.313 182.993 378.105 182.993 L 373.897 182.993 373.967 183.957 M382.993 188.222 L 382.993 193.451 383.844 193.381 L 384.694 193.311 384.758 190.751 C 384.829 187.924,384.942 187.840,385.898 189.909 C 386.693 191.628,386.753 191.717,387.174 191.800 C 387.724 191.908,388.662 191.644,388.662 191.381 C 388.662 191.260,388.994 190.420,389.399 189.514 L 390.136 187.868 390.249 190.590 L 390.363 193.311 391.331 193.381 L 392.299 193.451 392.238 188.279 L 392.177 183.107 391.383 183.051 C 390.947 183.020,390.432 183.122,390.239 183.278 C 389.914 183.539,388.209 187.247,388.209 187.692 C 388.209 187.801,388.034 188.104,387.822 188.367 C 387.416 188.866,386.990 188.146,385.829 185.000 C 385.348 183.697,384.617 182.993,383.746 182.993 L 382.993 182.993 382.993 188.222 " stroke="none" fill="#542c04" fill-rule="evenodd"></path></g></svg>