<svg id="svg" version="1.1" xmlns="http://www.w3.org/2000/svg" xmlns:xlink="http://www.w3.org/1999/xlink" width="400" height="266.6666666666667" viewBox="0, 0, 400,266.6666666666667"><g id="svgg"><path id="path0" d="M146.584 23.105 C 142.472 23.550,136.923 25.037,135.349 26.114 C 134.754 26.522,133.406 27.428,132.354 28.127 C 131.185 28.905,130.382 29.636,130.288 30.009 C 130.204 30.345,129.726 31.041,129.225 31.556 C 128.725 32.071,128.227 32.770,128.120 33.110 C 128.012 33.449,127.648 34.148,127.311 34.663 C 126.733 35.546,126.296 36.945,125.016 42.000 C 124.394 44.454,124.578 46.274,125.734 49.120 C 126.362 50.665,129.144 54.667,129.590 54.667 C 129.714 54.667,130.319 55.087,130.933 55.600 C 131.548 56.113,132.194 56.533,132.369 56.533 C 132.544 56.533,133.512 56.963,134.519 57.488 C 135.526 58.013,137.063 58.558,137.933 58.698 C 138.804 58.838,140.015 59.142,140.625 59.374 C 141.234 59.605,142.213 59.848,142.800 59.913 C 143.387 59.978,145.427 60.209,147.333 60.428 C 156.955 61.530,157.243 61.525,166.266 60.081 C 169.323 59.592,172.305 58.627,173.467 57.751 C 173.907 57.420,174.586 56.980,174.975 56.774 C 176.988 55.712,180.661 51.335,181.332 49.200 C 181.516 48.613,181.880 47.653,182.141 47.067 C 182.977 45.184,183.329 39.591,182.799 36.611 C 182.443 34.611,177.675 28.533,176.463 28.533 C 175.919 28.533,174.889 28.055,174.649 27.691 C 174.567 27.565,173.875 27.242,173.112 26.973 C 172.349 26.705,171.441 26.219,171.095 25.893 C 170.689 25.512,169.909 25.219,168.900 25.069 C 166.677 24.739,165.534 24.492,165.026 24.234 C 164.427 23.928,158.232 23.272,154.053 23.070 C 152.175 22.980,150.495 22.867,150.320 22.820 C 150.144 22.773,148.463 22.901,146.584 23.105 M244.671 134.055 C 243.098 134.131,242.401 134.284,242.004 134.641 C 241.688 134.925,240.643 135.254,239.467 135.440 C 238.367 135.613,237.047 135.974,236.533 136.242 C 234.701 137.196,233.460 137.926,233.046 138.294 C 232.814 138.499,232.539 138.667,232.434 138.667 C 232.329 138.667,231.619 139.309,230.855 140.094 C 230.091 140.879,229.267 141.629,229.022 141.761 C 228.568 142.005,227.279 144.111,225.696 147.194 C 223.159 152.137,223.675 158.960,226.869 162.714 C 227.284 163.201,227.824 163.920,228.069 164.310 C 228.315 164.701,228.861 165.096,229.283 165.189 C 229.705 165.282,230.825 165.941,231.773 166.654 C 232.720 167.368,234.029 168.093,234.681 168.267 C 235.333 168.440,236.407 168.863,237.067 169.207 C 237.829 169.604,238.899 169.877,240.000 169.954 C 243.430 170.196,246.558 170.727,247.867 171.292 C 249.895 172.166,258.752 172.160,260.542 171.283 C 261.209 170.956,263.009 170.509,264.632 170.265 C 266.227 170.026,267.727 169.719,267.966 169.582 C 268.204 169.445,269.180 168.973,270.133 168.533 C 274.292 166.614,278.148 162.749,278.912 159.733 C 279.116 158.927,279.534 157.927,279.842 157.512 C 280.841 156.161,280.745 145.867,279.732 145.867 C 279.377 145.867,278.860 144.818,278.680 143.733 C 278.560 143.002,278.386 142.780,277.878 142.708 C 277.521 142.657,276.323 141.801,275.215 140.806 C 272.954 138.775,271.123 137.719,269.256 137.370 C 268.561 137.240,267.511 136.800,266.922 136.392 C 265.956 135.723,265.544 135.631,262.726 135.458 C 260.530 135.323,259.243 135.109,258.400 134.738 C 257.136 134.181,249.692 133.811,244.671 134.055 M77.867 205.319 C 70.432 206.625,66.772 208.713,65.245 212.520 L 64.490 214.403 65.060 216.245 C 65.373 217.257,65.833 218.319,66.082 218.605 C 66.986 219.643,70.217 221.897,71.031 222.057 C 71.491 222.147,72.287 222.497,72.800 222.833 C 73.351 223.195,74.625 223.599,75.914 223.822 C 77.113 224.029,78.493 224.444,78.980 224.745 C 79.468 225.045,80.827 225.473,82.000 225.695 C 83.878 226.052,84.876 226.420,87.099 227.573 C 89.536 228.839,91.810 231.689,91.791 233.457 C 91.763 236.155,89.614 239.346,87.233 240.223 C 86.702 240.419,85.847 240.749,85.333 240.957 C 82.661 242.037,76.585 241.901,74.054 240.704 C 73.236 240.317,72.457 240.000,72.324 240.000 C 72.003 240.000,70.082 237.875,69.058 236.388 C 68.260 235.227,68.208 235.200,66.787 235.200 C 64.277 235.200,63.311 236.854,64.764 238.662 C 65.220 239.230,65.733 239.999,65.903 240.373 C 66.129 240.870,66.590 241.162,67.626 241.463 C 68.403 241.689,69.114 241.994,69.205 242.142 C 70.871 244.837,86.669 245.139,90.267 242.544 C 90.707 242.227,91.487 241.805,92.000 241.607 C 92.513 241.409,93.199 241.010,93.523 240.720 C 93.848 240.430,94.388 240.056,94.723 239.889 C 95.059 239.722,95.573 239.157,95.867 238.634 C 96.160 238.110,96.639 237.340,96.931 236.923 C 98.728 234.355,97.220 229.219,93.950 226.772 C 92.896 225.983,91.970 225.234,91.892 225.108 C 91.613 224.656,85.433 222.667,84.309 222.667 C 83.476 222.667,81.565 221.964,81.314 221.565 C 81.231 221.432,79.911 221.018,78.381 220.646 C 72.637 219.247,70.122 216.753,70.794 213.126 C 71.827 207.552,82.725 206.261,88.320 211.050 C 88.930 211.573,89.637 212.000,89.891 212.000 C 90.584 212.000,93.333 210.895,93.333 210.616 C 93.333 209.944,92.412 208.745,91.528 208.268 C 90.981 207.973,90.233 207.499,89.867 207.215 C 89.459 206.900,88.370 206.578,87.067 206.388 C 85.893 206.217,84.389 205.915,83.724 205.718 C 82.127 205.245,79.361 205.057,77.867 205.319 M154.911 205.441 C 154.850 205.500,152.832 205.807,150.428 206.123 C 146.910 206.587,145.893 206.816,145.228 207.298 C 144.772 207.628,143.827 208.041,143.127 208.216 C 142.427 208.391,141.379 208.834,140.799 209.201 C 140.219 209.567,139.674 209.867,139.588 209.867 C 139.337 209.867,137.570 211.219,136.246 212.424 C 135.575 213.035,134.765 213.617,134.446 213.719 C 134.128 213.820,133.867 214.052,133.867 214.235 C 133.867 214.417,133.518 214.901,133.093 215.308 C 132.667 215.716,131.797 217.083,131.159 218.345 L 130.000 220.641 129.912 224.212 C 129.818 228.053,130.323 231.383,131.098 232.026 C 131.320 232.210,131.689 232.723,131.917 233.164 C 132.318 233.939,132.643 234.330,134.667 236.476 C 136.441 238.356,140.263 240.873,142.200 241.436 C 143.011 241.672,144.361 242.225,145.198 242.666 C 146.171 243.177,147.121 243.468,147.827 243.471 C 148.436 243.474,150.013 243.655,151.333 243.873 C 152.653 244.091,155.293 244.344,157.200 244.434 C 160.606 244.596,161.238 244.544,169.326 243.440 C 170.727 243.249,171.943 242.912,172.526 242.552 C 173.043 242.234,174.003 241.801,174.658 241.591 C 176.907 240.871,182.933 236.377,182.933 235.421 C 182.933 235.322,183.220 234.901,183.569 234.485 C 185.148 232.609,186.454 227.267,185.696 225.787 C 185.039 224.505,185.365 224.542,174.653 224.537 C 163.679 224.533,164.000 224.484,164.000 226.161 C 164.000 227.622,164.552 227.727,172.158 227.718 C 179.494 227.709,179.733 227.759,179.733 229.303 C 179.733 231.464,176.859 236.516,175.617 236.538 C 175.461 236.541,174.863 236.954,174.288 237.456 C 173.673 237.993,172.821 238.440,172.220 238.541 C 171.657 238.636,171.048 238.921,170.865 239.173 C 169.551 240.992,157.580 242.206,152.800 241.005 C 151.847 240.766,150.349 240.427,149.473 240.252 C 148.596 240.078,147.516 239.664,147.073 239.334 C 146.629 239.004,145.652 238.508,144.901 238.233 C 142.635 237.404,140.139 235.293,138.004 232.400 C 134.518 227.675,135.609 219.566,140.377 214.767 C 141.847 213.288,145.140 211.200,146.003 211.200 C 146.180 211.200,146.732 210.926,147.229 210.592 C 148.420 209.791,150.023 209.333,151.642 209.333 C 152.364 209.333,153.646 209.153,154.490 208.933 C 156.782 208.336,161.654 208.412,165.067 209.097 C 166.607 209.406,168.323 209.751,168.881 209.863 C 169.439 209.975,170.159 210.308,170.481 210.603 C 170.803 210.898,171.367 211.226,171.733 211.333 C 172.629 211.594,175.151 213.236,176.098 214.175 C 177.290 215.356,178.379 215.224,180.006 213.702 L 181.322 212.471 179.954 211.236 C 179.202 210.556,178.352 209.909,178.065 209.798 C 177.779 209.687,177.227 209.377,176.839 209.108 C 176.451 208.840,175.533 208.463,174.800 208.270 C 174.067 208.078,173.097 207.648,172.646 207.315 C 171.964 206.812,171.149 206.637,167.846 206.283 C 165.657 206.048,162.967 205.738,161.867 205.593 C 159.902 205.335,155.129 205.230,154.911 205.441 M111.013 206.428 C 110.544 206.564,110.088 206.791,110.000 206.933 C 109.730 207.370,109.855 242.146,110.128 242.657 C 110.753 243.825,114.356 244.083,115.136 243.017 C 115.486 242.538,115.639 208.576,115.296 207.271 C 115.042 206.302,112.903 205.882,111.013 206.428 M201.600 206.347 C 200.647 206.392,199.747 206.548,199.600 206.694 C 199.137 207.155,199.173 242.392,199.637 243.133 L 200.012 243.733 213.219 243.733 C 228.772 243.733,228.577 243.764,227.614 241.458 L 227.227 240.533 218.214 240.528 C 208.747 240.522,206.140 240.330,205.306 239.575 C 204.707 239.033,204.522 227.303,205.093 226.050 C 205.723 224.666,206.288 224.594,216.905 224.550 C 227.041 224.508,227.553 224.454,227.887 223.404 C 228.021 222.980,227.279 221.345,226.943 221.324 C 226.864 221.320,222.249 221.258,216.686 221.188 C 203.499 221.022,204.541 221.640,204.800 214.133 L 204.933 210.267 205.816 209.826 C 206.585 209.442,207.994 209.381,216.879 209.349 C 222.479 209.329,227.154 209.219,227.268 209.105 C 227.809 208.564,227.950 207.238,227.509 206.839 C 227.086 206.457,207.311 206.081,201.600 206.347 " stroke="none" fill="#1b5581" fill-rule="evenodd"></path><path id="path1" d="M278.000 41.730 C 277.120 41.924,276.085 42.206,275.701 42.356 C 275.316 42.505,274.153 42.711,273.117 42.813 C 271.897 42.934,270.928 43.199,270.368 43.566 C 269.892 43.878,268.984 44.438,268.350 44.810 C 264.715 46.947,260.000 52.733,260.000 55.058 C 260.000 55.292,259.718 56.169,259.372 57.008 C 257.939 60.493,257.878 64.772,259.222 67.685 C 259.650 68.612,260.001 69.512,260.001 69.685 C 260.004 70.134,262.638 72.805,263.884 73.621 C 266.750 75.501,267.464 75.912,269.067 76.613 C 270.020 77.029,271.760 77.536,272.933 77.739 C 274.107 77.943,275.907 78.306,276.933 78.546 C 283.920 80.179,295.884 80.452,298.774 79.044 C 299.200 78.836,299.875 78.667,300.274 78.667 C 300.914 78.667,303.352 77.766,304.565 77.083 C 304.802 76.949,305.476 76.710,306.063 76.552 C 307.744 76.100,311.959 72.821,312.653 71.427 C 312.970 70.789,313.494 69.811,313.818 69.253 C 316.606 64.450,317.173 58.378,315.236 54.067 C 314.923 53.370,314.440 52.290,314.163 51.667 C 313.606 50.415,312.094 48.533,311.645 48.533 C 311.488 48.533,310.993 48.185,310.546 47.760 C 309.653 46.911,305.933 44.945,304.667 44.654 C 304.227 44.553,303.387 44.201,302.800 43.872 C 302.138 43.501,300.470 43.060,298.400 42.708 C 296.567 42.397,294.107 41.964,292.933 41.747 C 290.149 41.231,280.303 41.220,278.000 41.730 M104.133 110.000 C 101.640 110.335,99.070 110.803,98.423 111.041 C 96.005 111.930,91.231 114.447,90.845 115.036 C 90.624 115.372,89.924 116.178,89.289 116.826 C 88.653 117.475,87.900 118.484,87.615 119.069 C 87.330 119.655,86.841 120.493,86.529 120.933 C 85.903 121.815,85.641 122.398,85.334 123.600 C 85.221 124.040,84.888 125.300,84.592 126.400 C 82.891 132.737,84.734 139.512,88.927 142.330 C 90.339 143.280,91.666 144.000,92.002 144.000 C 92.151 144.000,92.781 144.237,93.403 144.527 C 94.025 144.817,95.270 145.288,96.170 145.573 C 97.071 145.859,98.271 146.325,98.837 146.610 C 101.507 147.952,113.865 148.760,120.933 148.054 C 127.992 147.348,128.147 147.314,130.350 145.931 C 131.459 145.236,132.804 144.487,133.339 144.267 C 135.652 143.317,139.404 139.186,140.319 136.582 C 140.605 135.768,141.056 134.674,141.322 134.151 C 143.206 130.441,142.553 123.867,139.939 120.229 C 139.239 119.256,138.667 118.332,138.667 118.178 C 138.667 118.023,138.176 117.500,137.577 117.015 C 136.978 116.530,135.962 115.693,135.319 115.155 C 134.631 114.579,133.516 113.992,132.608 113.730 C 131.760 113.484,130.947 113.187,130.800 113.070 C 130.653 112.953,129.590 112.595,128.437 112.273 C 127.283 111.952,125.805 111.459,125.151 111.179 C 124.344 110.833,122.535 110.538,119.515 110.261 C 117.068 110.036,114.491 109.736,113.787 109.593 C 111.885 109.207,109.191 109.321,104.133 110.000 " stroke="none" fill="#cb101d" fill-rule="evenodd"></path><path id="path2" d="M0.000 133.333 L 0.000 266.667 200.000 266.667 L 400.000 266.667 400.000 133.333 L 400.000 0.000 200.000 0.000 L 0.000 0.000 0.000 133.333 M231.333 17.899 C 231.920 18.061,233.462 18.672,234.759 19.257 C 236.813 20.181,240.730 21.284,243.733 21.784 C 247.016 22.331,253.417 27.473,254.135 30.140 C 255.315 34.523,254.416 42.491,251.924 49.733 C 251.267 51.640,250.645 53.797,250.540 54.527 C 250.435 55.257,250.121 56.302,249.841 56.850 C 249.562 57.397,249.333 58.043,249.333 58.284 C 249.333 59.657,247.799 63.535,246.363 65.791 C 245.503 67.143,244.568 68.823,244.286 69.524 C 244.003 70.226,243.542 71.280,243.260 71.867 C 242.469 73.512,240.451 82.056,240.635 82.977 C 240.956 84.581,243.351 85.245,251.467 85.979 C 252.420 86.066,254.340 86.366,255.733 86.646 C 257.127 86.927,259.227 87.231,260.400 87.322 C 261.573 87.413,263.253 87.597,264.133 87.731 C 265.013 87.864,268.073 88.283,270.933 88.661 C 273.793 89.039,276.867 89.465,277.764 89.608 C 278.661 89.750,279.982 89.867,280.699 89.867 C 281.417 89.867,282.423 89.991,282.935 90.142 C 284.693 90.663,287.868 91.200,289.185 91.200 C 289.910 91.200,291.890 91.373,293.585 91.584 C 295.280 91.795,297.867 92.097,299.333 92.255 C 300.800 92.413,303.565 92.721,305.477 92.938 C 307.390 93.155,309.565 93.333,310.312 93.333 C 311.058 93.333,312.127 93.525,312.687 93.759 C 313.301 94.015,315.144 94.282,317.320 94.429 C 322.431 94.775,325.990 95.162,328.000 95.590 C 328.953 95.793,331.833 96.275,334.400 96.662 C 339.886 97.488,340.514 97.660,341.361 98.566 C 342.187 99.448,342.655 99.690,344.443 100.156 C 348.620 101.244,352.000 105.595,352.000 109.885 C 352.000 110.471,352.180 111.381,352.400 111.908 C 354.499 116.931,350.794 125.490,344.741 129.602 C 343.318 130.569,341.879 131.669,341.544 132.047 C 340.598 133.112,340.101 133.263,336.526 133.569 C 328.587 134.247,321.704 134.216,310.933 133.454 C 307.440 133.206,301.396 132.480,298.766 131.992 C 297.281 131.716,294.101 131.304,291.700 131.075 C 289.298 130.847,286.553 130.529,285.600 130.368 C 284.647 130.208,282.667 129.984,281.200 129.871 C 279.733 129.758,277.774 129.471,276.845 129.233 C 275.917 128.995,274.537 128.798,273.778 128.795 C 273.020 128.793,271.260 128.615,269.867 128.400 C 268.473 128.185,266.433 128.006,265.333 128.002 C 263.015 127.994,256.583 127.313,255.207 126.931 C 254.690 126.787,253.727 126.668,253.067 126.667 C 252.407 126.665,249.767 126.314,247.200 125.887 C 242.944 125.179,239.878 124.777,229.733 123.596 C 220.699 122.545,218.812 123.406,216.271 129.733 C 215.695 131.168,214.535 133.378,214.220 133.639 C 214.026 133.800,213.867 134.034,213.867 134.159 C 213.867 134.284,213.474 135.199,212.994 136.193 C 212.513 137.187,211.883 138.761,211.594 139.691 C 211.304 140.621,210.677 141.840,210.200 142.400 C 209.723 142.960,209.333 143.510,209.333 143.621 C 209.333 143.733,209.173 144.014,208.978 144.246 C 208.782 144.477,208.114 145.927,207.492 147.467 C 205.385 152.689,204.441 154.632,201.757 159.273 C 200.572 161.323,199.578 163.499,198.894 165.540 C 197.650 169.250,197.063 170.667,196.770 170.667 C 196.651 170.667,196.121 171.597,195.592 172.733 C 195.064 173.870,194.461 175.116,194.252 175.502 C 194.044 175.888,193.410 177.568,192.843 179.235 C 191.770 182.393,191.358 183.334,189.883 186.000 C 188.745 188.058,188.436 188.399,186.667 189.556 C 181.653 192.832,178.613 193.395,165.733 193.436 L 155.867 193.467 150.400 192.314 C 143.591 190.878,143.500 190.837,141.927 188.483 C 141.234 187.446,140.063 185.923,139.324 185.099 C 136.658 182.122,136.131 176.553,138.026 171.373 C 138.248 170.765,138.650 169.534,138.919 168.638 C 139.188 167.742,139.897 165.788,140.496 164.296 C 141.094 162.805,141.830 160.548,142.131 159.282 C 142.431 158.016,143.021 156.369,143.442 155.623 C 145.540 151.898,146.713 149.424,147.331 147.414 C 147.706 146.196,148.145 144.780,148.307 144.267 C 148.469 143.753,148.983 142.853,149.450 142.267 C 149.917 141.680,150.701 140.180,151.192 138.933 C 151.684 137.687,152.299 136.286,152.560 135.822 C 153.083 134.888,153.998 132.696,155.882 127.867 C 156.568 126.107,157.772 123.407,158.557 121.867 C 161.416 116.260,161.545 114.491,159.200 113.040 C 157.089 111.734,151.564 110.192,146.452 109.483 C 144.794 109.253,143.072 108.876,142.625 108.645 C 141.248 107.933,139.489 107.504,137.230 107.331 C 134.578 107.126,132.658 106.782,130.439 106.112 C 129.506 105.830,128.306 105.597,127.772 105.594 C 127.237 105.590,125.908 105.350,124.818 105.060 C 123.728 104.771,122.334 104.533,121.721 104.533 C 120.057 104.533,114.492 103.314,112.667 102.550 C 111.787 102.181,110.767 101.874,110.400 101.868 C 110.033 101.862,108.833 101.616,107.733 101.320 C 106.633 101.025,104.173 100.383,102.267 99.894 C 100.360 99.405,97.540 98.560,96.000 98.016 C 92.237 96.686,90.349 96.135,88.184 95.737 C 87.185 95.553,84.065 94.687,81.250 93.812 C 78.436 92.937,74.813 91.817,73.200 91.323 C 68.526 89.891,68.113 89.706,64.949 87.629 C 63.630 86.763,61.903 85.880,61.082 85.650 C 57.667 84.696,57.307 84.182,56.041 78.461 C 54.627 72.065,54.912 67.994,57.260 61.051 C 58.080 58.627,60.980 56.000,62.836 56.000 C 62.909 56.000,63.351 55.730,63.818 55.399 C 65.702 54.066,66.570 53.653,70.000 52.461 C 74.525 50.888,84.846 51.385,92.133 53.527 C 93.893 54.044,96.136 54.684,97.116 54.950 C 98.097 55.215,99.181 55.617,99.525 55.842 C 99.869 56.068,101.025 56.376,102.093 56.528 C 107.117 57.240,111.968 58.595,113.482 59.708 C 114.265 60.284,115.201 60.623,116.944 60.961 C 118.258 61.216,120.653 61.768,122.267 62.189 C 123.880 62.609,126.100 63.184,127.200 63.466 C 128.300 63.748,129.980 64.266,130.933 64.617 C 132.419 65.164,133.849 65.439,139.660 66.295 C 140.133 66.365,141.193 66.776,142.015 67.208 C 143.120 67.789,144.149 68.069,145.955 68.278 C 147.300 68.434,149.420 68.844,150.667 69.188 C 154.887 70.353,164.235 72.000,166.625 72.000 C 167.167 72.000,168.449 72.250,169.472 72.555 C 180.107 75.724,183.349 74.528,185.358 66.695 C 185.637 65.611,185.973 64.591,186.106 64.429 C 186.426 64.036,187.649 61.051,188.282 59.115 C 188.561 58.262,189.022 57.238,189.306 56.838 C 189.590 56.439,190.314 54.437,190.913 52.390 C 191.513 50.342,192.595 46.807,193.318 44.533 C 195.292 38.322,196.476 34.153,196.689 32.671 C 196.937 30.936,197.477 29.655,198.376 28.667 C 198.776 28.227,199.327 27.327,199.600 26.667 C 200.595 24.263,201.096 23.845,205.692 21.589 C 212.909 18.044,212.856 18.058,220.667 17.873 C 224.333 17.786,227.993 17.690,228.800 17.659 C 229.607 17.628,230.747 17.736,231.333 17.899 M154.503 21.619 C 155.840 21.776,157.387 22.021,157.941 22.165 C 158.495 22.308,160.643 22.540,162.714 22.679 C 165.761 22.884,166.739 23.053,167.840 23.565 C 168.588 23.913,169.841 24.279,170.625 24.378 C 171.409 24.477,172.489 24.827,173.025 25.156 C 173.561 25.485,174.570 26.049,175.267 26.410 C 175.963 26.771,176.533 27.150,176.533 27.254 C 176.533 27.357,177.063 27.676,177.710 27.962 C 179.148 28.598,181.457 30.900,181.908 32.148 C 182.091 32.653,182.341 33.067,182.463 33.067 C 183.404 33.067,184.755 39.593,184.310 41.989 C 184.146 42.875,183.939 44.200,183.851 44.933 C 183.619 46.873,182.999 48.947,182.538 49.330 C 182.318 49.512,182.015 50.117,181.865 50.673 C 181.267 52.895,178.381 56.386,176.299 57.407 C 175.768 57.667,175.153 58.107,174.933 58.384 C 174.713 58.661,173.933 59.149,173.200 59.470 C 172.467 59.791,171.627 60.162,171.333 60.295 C 171.040 60.428,169.540 60.768,168.000 61.051 C 166.460 61.334,164.420 61.783,163.467 62.049 C 160.212 62.958,148.624 62.606,147.296 61.557 C 147.129 61.425,145.509 61.204,143.696 61.065 C 140.125 60.792,138.918 60.564,137.626 59.920 C 137.166 59.690,136.121 59.364,135.304 59.194 C 134.487 59.024,133.587 58.654,133.303 58.370 C 133.020 58.087,132.133 57.610,131.333 57.310 C 128.636 56.301,124.851 51.959,124.249 49.185 C 123.769 46.975,123.837 41.054,124.364 39.200 C 125.059 36.751,126.018 34.215,126.550 33.420 C 126.827 33.006,127.279 32.247,127.554 31.733 C 127.829 31.220,128.318 30.500,128.640 30.133 C 128.962 29.767,129.390 29.137,129.591 28.733 C 129.792 28.330,130.096 28.000,130.265 28.000 C 130.435 28.000,130.856 27.700,131.200 27.333 C 131.544 26.967,131.968 26.667,132.142 26.667 C 132.316 26.667,132.986 26.202,133.631 25.634 C 135.252 24.208,137.681 23.314,141.600 22.702 C 143.433 22.415,145.533 22.001,146.267 21.781 C 147.878 21.298,151.210 21.232,154.503 21.619 M294.133 40.550 C 296.075 40.728,297.591 41.017,298.267 41.337 C 298.853 41.614,300.173 41.972,301.200 42.130 C 302.227 42.289,303.684 42.717,304.439 43.082 C 305.194 43.447,306.424 43.928,307.173 44.150 C 307.921 44.372,308.533 44.657,308.533 44.782 C 308.533 44.908,309.043 45.260,309.667 45.564 C 310.290 45.869,311.160 46.422,311.600 46.795 C 314.193 48.988,315.200 49.989,315.200 50.375 C 315.200 50.614,315.493 51.241,315.852 51.768 C 317.980 54.900,318.069 66.025,315.986 68.400 C 315.728 68.693,315.327 69.395,315.095 69.960 C 314.862 70.524,314.371 71.223,314.003 71.512 C 313.635 71.802,313.333 72.241,313.333 72.489 C 313.333 73.025,311.291 75.200,310.787 75.200 C 310.594 75.200,310.174 75.568,309.854 76.018 C 309.283 76.820,307.579 77.744,305.467 78.397 C 304.880 78.578,303.890 79.004,303.267 79.344 C 299.582 81.354,278.030 81.528,274.997 79.573 C 274.665 79.359,273.333 79.026,272.035 78.833 C 269.500 78.456,265.663 76.855,264.692 75.769 C 264.413 75.456,263.984 75.200,263.740 75.200 C 263.325 75.200,261.142 73.543,260.762 72.939 C 260.667 72.789,260.331 72.367,260.015 72.000 C 257.395 68.959,257.200 68.301,257.202 62.527 L 257.203 57.454 258.032 56.203 C 258.502 55.493,258.995 54.267,259.172 53.368 C 259.343 52.497,259.702 51.502,259.969 51.159 C 260.235 50.815,260.502 50.384,260.560 50.202 C 260.946 49.000,265.720 44.377,266.863 44.099 C 267.268 44.001,267.983 43.588,268.451 43.182 C 271.291 40.719,282.952 39.524,294.133 40.550 M115.333 108.294 C 116.653 108.455,118.130 108.751,118.614 108.952 C 119.099 109.153,121.068 109.452,122.989 109.615 C 126.497 109.912,127.524 110.140,128.266 110.785 C 128.486 110.976,129.147 111.211,129.733 111.306 C 130.943 111.503,133.333 112.517,133.333 112.833 C 133.333 112.948,133.734 113.118,134.224 113.210 C 134.714 113.302,135.464 113.679,135.891 114.047 C 136.318 114.416,137.104 114.942,137.638 115.216 C 138.596 115.708,140.533 117.718,140.533 118.221 C 140.533 118.362,140.978 119.021,141.521 119.683 C 143.565 122.178,143.885 132.922,142.007 136.000 C 141.693 136.513,141.292 137.435,141.114 138.047 C 140.492 140.187,136.497 144.409,133.941 145.626 C 132.947 146.100,131.713 146.823,131.200 147.234 C 130.496 147.796,129.774 148.052,128.267 148.274 C 127.167 148.435,125.427 148.736,124.400 148.943 C 121.009 149.625,115.338 149.935,111.989 149.621 C 110.309 149.464,108.142 149.335,107.176 149.334 C 106.209 149.334,104.829 149.154,104.109 148.935 C 103.389 148.716,101.721 148.403,100.403 148.241 C 98.753 148.037,97.548 147.713,96.536 147.199 C 95.728 146.789,94.407 146.305,93.600 146.123 C 92.793 145.941,91.833 145.586,91.467 145.333 C 91.100 145.080,90.260 144.631,89.600 144.335 C 87.660 143.466,85.222 140.841,84.089 138.400 C 82.651 135.304,81.988 132.082,82.350 129.950 C 82.519 128.951,82.788 127.294,82.948 126.267 C 83.108 125.241,83.515 123.861,83.852 123.201 C 84.190 122.540,84.691 121.464,84.966 120.809 C 85.242 120.153,85.737 119.326,86.067 118.970 C 86.397 118.613,86.667 118.102,86.667 117.832 C 86.667 116.781,91.469 112.623,93.867 111.599 C 94.527 111.317,95.487 110.826,96.000 110.508 C 96.612 110.129,97.805 109.814,99.467 109.593 C 100.860 109.408,102.240 109.129,102.533 108.974 C 104.164 108.111,110.898 107.754,115.333 108.294 M256.800 133.074 C 259.492 133.225,262.087 133.517,262.933 133.763 C 263.740 133.998,265.229 134.345,266.241 134.536 C 267.254 134.726,268.874 135.190,269.841 135.567 C 270.809 135.944,272.080 136.375,272.667 136.525 C 273.253 136.675,274.074 137.069,274.491 137.399 C 279.793 141.604,280.640 142.621,281.440 145.745 C 281.667 146.632,282.062 147.772,282.319 148.279 C 282.943 149.514,282.968 153.895,282.357 155.067 C 282.128 155.507,281.877 156.347,281.801 156.933 C 281.415 159.887,279.725 163.223,277.474 165.475 C 273.686 169.264,271.170 170.753,268.000 171.081 C 267.047 171.180,265.727 171.497,265.067 171.784 C 261.010 173.553,245.143 173.511,242.251 171.724 C 241.714 171.392,240.927 171.199,240.102 171.198 C 238.028 171.195,235.480 170.691,234.709 170.133 C 234.319 169.850,233.425 169.493,232.723 169.339 C 225.405 167.738,220.318 158.558,222.593 151.056 C 222.903 150.035,223.336 148.420,223.556 147.467 C 224.001 145.536,225.600 142.636,226.569 142.001 C 226.916 141.774,227.200 141.393,227.200 141.154 C 227.200 140.233,231.285 136.752,234.267 135.133 C 238.262 132.963,244.589 132.385,256.800 133.074 M83.443 204.274 C 85.627 204.467,86.722 204.689,87.322 205.060 C 87.782 205.344,88.666 205.658,89.288 205.757 C 89.972 205.866,90.597 206.167,90.875 206.520 C 91.127 206.840,91.748 207.246,92.255 207.423 C 95.616 208.594,95.787 211.017,92.617 212.578 C 89.766 213.981,88.805 213.728,85.658 210.745 C 85.267 210.375,83.608 209.870,82.773 209.868 C 82.465 209.867,81.816 209.728,81.330 209.559 C 79.605 208.957,74.611 210.108,73.652 211.328 C 73.392 211.658,72.929 212.008,72.623 212.105 C 71.988 212.306,71.606 213.917,71.903 215.138 C 72.235 216.506,75.126 218.667,76.624 218.667 C 76.957 218.667,77.636 218.967,78.133 219.333 C 78.630 219.700,79.344 220.001,79.718 220.001 C 80.857 220.004,82.498 220.552,83.138 221.144 C 83.609 221.579,84.230 221.739,85.938 221.866 C 87.658 221.994,88.480 222.208,89.733 222.853 C 90.613 223.305,91.633 223.762,92.000 223.868 C 92.367 223.974,92.967 224.318,93.333 224.634 C 93.700 224.950,94.420 225.439,94.933 225.722 C 96.493 226.582,97.549 228.133,98.219 230.551 C 98.993 233.347,98.479 237.500,97.231 238.533 C 96.877 238.827,96.545 239.307,96.493 239.600 C 96.442 239.893,96.019 240.301,95.554 240.506 C 95.089 240.711,94.650 241.103,94.578 241.377 C 94.506 241.651,93.919 242.109,93.274 242.395 C 92.628 242.680,91.884 243.153,91.619 243.446 C 89.456 245.836,75.199 246.660,71.142 244.630 C 70.450 244.283,69.729 244.000,69.539 244.000 C 69.350 244.000,68.893 243.720,68.524 243.378 C 68.155 243.037,67.287 242.540,66.594 242.275 C 65.900 242.011,65.333 241.709,65.333 241.605 C 65.333 241.500,64.943 241.000,64.467 240.493 C 61.828 237.686,61.791 237.548,63.176 235.795 C 65.078 233.389,69.059 233.071,69.754 235.268 C 69.920 235.790,71.463 237.421,72.976 238.672 C 74.311 239.777,82.107 240.707,83.388 239.915 C 83.526 239.830,84.378 239.641,85.280 239.496 C 86.665 239.273,87.053 239.083,87.755 238.282 C 88.214 237.760,88.758 237.333,88.965 237.333 C 89.741 237.333,90.398 235.698,90.399 233.762 L 90.400 231.924 89.000 230.595 C 86.484 228.208,86.316 228.102,84.533 227.760 C 83.580 227.577,82.540 227.260,82.222 227.055 C 81.904 226.850,80.780 226.503,79.724 226.283 C 78.668 226.062,77.405 225.647,76.919 225.360 C 76.432 225.073,75.456 224.758,74.750 224.660 C 73.064 224.427,71.330 223.908,69.946 223.222 C 69.330 222.917,68.722 222.667,68.595 222.667 C 68.469 222.667,68.006 222.277,67.567 221.800 C 67.128 221.323,66.569 220.753,66.325 220.533 C 66.081 220.313,65.429 219.606,64.874 218.961 L 63.867 217.788 63.867 214.561 L 63.867 211.333 64.782 210.062 C 68.051 205.521,74.597 203.491,83.443 204.274 M163.455 204.275 C 165.428 204.426,167.369 204.711,167.767 204.910 C 168.166 205.109,169.531 205.427,170.801 205.615 C 172.583 205.881,173.317 206.124,174.020 206.682 C 174.528 207.086,175.442 207.482,176.089 207.579 C 177.772 207.832,182.933 211.522,182.933 212.473 C 182.933 212.781,181.203 214.603,180.153 215.400 C 178.683 216.517,174.400 215.779,174.400 214.408 C 174.400 214.277,174.163 214.094,173.873 214.002 C 173.583 213.910,172.851 213.422,172.247 212.917 C 171.644 212.413,170.979 212.000,170.771 212.000 C 170.563 212.000,170.184 211.891,169.930 211.757 C 165.984 209.686,151.555 209.300,149.139 211.200 C 148.762 211.497,147.980 211.816,147.402 211.908 C 146.824 212.000,146.028 212.347,145.635 212.678 C 145.241 213.010,144.425 213.414,143.822 213.576 C 143.136 213.761,142.549 214.140,142.255 214.589 C 141.662 215.494,140.836 216.323,139.947 216.905 C 139.540 217.172,139.186 217.711,139.089 218.213 C 138.998 218.682,138.566 219.595,138.129 220.240 C 137.007 221.895,137.096 229.624,138.247 230.533 C 138.433 230.680,138.774 231.166,139.005 231.613 C 139.760 233.075,142.715 235.844,144.073 236.363 C 144.766 236.628,145.333 236.941,145.333 237.060 C 145.333 237.178,145.843 237.478,146.467 237.726 C 147.090 237.973,147.848 238.406,148.150 238.688 C 150.041 240.447,166.800 240.325,169.440 238.534 C 169.928 238.203,170.754 237.791,171.276 237.619 C 171.797 237.447,172.368 237.132,172.545 236.920 C 172.721 236.707,173.041 236.533,173.257 236.533 C 173.862 236.533,177.176 233.046,177.565 232.000 C 177.755 231.487,178.014 230.869,178.141 230.628 C 178.682 229.591,177.804 229.426,171.495 229.378 C 163.787 229.319,162.400 228.748,162.400 225.632 C 162.400 224.850,163.638 223.474,164.354 223.461 C 168.584 223.383,185.970 223.523,186.269 223.638 C 187.730 224.198,187.838 229.579,186.427 231.487 C 186.145 231.869,185.766 232.711,185.586 233.358 C 185.406 234.004,185.005 234.776,184.696 235.072 C 184.386 235.368,183.958 235.947,183.744 236.359 C 183.200 237.405,179.826 240.533,179.241 240.533 C 178.976 240.533,178.490 240.820,178.162 241.170 C 177.832 241.521,176.854 242.006,175.982 242.250 C 175.112 242.495,174.400 242.782,174.400 242.890 C 174.400 243.400,172.595 244.047,170.516 244.284 C 169.252 244.427,167.855 244.732,167.411 244.962 C 165.573 245.913,152.024 245.929,149.067 244.984 C 148.407 244.773,147.087 244.455,146.133 244.278 C 145.180 244.101,144.040 243.688,143.600 243.361 C 142.660 242.663,141.590 242.238,140.185 242.005 C 139.598 241.908,138.932 241.563,138.604 241.185 C 138.292 240.827,137.906 240.533,137.745 240.533 C 137.028 240.533,133.792 237.759,132.909 236.386 C 132.630 235.954,132.132 235.381,131.801 235.114 C 131.471 234.847,131.200 234.459,131.200 234.253 C 131.200 234.047,130.910 233.689,130.556 233.457 C 129.705 232.899,129.576 232.532,129.326 229.946 C 129.205 228.697,128.933 227.499,128.691 227.153 C 128.158 226.393,128.120 223.355,128.630 222.377 C 128.828 221.998,129.141 220.884,129.326 219.904 C 129.531 218.819,129.962 217.678,130.427 216.993 C 130.847 216.374,131.192 215.725,131.195 215.553 C 131.198 215.380,131.471 215.020,131.801 214.753 C 132.132 214.485,132.619 213.930,132.884 213.519 C 133.148 213.108,133.534 212.706,133.741 212.627 C 133.948 212.547,134.722 211.896,135.462 211.180 C 136.201 210.463,137.195 209.679,137.670 209.436 C 138.145 209.193,138.627 208.835,138.742 208.639 C 139.061 208.094,141.290 207.200,142.329 207.200 C 142.908 207.200,143.530 206.969,143.986 206.586 C 144.506 206.149,145.358 205.873,146.948 205.630 C 148.176 205.442,149.530 205.108,149.957 204.887 C 151.365 204.158,157.991 203.858,163.455 204.275 M115.561 205.454 C 115.949 205.814,116.276 206.264,116.287 206.454 C 116.298 206.644,116.330 214.660,116.359 224.267 C 116.389 233.873,116.507 242.033,116.624 242.400 C 116.796 242.945,116.662 243.268,115.885 244.174 L 114.936 245.282 112.990 245.213 C 111.053 245.144,109.254 244.401,108.627 243.411 C 108.507 243.222,108.397 238.927,108.383 233.867 C 108.369 228.807,108.328 220.707,108.293 215.867 C 108.215 205.171,108.084 205.553,112.000 205.062 C 114.547 204.743,114.827 204.774,115.561 205.454 M228.179 205.617 C 230.154 206.368,230.510 208.661,228.827 209.791 C 227.923 210.399,227.900 210.400,217.627 210.404 C 211.621 210.406,207.167 210.513,206.933 210.661 C 206.403 210.995,206.177 219.010,206.680 219.616 C 206.947 219.938,208.651 220.000,217.193 220.000 C 228.817 220.000,228.900 220.015,229.419 222.212 C 230.289 225.888,230.136 225.938,217.698 226.039 C 210.336 226.098,207.023 226.215,206.769 226.426 C 206.339 226.783,206.273 236.525,206.689 238.164 C 207.016 239.447,207.196 239.467,218.584 239.467 C 228.346 239.467,228.923 239.536,229.592 240.785 C 230.051 241.642,229.903 243.067,229.256 244.027 L 228.646 244.933 214.361 245.002 L 200.077 245.071 199.406 244.400 C 198.460 243.454,198.397 242.185,198.431 224.667 C 198.465 207.184,198.521 206.154,199.467 205.677 C 200.342 205.236,227.029 205.180,228.179 205.617 M262.075 206.130 C 264.272 206.313,265.167 206.521,266.572 207.179 C 267.537 207.631,268.534 208.000,268.788 208.000 C 269.408 208.000,272.215 211.141,273.147 212.875 C 273.987 214.439,274.026 217.932,273.225 219.848 C 271.968 222.856,265.889 225.867,261.073 225.867 C 257.797 225.867,257.830 226.714,261.200 229.180 C 261.787 229.609,262.789 230.539,263.428 231.247 C 264.067 231.954,264.705 232.533,264.846 232.533 C 265.110 232.533,266.858 233.771,267.333 234.294 C 267.480 234.455,268.080 234.932,268.667 235.353 C 269.253 235.774,270.093 236.483,270.533 236.929 C 270.973 237.374,271.806 237.977,272.384 238.269 C 272.993 238.577,273.721 239.263,274.117 239.901 C 274.524 240.556,275.313 241.291,276.067 241.716 C 277.569 242.563,277.651 242.988,276.426 243.570 C 274.116 244.666,269.867 243.738,269.867 242.137 C 269.867 242.024,269.531 241.792,269.120 241.622 C 268.709 241.452,267.899 240.864,267.320 240.315 C 266.741 239.767,265.607 238.782,264.800 238.127 C 263.993 237.472,263.199 236.815,263.035 236.668 C 262.870 236.521,262.030 235.784,261.168 235.031 C 260.306 234.278,258.820 232.972,257.867 232.130 C 256.913 231.288,255.833 230.404,255.467 230.166 C 255.100 229.928,254.140 229.068,253.333 228.256 C 249.154 224.045,248.480 225.182,248.534 236.348 C 248.546 238.870,248.551 241.374,248.545 241.912 C 248.524 243.736,245.346 244.703,243.120 243.563 C 241.993 242.986,241.873 242.751,242.197 241.764 C 242.347 241.307,242.507 237.873,242.553 234.133 C 242.598 230.393,242.640 227.153,242.645 226.933 C 242.650 226.713,242.591 223.953,242.515 220.800 C 242.438 217.647,242.351 213.208,242.321 210.937 L 242.267 206.807 243.067 206.410 C 244.492 205.703,255.059 205.548,262.075 206.130 M314.667 206.402 C 315.327 206.558,316.384 206.926,317.017 207.219 C 317.650 207.512,319.090 207.940,320.217 208.170 C 322.269 208.588,323.319 209.070,324.545 210.155 C 324.905 210.474,325.580 210.897,326.044 211.095 C 326.509 211.293,327.142 211.811,327.451 212.245 C 327.761 212.680,328.249 213.110,328.537 213.201 C 328.825 213.293,329.506 214.050,330.050 214.884 C 330.594 215.718,331.312 216.735,331.646 217.146 C 332.800 218.563,333.369 221.106,333.463 225.267 C 333.559 229.487,333.752 228.788,331.203 233.467 C 330.346 235.042,328.986 236.533,328.409 236.533 C 328.248 236.533,327.903 236.891,327.645 237.329 C 326.746 238.851,321.623 241.638,319.067 241.997 C 318.333 242.099,316.653 242.547,315.333 242.991 L 312.933 243.798 301.067 243.920 C 289.696 244.038,289.161 244.021,288.271 243.526 L 287.343 243.009 287.324 225.571 C 287.313 215.980,287.212 207.881,287.098 207.573 C 286.931 207.120,287.063 206.898,287.779 206.421 L 288.667 205.829 301.067 205.974 C 308.362 206.059,313.961 206.235,314.667 206.402 M252.174 209.795 C 248.443 209.943,248.532 209.811,248.540 215.164 C 248.551 222.743,248.285 222.427,254.697 222.487 C 262.660 222.562,266.242 221.542,267.252 218.911 C 267.824 217.422,267.883 214.323,267.352 213.670 C 267.142 213.411,266.652 212.811,266.263 212.335 C 264.467 210.139,260.688 209.458,252.174 209.795 M294.251 210.246 C 293.748 210.615,293.736 211.022,293.814 224.180 C 293.906 239.705,293.844 238.963,295.087 239.556 C 296.392 240.178,311.833 240.225,313.160 239.611 C 313.622 239.397,314.900 238.967,316.000 238.656 C 317.100 238.344,318.240 238.018,318.533 237.930 C 320.246 237.418,323.465 234.759,324.744 232.800 C 325.270 231.993,325.918 231.119,326.184 230.856 C 326.449 230.594,326.673 230.054,326.681 229.656 C 326.689 229.259,326.799 227.973,326.925 226.800 C 327.571 220.809,325.702 216.774,320.695 213.349 C 320.386 213.137,320.073 212.884,320.000 212.786 C 319.927 212.689,319.447 212.478,318.933 212.319 C 317.717 211.942,314.257 210.726,313.067 210.258 C 311.677 209.710,294.996 209.700,294.251 210.246 " stroke="none" fill="#fafaf9" fill-rule="evenodd"></path><path id="path3" d="M220.667 17.873 C 212.856 18.058,212.909 18.044,205.692 21.589 C 201.096 23.845,200.595 24.263,199.600 26.667 C 199.327 27.327,198.776 28.227,198.376 28.667 C 197.477 29.655,196.937 30.936,196.689 32.671 C 196.476 34.153,195.292 38.322,193.318 44.533 C 192.595 46.807,191.513 50.342,190.913 52.390 C 190.314 54.437,189.590 56.439,189.306 56.838 C 189.022 57.238,188.561 58.262,188.282 59.115 C 187.649 61.051,186.426 64.036,186.106 64.429 C 185.973 64.591,185.637 65.611,185.358 66.695 C 183.349 74.528,180.107 75.724,169.472 72.555 C 168.449 72.250,167.167 72.000,166.625 72.000 C 164.235 72.000,154.887 70.353,150.667 69.188 C 149.420 68.844,147.300 68.434,145.955 68.278 C 144.149 68.069,143.120 67.789,142.015 67.208 C 141.193 66.776,140.133 66.365,139.660 66.295 C 133.849 65.439,132.419 65.164,130.933 64.617 C 129.980 64.266,128.300 63.748,127.200 63.466 C 126.100 63.184,123.880 62.609,122.267 62.189 C 120.653 61.768,118.258 61.216,116.944 60.961 C 115.201 60.623,114.265 60.284,113.482 59.708 C 111.968 58.595,107.117 57.240,102.093 56.528 C 101.025 56.376,99.869 56.068,99.525 55.842 C 99.181 55.617,98.097 55.215,97.116 54.950 C 96.136 54.684,93.893 54.044,92.133 53.527 C 84.846 51.385,74.525 50.888,70.000 52.461 C 66.570 53.653,65.702 54.066,63.818 55.399 C 63.351 55.730,62.909 56.000,62.836 56.000 C 60.980 56.000,58.080 58.627,57.260 61.051 C 54.912 67.994,54.627 72.065,56.041 78.461 C 57.307 84.182,57.667 84.696,61.082 85.650 C 61.903 85.880,63.630 86.763,64.949 87.629 C 68.113 89.706,68.526 89.891,73.200 91.323 C 74.813 91.817,78.436 92.937,81.250 93.812 C 84.065 94.687,87.185 95.553,88.184 95.737 C 90.349 96.135,92.237 96.686,96.000 98.016 C 97.540 98.560,100.360 99.405,102.267 99.894 C 104.173 100.383,106.633 101.025,107.733 101.320 C 108.833 101.616,110.013 101.860,110.356 101.862 C 110.698 101.865,111.850 102.216,112.915 102.643 C 113.981 103.069,115.801 103.557,116.960 103.726 C 122.101 104.476,122.915 104.617,124.860 105.094 C 125.992 105.373,127.330 105.600,127.832 105.600 C 128.333 105.600,129.506 105.830,130.439 106.112 C 132.658 106.782,134.578 107.126,137.230 107.331 C 139.489 107.504,141.248 107.933,142.625 108.645 C 143.072 108.876,144.794 109.253,146.452 109.483 C 151.564 110.192,157.089 111.734,159.200 113.040 C 161.545 114.491,161.416 116.260,158.557 121.867 C 157.772 123.407,156.568 126.107,155.882 127.867 C 153.998 132.696,153.083 134.888,152.560 135.822 C 152.299 136.286,151.684 137.687,151.192 138.933 C 150.701 140.180,149.917 141.680,149.450 142.267 C 148.983 142.853,148.469 143.753,148.307 144.267 C 148.145 144.780,147.706 146.196,147.331 147.414 C 146.713 149.424,145.540 151.898,143.442 155.623 C 143.021 156.369,142.431 158.016,142.131 159.282 C 141.830 160.548,141.094 162.805,140.496 164.296 C 139.897 165.788,139.188 167.742,138.919 168.638 C 138.650 169.534,138.248 170.765,138.026 171.373 C 136.131 176.553,136.658 182.122,139.324 185.099 C 140.063 185.923,141.234 187.446,141.927 188.483 C 143.500 190.837,143.591 190.878,150.400 192.314 L 155.867 193.467 165.733 193.436 C 178.613 193.395,181.653 192.832,186.667 189.556 C 188.436 188.399,188.745 188.058,189.883 186.000 C 191.358 183.334,191.770 182.393,192.843 179.235 C 193.410 177.568,194.044 175.888,194.252 175.502 C 194.461 175.116,195.064 173.870,195.592 172.733 C 196.121 171.597,196.651 170.667,196.770 170.667 C 197.063 170.667,197.650 169.250,198.894 165.540 C 199.578 163.499,200.572 161.323,201.757 159.273 C 204.441 154.632,205.385 152.689,207.492 147.467 C 208.114 145.927,208.782 144.477,208.978 144.246 C 209.173 144.014,209.333 143.733,209.333 143.621 C 209.333 143.510,209.723 142.960,210.200 142.400 C 210.677 141.840,211.304 140.621,211.594 139.691 C 211.883 138.761,212.513 137.187,212.994 136.193 C 213.474 135.199,213.867 134.284,213.867 134.159 C 213.867 134.034,214.026 133.800,214.220 133.639 C 214.535 133.378,215.695 131.168,216.271 129.733 C 218.812 123.406,220.699 122.545,229.733 123.596 C 239.878 124.777,242.944 125.179,247.200 125.887 C 249.767 126.314,252.407 126.665,253.067 126.667 C 253.727 126.668,254.690 126.787,255.207 126.931 C 256.583 127.313,263.015 127.994,265.333 128.002 C 266.433 128.006,268.473 128.185,269.867 128.400 C 271.260 128.615,273.020 128.793,273.778 128.795 C 274.537 128.798,275.917 128.995,276.845 129.233 C 277.774 129.471,279.733 129.758,281.200 129.871 C 282.667 129.984,284.647 130.208,285.600 130.368 C 286.553 130.529,289.298 130.847,291.700 131.075 C 294.101 131.304,297.281 131.716,298.766 131.992 C 301.396 132.480,307.440 133.206,310.933 133.454 C 321.704 134.216,328.587 134.247,336.526 133.569 C 340.101 133.263,340.598 133.112,341.544 132.047 C 341.879 131.669,343.318 130.569,344.741 129.602 C 350.664 125.578,353.819 118.760,352.514 112.800 C 352.370 112.140,352.149 110.790,352.023 109.800 C 351.379 104.714,348.669 101.256,344.470 100.163 C 342.654 99.690,342.189 99.451,341.361 98.566 C 340.514 97.660,339.886 97.488,334.400 96.662 C 331.833 96.275,328.953 95.793,328.000 95.590 C 325.990 95.162,322.431 94.775,317.320 94.429 C 315.144 94.282,313.301 94.015,312.687 93.759 C 312.127 93.525,311.058 93.333,310.312 93.333 C 309.565 93.333,307.390 93.155,305.477 92.938 C 303.565 92.721,300.800 92.413,299.333 92.255 C 297.867 92.097,295.280 91.795,293.585 91.584 C 291.890 91.373,289.910 91.200,289.185 91.200 C 287.868 91.200,284.693 90.663,282.935 90.142 C 282.423 89.991,281.417 89.867,280.699 89.867 C 279.982 89.867,278.661 89.750,277.764 89.608 C 276.867 89.465,273.793 89.039,270.933 88.661 C 268.073 88.283,265.013 87.864,264.133 87.731 C 263.253 87.597,261.573 87.413,260.400 87.322 C 259.227 87.231,257.127 86.927,255.733 86.646 C 254.340 86.366,252.420 86.066,251.467 85.979 C 243.351 85.245,240.956 84.581,240.635 82.977 C 240.451 82.056,242.469 73.512,243.260 71.867 C 243.542 71.280,244.003 70.226,244.286 69.524 C 244.568 68.823,245.503 67.143,246.363 65.791 C 247.799 63.535,249.333 59.657,249.333 58.284 C 249.333 58.043,249.562 57.397,249.841 56.850 C 250.121 56.302,250.435 55.257,250.540 54.527 C 250.645 53.797,251.267 51.640,251.924 49.733 C 254.416 42.491,255.315 34.523,254.135 30.140 C 253.417 27.473,247.016 22.331,243.733 21.784 C 240.730 21.284,236.813 20.181,234.759 19.257 C 231.727 17.892,230.602 17.590,228.800 17.659 C 227.993 17.690,224.333 17.786,220.667 17.873 " stroke="none" fill="#f8f817" fill-rule="evenodd"></path><path id="path4" d="M146.267 21.781 C 145.533 22.001,143.433 22.415,141.600 22.702 C 137.681 23.314,135.252 24.208,133.631 25.634 C 132.986 26.202,132.316 26.667,132.142 26.667 C 131.968 26.667,131.544 26.967,131.200 27.333 C 130.856 27.700,130.435 28.000,130.265 28.000 C 130.096 28.000,129.792 28.330,129.591 28.733 C 129.390 29.137,128.962 29.767,128.640 30.133 C 128.318 30.500,127.829 31.220,127.554 31.733 C 127.279 32.247,126.827 33.006,126.550 33.420 C 126.018 34.215,125.059 36.751,124.364 39.200 C 123.837 41.054,123.769 46.975,124.249 49.185 C 124.851 51.959,128.636 56.301,131.333 57.310 C 132.133 57.610,133.020 58.087,133.303 58.370 C 133.587 58.654,134.487 59.024,135.304 59.194 C 136.121 59.364,137.166 59.690,137.626 59.920 C 138.918 60.564,140.125 60.792,143.696 61.065 C 145.509 61.204,147.129 61.425,147.296 61.557 C 148.624 62.606,160.212 62.958,163.467 62.049 C 164.420 61.783,166.460 61.334,168.000 61.051 C 169.540 60.768,171.040 60.428,171.333 60.295 C 171.627 60.162,172.467 59.791,173.200 59.470 C 173.933 59.149,174.713 58.661,174.933 58.384 C 175.153 58.107,175.768 57.667,176.299 57.407 C 178.381 56.386,181.267 52.895,181.865 50.673 C 182.015 50.117,182.318 49.512,182.538 49.330 C 182.999 48.947,183.619 46.873,183.851 44.933 C 183.939 44.200,184.146 42.875,184.310 41.989 C 184.755 39.593,183.404 33.067,182.463 33.067 C 182.341 33.067,182.091 32.653,181.908 32.148 C 181.457 30.900,179.148 28.598,177.710 27.962 C 177.063 27.676,176.533 27.357,176.533 27.254 C 176.533 27.150,175.963 26.771,175.267 26.410 C 174.570 26.049,173.561 25.485,173.025 25.156 C 172.489 24.827,171.409 24.477,170.625 24.378 C 169.841 24.279,168.588 23.913,167.840 23.565 C 166.739 23.053,165.761 22.884,162.714 22.679 C 160.643 22.540,158.495 22.308,157.941 22.165 C 154.706 21.327,148.463 21.122,146.267 21.781 M154.053 23.070 C 158.232 23.272,164.427 23.928,165.026 24.234 C 165.534 24.492,166.677 24.739,168.900 25.069 C 169.909 25.219,170.689 25.512,171.095 25.893 C 171.441 26.219,172.349 26.705,173.112 26.973 C 173.875 27.242,174.567 27.565,174.649 27.691 C 174.889 28.055,175.919 28.533,176.463 28.533 C 177.675 28.533,182.443 34.611,182.799 36.611 C 183.329 39.591,182.977 45.184,182.141 47.067 C 181.880 47.653,181.516 48.613,181.332 49.200 C 180.661 51.335,176.988 55.712,174.975 56.774 C 174.586 56.980,173.907 57.420,173.467 57.751 C 172.305 58.627,169.323 59.592,166.266 60.081 C 157.243 61.525,156.955 61.530,147.333 60.428 C 145.427 60.209,143.387 59.978,142.800 59.913 C 142.213 59.848,141.234 59.605,140.625 59.374 C 140.015 59.142,138.804 58.838,137.933 58.698 C 137.063 58.558,135.526 58.013,134.519 57.488 C 133.512 56.963,132.544 56.533,132.369 56.533 C 132.194 56.533,131.548 56.113,130.933 55.600 C 130.319 55.087,129.714 54.667,129.590 54.667 C 129.144 54.667,126.362 50.665,125.734 49.120 C 124.578 46.274,124.394 44.454,125.016 42.000 C 126.296 36.945,126.733 35.546,127.311 34.663 C 127.648 34.148,128.012 33.449,128.120 33.110 C 128.227 32.770,128.725 32.071,129.225 31.556 C 129.726 31.041,130.204 30.345,130.288 30.009 C 130.382 29.636,131.185 28.905,132.354 28.127 C 133.406 27.428,134.754 26.522,135.349 26.114 C 137.404 24.707,148.363 22.296,150.320 22.820 C 150.495 22.867,152.175 22.980,154.053 23.070 M276.267 40.528 C 273.874 40.841,269.398 42.360,268.451 43.182 C 267.983 43.588,267.268 44.001,266.863 44.099 C 265.720 44.377,260.946 49.000,260.560 50.202 C 260.502 50.384,260.235 50.815,259.969 51.159 C 259.702 51.502,259.343 52.497,259.172 53.368 C 258.995 54.267,258.502 55.493,258.032 56.203 L 257.203 57.454 257.202 62.527 C 257.200 68.301,257.395 68.959,260.015 72.000 C 260.331 72.367,260.667 72.789,260.762 72.939 C 261.142 73.543,263.325 75.200,263.740 75.200 C 263.984 75.200,264.413 75.456,264.692 75.769 C 265.663 76.855,269.500 78.456,272.035 78.833 C 273.333 79.026,274.665 79.359,274.997 79.573 C 278.030 81.528,299.582 81.354,303.267 79.344 C 303.890 79.004,304.880 78.578,305.467 78.397 C 307.579 77.744,309.283 76.820,309.854 76.018 C 310.174 75.568,310.594 75.200,310.787 75.200 C 311.291 75.200,313.333 73.025,313.333 72.489 C 313.333 72.241,313.635 71.802,314.003 71.512 C 314.371 71.223,314.862 70.524,315.095 69.960 C 315.327 69.395,315.728 68.693,315.986 68.400 C 318.069 66.025,317.980 54.900,315.852 51.768 C 315.493 51.241,315.200 50.614,315.200 50.375 C 315.200 49.989,314.193 48.988,311.600 46.795 C 311.160 46.422,310.290 45.869,309.667 45.564 C 309.043 45.260,308.533 44.908,308.533 44.782 C 308.533 44.657,307.921 44.372,307.173 44.150 C 306.424 43.928,305.194 43.447,304.439 43.082 C 303.684 42.717,302.227 42.289,301.200 42.130 C 300.173 41.972,298.853 41.614,298.267 41.337 C 296.306 40.408,281.385 39.860,276.267 40.528 M292.933 41.747 C 294.107 41.964,296.567 42.397,298.400 42.708 C 300.470 43.060,302.138 43.501,302.800 43.872 C 303.387 44.201,304.227 44.553,304.667 44.654 C 305.933 44.945,309.653 46.911,310.546 47.760 C 310.993 48.185,311.488 48.533,311.645 48.533 C 312.094 48.533,313.606 50.415,314.163 51.667 C 314.440 52.290,314.923 53.370,315.236 54.067 C 317.173 58.378,316.606 64.450,313.818 69.253 C 313.494 69.811,312.970 70.789,312.653 71.427 C 311.959 72.821,307.744 76.100,306.063 76.552 C 305.476 76.710,304.802 76.949,304.565 77.083 C 303.352 77.766,300.914 78.667,300.274 78.667 C 299.875 78.667,299.200 78.836,298.774 79.044 C 295.884 80.452,283.920 80.179,276.933 78.546 C 275.907 78.306,274.107 77.943,272.933 77.739 C 271.760 77.536,270.020 77.029,269.067 76.613 C 267.464 75.912,266.750 75.501,263.884 73.621 C 262.638 72.805,260.004 70.134,260.001 69.685 C 260.001 69.512,259.650 68.612,259.222 67.685 C 257.878 64.772,257.939 60.493,259.372 57.008 C 259.718 56.169,260.000 55.292,260.000 55.058 C 260.000 52.733,264.715 46.947,268.350 44.810 C 268.984 44.438,269.892 43.878,270.368 43.566 C 270.928 43.199,271.897 42.934,273.117 42.813 C 274.153 42.711,275.316 42.505,275.701 42.356 C 278.429 41.295,288.558 40.937,292.933 41.747 M119.333 104.267 C 119.773 104.379,120.433 104.472,120.800 104.475 L 121.467 104.480 120.800 104.267 C 120.433 104.149,119.773 104.055,119.333 104.058 L 118.533 104.063 119.333 104.267 M104.933 108.375 C 103.907 108.549,102.827 108.819,102.533 108.974 C 102.240 109.129,100.860 109.408,99.467 109.593 C 97.805 109.814,96.612 110.129,96.000 110.508 C 95.487 110.826,94.527 111.317,93.867 111.599 C 91.469 112.623,86.667 116.781,86.667 117.832 C 86.667 118.102,86.397 118.613,86.067 118.970 C 85.737 119.326,85.242 120.153,84.966 120.809 C 84.691 121.464,84.190 122.540,83.852 123.201 C 83.515 123.861,83.108 125.241,82.948 126.267 C 82.788 127.294,82.519 128.951,82.350 129.950 C 81.988 132.082,82.651 135.304,84.089 138.400 C 85.222 140.841,87.660 143.466,89.600 144.335 C 90.260 144.631,91.100 145.080,91.467 145.333 C 91.833 145.586,92.793 145.941,93.600 146.123 C 94.407 146.305,95.728 146.789,96.536 147.199 C 97.548 147.713,98.753 148.037,100.403 148.241 C 101.721 148.403,103.389 148.716,104.109 148.935 C 104.829 149.154,106.209 149.334,107.176 149.334 C 108.142 149.335,110.309 149.464,111.989 149.621 C 115.338 149.935,121.009 149.625,124.400 148.943 C 125.427 148.736,127.167 148.435,128.267 148.274 C 129.774 148.052,130.496 147.796,131.200 147.234 C 131.713 146.823,132.947 146.100,133.941 145.626 C 136.497 144.409,140.492 140.187,141.114 138.047 C 141.292 137.435,141.693 136.513,142.007 136.000 C 143.885 132.922,143.565 122.178,141.521 119.683 C 140.978 119.021,140.533 118.362,140.533 118.221 C 140.533 117.718,138.596 115.708,137.638 115.216 C 137.104 114.942,136.318 114.416,135.891 114.047 C 135.464 113.679,134.714 113.302,134.224 113.210 C 133.734 113.118,133.333 112.948,133.333 112.833 C 133.333 112.517,130.943 111.503,129.733 111.306 C 129.147 111.211,128.486 110.976,128.266 110.785 C 127.524 110.140,126.497 109.912,122.989 109.615 C 121.068 109.452,119.099 109.153,118.614 108.952 C 116.467 108.060,108.709 107.733,104.933 108.375 M113.787 109.593 C 114.491 109.736,117.068 110.036,119.515 110.261 C 122.535 110.538,124.344 110.833,125.151 111.179 C 125.805 111.459,127.283 111.952,128.437 112.273 C 129.590 112.595,130.653 112.953,130.800 113.070 C 130.947 113.187,131.760 113.484,132.608 113.730 C 133.516 113.992,134.631 114.579,135.319 115.155 C 135.962 115.693,136.978 116.530,137.577 117.015 C 138.176 117.500,138.667 118.023,138.667 118.178 C 138.667 118.332,139.239 119.256,139.939 120.229 C 142.553 123.867,143.206 130.441,141.322 134.151 C 141.056 134.674,140.605 135.768,140.319 136.582 C 139.404 139.186,135.652 143.317,133.339 144.267 C 132.804 144.487,131.459 145.236,130.350 145.931 C 128.147 147.314,127.992 147.348,120.933 148.054 C 113.865 148.760,101.507 147.952,98.837 146.610 C 98.271 146.325,97.071 145.859,96.170 145.573 C 95.270 145.288,94.025 144.817,93.403 144.527 C 92.781 144.237,92.151 144.000,92.002 144.000 C 91.666 144.000,90.339 143.280,88.927 142.330 C 84.734 139.512,82.891 132.737,84.592 126.400 C 84.888 125.300,85.221 124.040,85.334 123.600 C 85.641 122.398,85.903 121.815,86.529 120.933 C 86.841 120.493,87.330 119.655,87.615 119.069 C 87.900 118.484,88.653 117.475,89.289 116.826 C 89.924 116.178,90.624 115.372,90.845 115.036 C 91.231 114.447,96.005 111.930,98.423 111.041 C 101.220 110.013,111.214 109.071,113.787 109.593 M241.574 133.080 C 237.968 133.340,235.701 134.145,232.074 136.454 C 230.320 137.570,227.200 140.579,227.200 141.154 C 227.200 141.393,226.916 141.774,226.569 142.001 C 225.600 142.636,224.001 145.536,223.556 147.467 C 223.336 148.420,222.903 150.035,222.593 151.056 C 220.318 158.558,225.405 167.738,232.723 169.339 C 233.425 169.493,234.319 169.850,234.709 170.133 C 235.480 170.691,238.028 171.195,240.102 171.198 C 240.927 171.199,241.714 171.392,242.251 171.724 C 245.143 173.511,261.010 173.553,265.067 171.784 C 265.727 171.497,267.047 171.180,268.000 171.081 C 271.170 170.753,273.686 169.264,277.474 165.475 C 279.725 163.223,281.415 159.887,281.801 156.933 C 281.877 156.347,282.128 155.507,282.357 155.067 C 282.968 153.895,282.943 149.514,282.319 148.279 C 282.062 147.772,281.667 146.632,281.440 145.745 C 280.640 142.621,279.793 141.604,274.491 137.399 C 274.074 137.069,273.253 136.675,272.667 136.525 C 272.080 136.375,270.809 135.944,269.841 135.567 C 268.874 135.190,267.254 134.726,266.241 134.536 C 265.229 134.345,263.740 133.998,262.933 133.763 C 260.198 132.968,248.386 132.590,241.574 133.080 M258.400 134.738 C 259.243 135.109,260.530 135.323,262.726 135.458 C 265.544 135.631,265.956 135.723,266.922 136.392 C 267.511 136.800,268.561 137.240,269.256 137.370 C 271.123 137.719,272.954 138.775,275.215 140.806 C 276.323 141.801,277.521 142.657,277.878 142.708 C 278.386 142.780,278.560 143.002,278.680 143.733 C 278.860 144.818,279.377 145.867,279.732 145.867 C 280.745 145.867,280.841 156.161,279.842 157.512 C 279.534 157.927,279.116 158.927,278.912 159.733 C 278.148 162.749,274.292 166.614,270.133 168.533 C 269.180 168.973,268.204 169.445,267.966 169.582 C 267.727 169.719,266.227 170.026,264.632 170.265 C 263.009 170.509,261.209 170.956,260.542 171.283 C 258.752 172.160,249.895 172.166,247.867 171.292 C 246.558 170.727,243.430 170.196,240.000 169.954 C 238.899 169.877,237.829 169.604,237.067 169.207 C 236.407 168.863,235.333 168.440,234.681 168.267 C 234.029 168.093,232.720 167.368,231.773 166.654 C 230.825 165.941,229.705 165.282,229.283 165.189 C 228.861 165.096,228.315 164.701,228.069 164.310 C 227.824 163.920,227.284 163.201,226.869 162.714 C 223.675 158.960,223.159 152.137,225.696 147.194 C 227.279 144.111,228.568 142.005,229.022 141.761 C 229.267 141.629,230.091 140.879,230.855 140.094 C 231.619 139.309,232.329 138.667,232.434 138.667 C 232.539 138.667,232.814 138.499,233.046 138.294 C 233.460 137.926,234.701 137.196,236.533 136.242 C 237.047 135.974,238.367 135.613,239.467 135.440 C 240.643 135.254,241.688 134.925,242.004 134.641 C 243.055 133.697,256.212 133.774,258.400 134.738 M74.800 204.395 C 70.644 205.287,66.554 207.600,64.782 210.062 L 63.867 211.333 63.867 214.561 L 63.867 217.788 64.874 218.961 C 65.429 219.606,66.081 220.313,66.325 220.533 C 66.569 220.753,67.128 221.323,67.567 221.800 C 68.006 222.277,68.469 222.667,68.595 222.667 C 68.722 222.667,69.330 222.917,69.946 223.222 C 71.330 223.908,73.064 224.427,74.750 224.660 C 75.456 224.758,76.432 225.073,76.919 225.360 C 77.405 225.647,78.668 226.062,79.724 226.283 C 80.780 226.503,81.904 226.850,82.222 227.055 C 82.540 227.260,83.580 227.577,84.533 227.760 C 86.316 228.102,86.484 228.208,89.000 230.595 L 90.400 231.924 90.399 233.762 C 90.398 235.698,89.741 237.333,88.965 237.333 C 88.758 237.333,88.214 237.760,87.755 238.282 C 87.053 239.083,86.665 239.273,85.280 239.496 C 84.378 239.641,83.526 239.830,83.388 239.915 C 82.107 240.707,74.311 239.777,72.976 238.672 C 71.463 237.421,69.920 235.790,69.754 235.268 C 69.059 233.071,65.078 233.389,63.176 235.795 C 61.791 237.548,61.828 237.686,64.467 240.493 C 64.943 241.000,65.333 241.500,65.333 241.605 C 65.333 241.709,65.900 242.011,66.594 242.275 C 67.287 242.540,68.155 243.037,68.524 243.378 C 68.893 243.720,69.350 244.000,69.539 244.000 C 69.729 244.000,70.450 244.283,71.142 244.630 C 75.199 246.660,89.456 245.836,91.619 243.446 C 91.884 243.153,92.628 242.680,93.274 242.395 C 93.919 242.109,94.506 241.651,94.578 241.377 C 94.650 241.103,95.089 240.711,95.554 240.506 C 96.019 240.301,96.442 239.893,96.493 239.600 C 96.545 239.307,96.877 238.827,97.231 238.533 C 98.479 237.500,98.993 233.347,98.219 230.551 C 97.549 228.133,96.493 226.582,94.933 225.722 C 94.420 225.439,93.700 224.950,93.333 224.634 C 92.967 224.318,92.367 223.974,92.000 223.868 C 91.633 223.762,90.613 223.305,89.733 222.853 C 88.480 222.208,87.658 221.994,85.938 221.866 C 84.230 221.739,83.609 221.579,83.138 221.144 C 82.498 220.552,80.857 220.004,79.718 220.001 C 79.344 220.001,78.630 219.700,78.133 219.333 C 77.636 218.967,76.957 218.667,76.624 218.667 C 75.126 218.667,72.235 216.506,71.903 215.138 C 71.606 213.917,71.988 212.306,72.623 212.105 C 72.929 212.008,73.392 211.658,73.652 211.328 C 74.611 210.108,79.605 208.957,81.330 209.559 C 81.816 209.728,82.465 209.867,82.773 209.868 C 83.608 209.870,85.267 210.375,85.658 210.745 C 88.805 213.728,89.766 213.981,92.617 212.578 C 95.787 211.017,95.616 208.594,92.255 207.423 C 91.748 207.246,91.127 206.840,90.875 206.520 C 90.597 206.167,89.972 205.866,89.288 205.757 C 88.666 205.658,87.782 205.344,87.322 205.060 C 85.805 204.122,78.004 203.708,74.800 204.395 M153.567 204.281 C 151.956 204.397,150.399 204.658,149.957 204.887 C 149.530 205.108,148.176 205.442,146.948 205.630 C 145.358 205.873,144.506 206.149,143.986 206.586 C 143.530 206.969,142.908 207.200,142.329 207.200 C 141.290 207.200,139.061 208.094,138.742 208.639 C 138.627 208.835,138.145 209.193,137.670 209.436 C 137.195 209.679,136.201 210.463,135.462 211.180 C 134.722 211.896,133.948 212.547,133.741 212.627 C 133.534 212.706,133.148 213.108,132.884 213.519 C 132.619 213.930,132.132 214.485,131.801 214.753 C 131.471 215.020,131.198 215.380,131.195 215.553 C 131.192 215.725,130.847 216.374,130.427 216.993 C 129.962 217.678,129.531 218.819,129.326 219.904 C 129.141 220.884,128.828 221.998,128.630 222.377 C 128.120 223.355,128.158 226.393,128.691 227.153 C 128.933 227.499,129.205 228.697,129.326 229.946 C 129.576 232.532,129.705 232.899,130.556 233.457 C 130.910 233.689,131.200 234.047,131.200 234.253 C 131.200 234.459,131.471 234.847,131.801 235.114 C 132.132 235.381,132.630 235.954,132.909 236.386 C 133.792 237.759,137.028 240.533,137.745 240.533 C 137.906 240.533,138.292 240.827,138.604 241.185 C 138.932 241.563,139.598 241.908,140.185 242.005 C 141.590 242.238,142.660 242.663,143.600 243.361 C 144.040 243.688,145.180 244.101,146.133 244.278 C 147.087 244.455,148.407 244.773,149.067 244.984 C 152.024 245.929,165.573 245.913,167.411 244.962 C 167.855 244.732,169.252 244.427,170.516 244.284 C 172.595 244.047,174.400 243.400,174.400 242.890 C 174.400 242.782,175.112 242.495,175.982 242.250 C 176.854 242.006,177.832 241.521,178.162 241.170 C 178.490 240.820,178.976 240.533,179.241 240.533 C 179.826 240.533,183.200 237.405,183.744 236.359 C 183.958 235.947,184.386 235.368,184.696 235.072 C 185.005 234.776,185.406 234.004,185.586 233.358 C 185.766 232.711,186.145 231.869,186.427 231.487 C 187.838 229.579,187.730 224.198,186.269 223.638 C 185.970 223.523,168.584 223.383,164.354 223.461 C 163.638 223.474,162.400 224.850,162.400 225.632 C 162.400 228.748,163.787 229.319,171.495 229.378 C 177.804 229.426,178.682 229.591,178.141 230.628 C 178.014 230.869,177.755 231.487,177.565 232.000 C 177.176 233.046,173.862 236.533,173.257 236.533 C 173.041 236.533,172.721 236.707,172.545 236.920 C 172.368 237.132,171.797 237.447,171.276 237.619 C 170.754 237.791,169.928 238.203,169.440 238.534 C 166.800 240.325,150.041 240.447,148.150 238.688 C 147.848 238.406,147.090 237.973,146.467 237.726 C 145.843 237.478,145.333 237.178,145.333 237.060 C 145.333 236.941,144.766 236.628,144.073 236.363 C 142.715 235.844,139.760 233.075,139.005 231.613 C 138.774 231.166,138.433 230.680,138.247 230.533 C 137.096 229.624,137.007 221.895,138.129 220.240 C 138.566 219.595,138.998 218.682,139.089 218.213 C 139.186 217.711,139.540 217.172,139.947 216.905 C 140.836 216.323,141.662 215.494,142.255 214.589 C 142.549 214.140,143.136 213.761,143.822 213.576 C 144.425 213.414,145.241 213.010,145.635 212.678 C 146.028 212.347,146.824 212.000,147.402 211.908 C 147.980 211.816,148.762 211.497,149.139 211.200 C 151.555 209.300,165.984 209.686,169.930 211.757 C 170.184 211.891,170.563 212.000,170.771 212.000 C 170.979 212.000,171.644 212.413,172.247 212.917 C 172.851 213.422,173.583 213.910,173.873 214.002 C 174.163 214.094,174.400 214.277,174.400 214.408 C 174.400 215.779,178.683 216.517,180.153 215.400 C 181.203 214.603,182.933 212.781,182.933 212.473 C 182.933 211.522,177.772 207.832,176.089 207.579 C 175.442 207.482,174.528 207.086,174.020 206.682 C 173.317 206.124,172.583 205.881,170.801 205.615 C 169.531 205.427,168.166 205.109,167.767 204.910 C 166.324 204.190,159.210 203.875,153.567 204.281 M112.000 205.062 C 108.084 205.553,108.215 205.171,108.293 215.867 C 108.328 220.707,108.369 228.807,108.383 233.867 C 108.397 238.927,108.507 243.222,108.627 243.411 C 109.254 244.401,111.053 245.144,112.990 245.213 L 114.936 245.282 115.885 244.174 C 116.662 243.268,116.796 242.945,116.624 242.400 C 116.507 242.033,116.389 233.873,116.359 224.267 C 116.330 214.660,116.298 206.644,116.287 206.454 C 116.276 206.264,115.949 205.814,115.561 205.454 C 114.827 204.774,114.547 204.743,112.000 205.062 M83.724 205.718 C 84.389 205.915,85.893 206.217,87.067 206.388 C 88.370 206.578,89.459 206.900,89.867 207.215 C 90.233 207.499,90.981 207.973,91.528 208.268 C 92.412 208.745,93.333 209.944,93.333 210.616 C 93.333 210.895,90.584 212.000,89.891 212.000 C 89.637 212.000,88.930 211.573,88.320 211.050 C 82.725 206.261,71.827 207.552,70.794 213.126 C 70.122 216.753,72.637 219.247,78.381 220.646 C 79.911 221.018,81.231 221.432,81.314 221.565 C 81.565 221.964,83.476 222.667,84.309 222.667 C 85.433 222.667,91.613 224.656,91.892 225.108 C 91.970 225.234,92.896 225.983,93.950 226.772 C 97.220 229.219,98.728 234.355,96.931 236.923 C 96.639 237.340,96.160 238.110,95.867 238.634 C 95.573 239.157,95.059 239.722,94.723 239.889 C 94.388 240.056,93.848 240.430,93.523 240.720 C 93.199 241.010,92.513 241.409,92.000 241.607 C 91.487 241.805,90.707 242.227,90.267 242.544 C 86.669 245.139,70.871 244.837,69.205 242.142 C 69.114 241.994,68.403 241.689,67.626 241.463 C 66.590 241.162,66.129 240.870,65.903 240.373 C 65.733 239.999,65.220 239.230,64.764 238.662 C 63.311 236.854,64.277 235.200,66.787 235.200 C 68.208 235.200,68.260 235.227,69.058 236.388 C 70.082 237.875,72.003 240.000,72.324 240.000 C 72.457 240.000,73.236 240.317,74.054 240.704 C 76.585 241.901,82.661 242.037,85.333 240.957 C 85.847 240.749,86.702 240.419,87.233 240.223 C 89.614 239.346,91.763 236.155,91.791 233.457 C 91.810 231.689,89.536 228.839,87.099 227.573 C 84.876 226.420,83.878 226.052,82.000 225.695 C 80.827 225.473,79.468 225.045,78.980 224.745 C 78.493 224.444,77.113 224.029,75.914 223.822 C 74.625 223.599,73.351 223.195,72.800 222.833 C 72.287 222.497,71.491 222.147,71.031 222.057 C 70.217 221.897,66.986 219.643,66.082 218.605 C 65.833 218.319,65.373 217.257,65.060 216.245 L 64.490 214.403 65.245 212.520 C 66.442 209.535,69.960 206.982,74.118 206.082 C 79.129 204.996,81.043 204.924,83.724 205.718 M161.867 205.593 C 162.967 205.738,165.657 206.048,167.846 206.283 C 171.149 206.637,171.964 206.812,172.646 207.315 C 173.097 207.648,174.067 208.078,174.800 208.270 C 175.533 208.463,176.451 208.840,176.839 209.108 C 177.227 209.377,177.779 209.687,178.065 209.798 C 178.352 209.909,179.202 210.556,179.954 211.236 L 181.322 212.471 180.006 213.702 C 178.379 215.224,177.290 215.356,176.098 214.175 C 175.151 213.236,172.629 211.594,171.733 211.333 C 171.367 211.226,170.803 210.898,170.481 210.603 C 170.159 210.308,169.439 209.975,168.881 209.863 C 168.323 209.751,166.607 209.406,165.067 209.097 C 161.654 208.412,156.782 208.336,154.490 208.933 C 153.646 209.153,152.364 209.333,151.642 209.333 C 150.023 209.333,148.420 209.791,147.229 210.592 C 146.732 210.926,146.180 211.200,146.003 211.200 C 145.140 211.200,141.847 213.288,140.377 214.767 C 135.609 219.566,134.518 227.675,138.004 232.400 C 140.139 235.293,142.635 237.404,144.901 238.233 C 145.652 238.508,146.629 239.004,147.073 239.334 C 147.516 239.664,148.596 240.078,149.473 240.252 C 150.349 240.427,151.847 240.766,152.800 241.005 C 157.580 242.206,169.551 240.992,170.865 239.173 C 171.048 238.921,171.657 238.636,172.220 238.541 C 172.821 238.440,173.673 237.993,174.288 237.456 C 174.863 236.954,175.461 236.541,175.617 236.538 C 176.859 236.516,179.733 231.464,179.733 229.303 C 179.733 227.759,179.494 227.709,172.158 227.718 C 164.552 227.727,164.000 227.622,164.000 226.161 C 164.000 224.484,163.679 224.533,174.653 224.537 C 185.365 224.542,185.039 224.505,185.696 225.787 C 186.454 227.267,185.148 232.609,183.569 234.485 C 183.220 234.901,182.933 235.322,182.933 235.421 C 182.933 236.377,176.907 240.871,174.658 241.591 C 174.003 241.801,173.043 242.234,172.526 242.552 C 171.943 242.912,170.727 243.249,169.326 243.440 C 161.238 244.544,160.606 244.596,157.200 244.434 C 155.293 244.344,152.653 244.091,151.333 243.873 C 150.013 243.655,148.436 243.474,147.827 243.471 C 147.121 243.468,146.171 243.177,145.198 242.666 C 144.361 242.225,143.011 241.672,142.200 241.436 C 140.263 240.873,136.441 238.356,134.667 236.476 C 132.643 234.330,132.318 233.939,131.917 233.164 C 131.689 232.723,131.320 232.210,131.098 232.026 C 130.323 231.383,129.818 228.053,129.912 224.212 L 130.000 220.641 131.159 218.345 C 131.797 217.083,132.667 215.716,133.093 215.308 C 133.518 214.901,133.867 214.417,133.867 214.235 C 133.867 214.052,134.128 213.820,134.446 213.719 C 134.765 213.617,135.575 213.035,136.246 212.424 C 137.570 211.219,139.337 209.867,139.588 209.867 C 139.674 209.867,140.219 209.567,140.799 209.201 C 141.379 208.834,142.427 208.391,143.127 208.216 C 143.827 208.041,144.772 207.628,145.228 207.298 C 145.893 206.816,146.910 206.587,150.428 206.123 C 152.832 205.807,154.850 205.500,154.911 205.441 C 155.129 205.230,159.902 205.335,161.867 205.593 M199.467 205.677 C 198.521 206.154,198.465 207.184,198.431 224.667 C 198.397 242.185,198.460 243.454,199.406 244.400 L 200.077 245.071 214.361 245.002 L 228.646 244.933 229.256 244.027 C 229.903 243.067,230.051 241.642,229.592 240.785 C 228.923 239.536,228.346 239.467,218.584 239.467 C 207.196 239.467,207.016 239.447,206.689 238.164 C 206.273 236.525,206.339 226.783,206.769 226.426 C 207.023 226.215,210.336 226.098,217.698 226.039 C 230.136 225.938,230.289 225.888,229.419 222.212 C 228.900 220.015,228.817 220.000,217.193 220.000 C 208.651 220.000,206.947 219.938,206.680 219.616 C 206.177 219.010,206.403 210.995,206.933 210.661 C 207.167 210.513,211.621 210.406,217.627 210.404 C 227.900 210.400,227.923 210.399,228.827 209.791 C 230.510 208.661,230.154 206.368,228.179 205.617 C 227.029 205.180,200.342 205.236,199.467 205.677 M247.600 205.860 C 245.105 205.963,243.601 206.145,243.067 206.410 L 242.267 206.807 242.321 210.937 C 242.351 213.208,242.438 217.647,242.515 220.800 C 242.591 223.953,242.650 226.713,242.645 226.933 C 242.640 227.153,242.598 230.393,242.553 234.133 C 242.507 237.873,242.347 241.307,242.197 241.764 C 241.873 242.751,241.993 242.986,243.120 243.563 C 245.346 244.703,248.524 243.736,248.545 241.912 C 248.551 241.374,248.546 238.870,248.534 236.348 C 248.480 225.182,249.154 224.045,253.333 228.256 C 254.140 229.068,255.100 229.928,255.467 230.166 C 255.833 230.404,256.913 231.288,257.867 232.130 C 258.820 232.972,260.306 234.278,261.168 235.031 C 262.030 235.784,262.870 236.521,263.035 236.668 C 263.199 236.815,263.993 237.472,264.800 238.127 C 265.607 238.782,266.741 239.767,267.320 240.315 C 267.899 240.864,268.709 241.452,269.120 241.622 C 269.531 241.792,269.867 242.024,269.867 242.137 C 269.867 243.738,274.116 244.666,276.426 243.570 C 277.651 242.988,277.569 242.563,276.067 241.716 C 275.313 241.291,274.524 240.556,274.117 239.901 C 273.721 239.263,272.993 238.577,272.384 238.269 C 271.806 237.977,270.973 237.374,270.533 236.929 C 270.093 236.483,269.253 235.774,268.667 235.353 C 268.080 234.932,267.480 234.455,267.333 234.294 C 266.858 233.771,265.110 232.533,264.846 232.533 C 264.705 232.533,264.067 231.954,263.428 231.247 C 262.789 230.539,261.787 229.609,261.200 229.180 C 257.830 226.714,257.797 225.867,261.073 225.867 C 265.889 225.867,271.968 222.856,273.225 219.848 C 274.026 217.932,273.987 214.439,273.147 212.875 C 272.215 211.141,269.408 208.000,268.788 208.000 C 268.534 208.000,267.537 207.631,266.572 207.179 C 264.078 206.012,256.588 205.491,247.600 205.860 M287.779 206.421 C 287.063 206.898,286.931 207.120,287.098 207.573 C 287.212 207.881,287.313 215.980,287.324 225.571 L 287.343 243.009 288.271 243.526 C 289.161 244.021,289.696 244.038,301.067 243.920 L 312.933 243.798 315.333 242.991 C 316.653 242.547,318.333 242.099,319.067 241.997 C 321.623 241.638,326.746 238.851,327.645 237.329 C 327.903 236.891,328.248 236.533,328.409 236.533 C 328.986 236.533,330.346 235.042,331.203 233.467 C 333.752 228.788,333.559 229.487,333.463 225.267 C 333.369 221.106,332.800 218.563,331.646 217.146 C 331.312 216.735,330.594 215.718,330.050 214.884 C 329.506 214.050,328.825 213.293,328.537 213.201 C 328.249 213.110,327.761 212.680,327.451 212.245 C 327.142 211.811,326.509 211.293,326.044 211.095 C 325.580 210.897,324.905 210.474,324.545 210.155 C 323.319 209.070,322.269 208.588,320.217 208.170 C 319.090 207.940,317.650 207.512,317.017 207.219 C 314.848 206.214,313.647 206.120,301.067 205.974 L 288.667 205.829 287.779 206.421 M114.170 206.406 C 114.822 206.587,115.191 206.870,115.296 207.271 C 115.639 208.576,115.486 242.538,115.136 243.017 C 114.356 244.083,110.753 243.825,110.128 242.657 C 109.855 242.146,109.730 207.370,110.000 206.933 C 110.407 206.275,112.670 205.989,114.170 206.406 M227.509 206.839 C 227.950 207.238,227.809 208.564,227.268 209.105 C 227.154 209.219,222.479 209.329,216.879 209.349 C 207.994 209.381,206.585 209.442,205.816 209.826 L 204.933 210.267 204.800 214.133 C 204.541 221.640,203.499 221.022,216.686 221.188 C 222.249 221.258,226.864 221.320,226.943 221.324 C 227.279 221.345,228.021 222.980,227.887 223.404 C 227.553 224.454,227.041 224.508,216.905 224.550 C 206.288 224.594,205.723 224.666,205.093 226.050 C 204.522 227.303,204.707 239.033,205.306 239.575 C 206.140 240.330,208.747 240.522,218.214 240.528 L 227.227 240.533 227.614 241.458 C 228.577 243.764,228.772 243.733,213.219 243.733 L 200.012 243.733 199.637 243.133 C 199.173 242.392,199.137 207.155,199.600 206.694 C 200.238 206.058,226.797 206.196,227.509 206.839 M262.667 210.261 C 264.736 210.983,265.534 211.443,266.263 212.335 C 266.652 212.811,267.142 213.411,267.352 213.670 C 268.578 215.179,267.460 219.684,265.571 220.844 C 263.063 222.384,250.668 223.316,249.411 222.058 C 248.281 220.929,248.082 211.024,249.174 210.308 C 250.340 209.544,260.510 209.509,262.667 210.261 M313.067 210.258 C 314.257 210.726,317.717 211.942,318.933 212.319 C 319.447 212.478,319.927 212.689,320.000 212.786 C 320.073 212.884,320.386 213.137,320.695 213.349 C 325.702 216.774,327.571 220.809,326.925 226.800 C 326.799 227.973,326.689 229.259,326.681 229.656 C 326.673 230.054,326.449 230.594,326.184 230.856 C 325.918 231.119,325.270 231.993,324.744 232.800 C 323.465 234.759,320.246 237.418,318.533 237.930 C 318.240 238.018,317.100 238.344,316.000 238.656 C 314.900 238.967,313.622 239.397,313.160 239.611 C 311.833 240.225,296.392 240.178,295.087 239.556 C 293.844 238.963,293.906 239.705,293.814 224.180 C 293.736 211.022,293.748 210.615,294.251 210.246 C 294.996 209.700,311.677 209.710,313.067 210.258 " stroke="none" fill="#95a3af" fill-rule="evenodd"></path></g></svg>