<?xml version="1.0" standalone="no"?>
<!DOCTYPE svg PUBLIC "-//W3C//DTD SVG 20010904//EN"
 "http://www.w3.org/TR/2001/REC-SVG-20010904/DTD/svg10.dtd">
<svg version="1.0" xmlns="http://www.w3.org/2000/svg"
 width="300.000000pt" height="83.000000pt" viewBox="0 0 300.000000 83.000000"
 preserveAspectRatio="xMidYMid meet">

<g transform="translate(0.000000,83.000000) scale(0.100000,-0.100000)"
fill="#000000" stroke="none">
<path d="M1187 747 c-8 -7 -36 -51 -62 -99 l-46 -87 33 -5 c18 -3 61 -7 94 -9
l62 -3 31 63 c19 38 37 63 47 63 9 0 40 -7 70 -16 29 -8 71 -14 94 -12 l40 3
-96 54 c-92 52 -101 55 -175 57 -48 2 -83 -2 -92 -9z"/>
<path d="M1665 580 c34 -12 79 -19 138 -19 79 -1 90 -3 112 -26 29 -28 33 -84
10 -129 -8 -15 -15 -37 -15 -48 0 -25 -44 -68 -70 -68 -13 0 -20 -7 -20 -18 0
-40 -24 -55 -100 -61 l-72 -6 99 -68 c97 -66 138 -80 170 -59 14 9 209 396
218 434 4 16 1 29 -9 37 -11 10 -444 53 -501 50 -5 0 13 -9 40 -19z"/>
<path d="M960 502 c-21 -18 -31 -37 -31 -57 -1 -144 1 -173 17 -186 21 -17
281 -24 301 -7 8 7 23 7 45 -1 19 -5 130 -10 255 -11 241 0 253 3 253 56 0 20
5 24 28 24 36 0 52 16 52 53 0 16 7 35 15 43 19 19 20 88 1 103 -18 15 -578
14 -611 -1 -18 -8 -28 -8 -38 0 -7 6 -62 11 -135 11 -119 1 -123 0 -152 -27z
m164 -8 c10 -4 16 -18 16 -41 0 -29 -3 -34 -17 -28 -10 4 -36 9 -58 12 -30 3
-36 2 -25 -6 8 -6 25 -11 37 -11 12 0 35 -12 52 -26 l31 -26 0 67 0 66 33 -3
c28 -3 33 -7 37 -38 4 -26 7 -31 12 -18 13 33 69 58 128 58 82 0 100 -7 100
-40 l0 -28 -60 5 c-49 5 -64 2 -80 -12 -43 -39 -9 -96 55 -94 29 0 29 1 8 11
-14 7 -23 20 -23 35 0 22 4 23 60 23 l60 0 0 50 0 50 90 0 90 0 0 -30 c0 -29
-1 -30 -50 -30 -27 0 -50 -4 -50 -10 0 -5 20 -10 45 -10 43 0 45 -1 45 -30 0
-28 -2 -30 -39 -30 -61 0 -58 -18 4 -22 l54 -3 3 80 3 80 95 0 95 0 3 -27 c3
-28 2 -28 -52 -28 -43 0 -56 -3 -56 -15 0 -11 11 -15 40 -15 38 0 40 -2 40
-30 0 -28 -2 -30 -39 -30 -39 0 -40 -1 -43 -37 l-3 -38 -137 -3 c-84 -2 -138
1 -138 7 0 6 -12 6 -32 0 -80 -23 -180 -3 -211 41 -15 22 -16 22 -19 -11 -3
-30 -7 -34 -35 -37 -31 -3 -33 -1 -33 27 l0 29 -29 -29 c-31 -30 -70 -37 -140
-23 -28 6 -31 10 -31 41 0 32 2 35 23 29 46 -14 97 -18 97 -8 0 5 -17 13 -37
17 -60 11 -83 30 -83 70 0 53 28 75 94 75 30 0 61 -3 70 -6z"/>
<path d="M0 300 l0 -130 165 0 165 0 0 130 0 130 -165 0 -165 0 0 -130z"/>
<path d="M2650 390 c0 -38 -2 -40 -30 -40 -26 0 -30 -4 -30 -27 l0 -26 23 21
c30 28 37 28 37 -3 l0 -26 30 23 c26 19 30 28 30 70 0 47 -1 48 -30 48 -28 0
-30 -2 -30 -40z"/>
<path d="M2720 300 l0 -130 140 0 140 0 0 130 0 130 -140 0 -140 0 0 -130z"/>
<path d="M500 325 c13 -14 27 -25 32 -25 4 0 8 11 8 25 0 21 -5 25 -32 25
l-31 0 23 -25z"/>
</g>
</svg>
